<?xml version="1.0" encoding="UTF-8" standalone="no"?>
<!DOCTYPE svg PUBLIC "-//W3C//DTD SVG 1.1//EN" "http://www.w3.org/Graphics/SVG/1.1/DTD/svg11.dtd">
<svg width="100%" height="100%" viewBox="0 0 1753 539" version="1.1" xmlns="http://www.w3.org/2000/svg" xmlns:xlink="http://www.w3.org/1999/xlink" xml:space="preserve" xmlns:serif="http://www.serif.com/" style="fill-rule:evenodd;clip-rule:evenodd;stroke-linejoin:round;stroke-miterlimit:2;">
    <rect id="Lettering" x="0" y="0" width="1752.45" height="538.979" style="fill:none;"/>
    <clipPath id="_clip1">
        <rect x="0" y="0" width="1752.45" height="538.979"/>
    </clipPath>
    <g clip-path="url(#_clip1)">
        <g>
            <g>
                <path d="M154.367,245.754l-79.582,0l0,-12.339l0,0c3.333,-0.037 6.036,-5.472 6.06,-12.18l-0,0l-0,-195.936l-0,-0c-0.024,-6.708 -2.727,-12.143 -6.06,-12.18l0,-0l0,-12.355l79.582,-0l0,12.355c-3.363,-0 -6.093,5.496 -6.093,12.267c-0,0.419 0.01,0.834 0.031,1.243l-0,194.606l-0,0c0.023,6.71 2.728,12.147 6.062,12.18l0,0l0,12.339Zm117.557,0l-79.583,0l0,-12.339l0.001,0c3.333,-0.037 6.035,-5.472 6.059,-12.18l-0,0l-0,-79.641l-34.946,0l0,-39.894l34.946,0l-0,-76.401l-0,-0c-0.024,-6.708 -2.726,-12.143 -6.059,-12.18l-0.001,-0l0,-12.355l79.583,-0l-0,12.355c-3.364,-0 -6.094,5.496 -6.094,12.267c-0,0.419 0.01,0.834 0.031,1.243l-0,194.606l-0,0c0.023,6.71 2.728,12.147 6.062,12.18l0.001,0l-0,12.339Z"/>
                <path d="M1152.16,245.754l-12.103,0c-39.352,0 -71.301,-31.949 -71.301,-71.301l0.193,-51.194l-0.193,-51.194c-0,-39.352 31.948,-71.301 71.301,-71.301l12.103,-0l0,37.908c-13.322,1.195 -15.196,12.404 -15.196,26.036l-0,111.953c-0,13.632 1.874,24.84 15.196,26.036l0,43.057Zm26.776,-244.99c39.353,0 71.302,31.949 71.302,71.301l-0.194,51.194l0.194,51.194c-0,39.352 -31.949,71.301 -71.302,71.301l-12.103,0l0,-43.057c13.323,-1.196 15.196,-12.404 15.196,-26.036l0,-111.953c0,-13.632 -1.873,-24.841 -15.196,-26.036l0,-37.908l12.103,-0Z"/>
                <path d="M1556.45,245.754l-73.871,0l0,-12.339l0,0c3.333,-0.037 6.036,-5.472 6.059,-12.18l0,0l0,-195.936l0,-0c-0.023,-6.708 -2.726,-12.143 -6.059,-12.18l0,-0l0,-12.355l73.871,-0l-0,244.99Zm39.633,-206.844l-24.876,0l-0,-38.146l38.79,-0c38.2,-0 69.213,30.173 69.213,67.338l-0,105.625c-0,39.753 -31.013,72.027 -69.213,72.027l-38.79,0l-0,-42.903l25.538,0c12.723,-1.504 14.535,-12.564 14.535,-25.967l-0,-111.917c-0,-13.632 -1.874,-24.84 -15.197,-26.036l0,-0.021Z"/>
                <path d="M585.672,38.91l-24.876,0l-0,-38.146l38.79,-0c38.2,-0 69.213,30.173 69.213,67.338c-0,20.394 -9.339,38.682 -24.08,51.035c14.741,13.213 24.08,32.776 24.08,54.59c-0,1.311 0.047,47.508 0.047,47.508l-0,0c0.023,6.71 2.728,12.147 6.062,12.18l0,0l0,12.339l-80.359,0l-0,-12.339l-0,0c3.333,-0.037 6.035,-5.472 6.059,-12.18l-0,0l0.001,-53.652c0,-13.47 -1.57,-24.574 -14.469,-25.989l-25.344,0l-0,-39.894l24.876,0l0,-0.1c13.323,-1.196 15.197,-12.405 15.197,-26.036l-0,-10.597c-0.001,-13.632 -1.874,-24.84 -15.197,-26.036l0,-0.021Zm-39.633,206.844l-73.871,0l0,-12.339l0,0c3.333,-0.037 6.036,-5.472 6.059,-12.18l0,0l0,-195.936l0,-0c-0.023,-6.708 -2.726,-12.143 -6.059,-12.18l0,-0l0,-12.355l73.871,-0l-0,244.99Z"/>
                <path d="M1376.78,38.91l-24.877,0l0,-38.146l38.791,-0c38.199,-0 69.212,30.173 69.212,67.338c0,20.394 -9.338,38.682 -24.079,51.035c14.741,13.213 24.079,32.776 24.079,54.59c0,1.311 0.047,47.508 0.047,47.508l0,0c0.024,6.71 2.728,12.147 6.063,12.18l0,0l0,12.339l-80.36,0l0,-12.339l0,0c3.333,-0.037 6.036,-5.472 6.059,-12.18l0.001,0l0.001,-53.652c-0,-13.47 -1.571,-24.574 -14.469,-25.989l-25.345,0l0,-39.894l24.877,0l-0,-0.1c13.322,-1.196 15.196,-12.405 15.196,-26.036l0,-10.597c0,-13.632 -1.874,-24.84 -15.196,-26.036l-0,-0.021Zm-39.634,206.844l-73.87,0l-0,-12.339l-0,0c3.333,-0.037 6.036,-5.472 6.059,-12.18l0,0l0,-195.936l-0,-0c-0.023,-6.708 -2.726,-12.143 -6.059,-12.18l-0,-0l-0,-12.355l73.87,-0l0,244.99Z"/>
                <path d="M971.998,245.754l-73.871,0l0,-12.339l0.001,0c3.332,-0.037 6.035,-5.472 6.059,-12.18l-0,0l-0,-195.936l-0,-0c-0.024,-6.708 -2.727,-12.143 -6.059,-12.18l-0.001,-0l0,-12.355l73.871,-0l0,244.99Zm72.204,-98.29l-12.355,-0c0,-3.035 -4.476,-5.555 -10.325,-6.018l-34.724,0l-0,-39.8l34.724,-0c5.849,-0.463 10.325,-2.983 10.325,-6.018l12.355,0l0,51.836Zm15.117,-128.798l0.14,0l-0,26.262l-12.355,-0c-0,-3.035 -4.476,-5.555 -10.325,-6.018l-50.122,0l0,-38.146l72.662,-0l-0,17.902Z"/>
                <path d="M369.19,245.754l-73.87,0l-0,-12.339l-0,0c3.333,-0.037 6.036,-5.472 6.059,-12.18l0,0l0,-195.936l-0,-0c-0.023,-6.708 -2.726,-12.143 -6.059,-12.18l-0,-0l-0,-12.355l73.87,-0l0,244.99Zm82.275,-0.059l-67.475,0l-0,-42.903l44.796,0c5.849,-0.463 10.325,-2.982 10.325,-6.017l12.354,-0l0,48.92Zm-15.256,-98.231l-12.355,-0c-0,-3.035 -4.476,-5.555 -10.325,-6.018l-29.539,0l-0,-39.8l29.539,-0c5.849,-0.463 10.325,-2.983 10.325,-6.018l12.355,0l-0,51.836Zm15.256,-102.536l-12.354,-0c-0,-3.035 -4.476,-5.555 -10.325,-6.018l-44.936,0l-0,-38.146l67.475,-0l0,17.902l0.14,0l0,26.262Z"/>
                <path d="M674.419,0.764l136.992,-0l-0,223.287c0.651,5.363 3.056,9.348 5.919,9.348l0,12.355l-79.79,0l-0,-12.339l-0,0c3.333,-0.037 6.036,-5.472 6.059,-12.18l0,0l0,-182.325l-46.64,0c-5.849,0.463 -10.325,2.983 -10.325,6.018l-12.355,-0l-0,-26.262l0.14,0l0,-17.902Zm206.302,44.164l-12.354,-0c-0,-3.035 -4.476,-5.555 -10.325,-6.018l-31.972,0l-0,-38.146l54.511,-0l0,17.902l0.14,0l0,26.262Z"/>
            </g>
            <g>
                <path d="M1082.3,539.742l-12.103,0l0,-43.057c13.323,-1.195 15.197,-12.404 15.197,-26.036l-0,-22.82l68.135,0l0.073,20.612c-0,39.352 -31.949,71.301 -71.302,71.301Zm-27.96,0l-12.104,0c-39.352,0 -71.301,-31.949 -71.301,-71.301l0.194,-51.194l-0.194,-51.193c-0,-39.352 31.949,-71.301 71.301,-71.302l12.104,0l-0,37.908c-13.323,1.196 -15.197,12.404 -15.197,26.036l0,111.953c0,13.632 1.874,24.841 15.197,26.036l-0,43.057Zm99.187,-156.215l-68.133,-0l-0,-24.831c-0,-13.632 -1.874,-24.84 -15.197,-26.036l0,-37.908l12.103,0c39.353,0 71.302,31.949 71.302,71.302l-0.075,17.473Z"/>
                <path d="M1435.82,539.742l-12.103,0c-39.352,0 -71.301,-31.949 -71.301,-71.301l-0.004,-149.154l-0,-0c-0.023,-6.707 -2.467,-12.143 -5.8,-12.18l-0,-0l-0,-12.355l79.582,0l0,12.355c-3.363,0 -5.834,5.497 -5.834,12.267c-0,0.42 0.01,0.834 0.031,1.243l0.233,150.032c-0,13.632 1.874,24.841 15.196,26.036l0,43.057Zm29.87,-69.093l-0.031,-151.362l-0,-0c-0.024,-6.707 -2.726,-12.143 -6.059,-12.18l-0.001,-0l0,-12.355l80.36,0l0,12.355c-3.363,0 -6.093,5.497 -6.093,12.267c-0,0.42 0.01,0.834 0.031,1.243l0.001,147.824c-0,39.345 -31.937,71.289 -71.302,71.301l-12.103,0l0,-43.057c13.323,-1.195 15.197,-12.404 15.197,-26.036Z"/>
                <path d="M74.645,539.742l-73.871,0l0,-12.338l0,-0.001c3.333,-0.037 6.036,-5.472 6.06,-12.179l-0,-0.001l-0,-195.936l-0,-0c-0.024,-6.707 -2.727,-12.143 -6.06,-12.18l0,-0l0,-12.355l73.871,0l0,244.99Zm39.633,-206.843l-24.876,-0l0,-38.147l38.791,0c38.199,0 69.212,30.173 69.212,67.338c0,20.394 -9.339,38.683 -24.079,51.036c14.74,13.213 24.079,32.775 24.079,54.589c0,39.753 -31.012,72.027 -69.212,72.027l-38.791,0l0,-42.902l25.538,-0c12.723,-1.505 14.535,-12.565 14.535,-25.968l-0,-9.3c-0,-13.471 -1.83,-24.575 -14.729,-25.989l-25.344,-0l0,-39.895l24.876,0l0,-0.1c13.323,-1.196 15.197,-12.404 15.197,-26.036l-0,-10.597c-0,-13.632 -1.874,-24.84 -15.197,-26.036l0,-0.02Z"/>
                <path d="M1630.47,539.742l-73.871,0l0,-12.338l0,-0.001c3.333,-0.037 6.036,-5.472 6.059,-12.179l0,-0.001l0,-195.936l0,-0c-0.023,-6.707 -2.726,-12.143 -6.059,-12.18l0,-0l0,-12.355l73.871,0l-0,244.99Zm39.633,-206.843l-24.876,-0l-0,-38.147l38.79,0c38.2,0 69.213,30.173 69.213,67.338c-0,20.394 -9.339,38.683 -24.08,51.036c14.741,13.213 24.08,32.775 24.08,54.589c-0,39.753 -31.013,72.027 -69.213,72.027l-38.79,0l-0,-42.902l25.538,-0c12.723,-1.505 14.535,-12.565 14.535,-25.968l-0,-9.3c-0.001,-13.471 -1.83,-24.575 -14.729,-25.989l-25.344,-0l-0,-39.895l24.876,0l0,-0.1c13.323,-1.196 15.197,-12.404 15.197,-26.036l-0,-10.597c-0.001,-13.632 -1.874,-24.84 -15.197,-26.036l0,-0.02Z"/>
                <path d="M328.25,332.899l-24.876,-0l-0,-38.147l38.79,0c38.199,0 69.212,30.173 69.212,67.338c0,20.394 -9.338,38.683 -24.079,51.036c14.741,13.213 24.079,32.775 24.079,54.589c0,1.311 0.047,47.508 0.047,47.508l0.001,0.001c0.023,6.709 2.728,12.146 6.062,12.179l0,0.001l0,12.338l-80.36,0l0,-12.338l0,-0.001c3.333,-0.037 6.036,-5.472 6.059,-12.179l0.001,-0.001l0.001,-53.651c-0,-13.471 -1.571,-24.575 -14.469,-25.989l-25.344,-0l-0,-39.895l24.876,0l-0,-0.1c13.322,-1.196 15.196,-12.404 15.196,-26.036l0,-10.597c0,-13.632 -1.874,-24.84 -15.196,-26.036l-0,-0.02Zm-39.633,206.843l-73.871,0l-0,-12.338l-0,-0.001c3.333,-0.037 6.036,-5.472 6.059,-12.179l0,-0.001l0,-195.936l-0,-0c-0.023,-6.707 -2.726,-12.143 -6.059,-12.18l-0,-0l-0,-12.355l73.871,0l-0,244.99Z"/>
                <path d="M517.027,539.742l-73.871,0l-0,-12.338l0,-0.001c3.333,-0.037 6.036,-5.472 6.059,-12.179l0,-0.001l0,-195.936l0,-0c-0.023,-6.707 -2.726,-12.143 -6.059,-12.18l-0,-0l-0,-12.355l73.871,0l-0,244.99Zm82.275,-0.058l-67.476,-0l0,-42.903l44.796,-0c5.849,-0.463 10.325,-2.983 10.325,-6.018l12.355,0l-0,48.921Zm-15.257,-98.232l-12.355,0c0,-3.035 -4.476,-5.554 -10.325,-6.017l-29.539,-0l0,-39.801l29.539,0c5.849,-0.463 10.325,-2.982 10.325,-6.017l12.355,-0l-0,51.835Zm15.257,-102.536l-12.355,0c-0,-3.035 -4.476,-5.554 -10.325,-6.017l-44.936,-0l-0,-38.147l67.475,0l0,17.903l0.141,-0l-0,26.261Z"/>
                <path d="M1239.92,539.742l-73.871,0l0,-12.338l0.001,-0.001c3.332,-0.037 6.035,-5.472 6.059,-12.179l-0,-0.001l-0,-195.936l-0,-0c-0.024,-6.707 -2.727,-12.143 -6.059,-12.18l-0.001,-0l0,-12.355l73.871,0l0,244.99Zm97.832,-0.058l-83.032,-0l-0,-42.903l60.352,-0c5.849,-0.463 10.325,-2.983 10.325,-6.018l12.355,0l0,48.921Z"/>
                <path d="M849.065,539.742l-79.51,0l-2.592,-12.354c0.018,-0 0.037,-0 0.055,-0.001l0,-0.141c2.546,-0.909 3.669,-6.064 2.644,-12.023l0.044,0l-51.333,-220.471l67.713,0l51.784,222.407c-0.003,-0.032 -0.005,-0.064 -0.008,-0.096l0.727,3.177c1.612,4.217 5.428,7.148 7.883,7.148l2.593,12.354Zm-94.52,0l-79.492,0l-2.593,-12.354c0.055,-0 0.109,-0.002 0.162,-0.005l0,-0.137c2.546,-0.909 3.812,-6.064 2.787,-12.023l-0.003,0l-46.914,-201.494c-1.717,-3.933 -5.317,-6.622 -7.669,-6.622l-2.593,-12.355l79.508,0l2.593,12.355c-0.016,-0 -0.032,0 -0.047,0c-2.546,0.91 -3.804,6.222 -2.779,12.18l-0.006,0l47.038,202.024c1.798,3.634 5.173,6.077 7.415,6.077l2.593,12.354Zm84.098,-19.262l-0.054,-0.24l-0.003,-0.007l0.057,0.247Zm10.294,-213.375l2.593,-12.353l54.356,0l-2.592,12.355c-2.405,-0 -6.114,2.81 -7.781,6.887l-44.824,192.513l-21.411,-91.96l22.438,-96.368c0.714,-5.497 -0.399,-10.22 -2.786,-11.072l0.007,-0.002Z"/>
            </g>
        </g>
        <g>
            <g>
                <path d="M154.367,245.754l-79.582,0l0,-12.339l0,0c3.333,-0.037 6.036,-5.472 6.06,-12.18l-0,0l-0,-195.936l-0,-0c-0.024,-6.708 -2.727,-12.143 -6.06,-12.18l0,-0l0,-12.355l79.582,-0l0,12.355c-3.363,-0 -6.093,5.496 -6.093,12.267c-0,0.419 0.01,0.834 0.031,1.243l-0,194.606l-0,0c0.023,6.71 2.728,12.147 6.062,12.18l0,0l0,12.339Zm117.557,0l-79.583,0l0,-12.339l0.001,0c3.333,-0.037 6.035,-5.472 6.059,-12.18l-0,0l-0,-79.641l-34.946,0l0,-39.894l34.946,0l-0,-76.401l-0,-0c-0.024,-6.708 -2.726,-12.143 -6.059,-12.18l-0.001,-0l0,-12.355l79.583,-0l-0,12.355c-3.364,-0 -6.094,5.496 -6.094,12.267c-0,0.419 0.01,0.834 0.031,1.243l-0,194.606l-0,0c0.023,6.71 2.728,12.147 6.062,12.18l0.001,0l-0,12.339Z" style="fill:white;"/>
                <path d="M1152.16,245.754l-12.103,0c-39.352,0 -71.301,-31.949 -71.301,-71.301l0.193,-51.194l-0.193,-51.194c-0,-39.352 31.948,-71.301 71.301,-71.301l12.103,-0l0,37.908c-13.322,1.195 -15.196,12.404 -15.196,26.036l-0,111.953c-0,13.632 1.874,24.84 15.196,26.036l0,43.057Zm26.776,-244.99c39.353,0 71.302,31.949 71.302,71.301l-0.194,51.194l0.194,51.194c-0,39.352 -31.949,71.301 -71.302,71.301l-12.103,0l0,-43.057c13.323,-1.196 15.196,-12.404 15.196,-26.036l0,-111.953c0,-13.632 -1.873,-24.841 -15.196,-26.036l0,-37.908l12.103,-0Z" style="fill:white;"/>
                <path d="M1556.45,245.754l-73.871,0l0,-12.339l0,0c3.333,-0.037 6.036,-5.472 6.059,-12.18l0,0l0,-195.936l0,-0c-0.023,-6.708 -2.726,-12.143 -6.059,-12.18l0,-0l0,-12.355l73.871,-0l-0,244.99Zm39.633,-206.844l-24.876,0l-0,-38.146l38.79,-0c38.2,-0 69.213,30.173 69.213,67.338l-0,105.625c-0,39.753 -31.013,72.027 -69.213,72.027l-38.79,0l-0,-42.903l25.538,0c12.723,-1.504 14.535,-12.564 14.535,-25.967l-0,-111.917c-0,-13.632 -1.874,-24.84 -15.197,-26.036l0,-0.021Z" style="fill:white;"/>
                <path d="M585.672,38.91l-24.876,0l-0,-38.146l38.79,-0c38.2,-0 69.213,30.173 69.213,67.338c-0,20.394 -9.339,38.682 -24.08,51.035c14.741,13.213 24.08,32.776 24.08,54.59c-0,1.311 0.047,47.508 0.047,47.508l-0,0c0.023,6.71 2.728,12.147 6.062,12.18l0,0l0,12.339l-80.359,0l-0,-12.339l-0,0c3.333,-0.037 6.035,-5.472 6.059,-12.18l-0,0l0.001,-53.652c0,-13.47 -1.57,-24.574 -14.469,-25.989l-25.344,0l-0,-39.894l24.876,0l0,-0.1c13.323,-1.196 15.197,-12.405 15.197,-26.036l-0,-10.597c-0.001,-13.632 -1.874,-24.84 -15.197,-26.036l0,-0.021Zm-39.633,206.844l-73.871,0l0,-12.339l0,0c3.333,-0.037 6.036,-5.472 6.059,-12.18l0,0l0,-195.936l0,-0c-0.023,-6.708 -2.726,-12.143 -6.059,-12.18l0,-0l0,-12.355l73.871,-0l-0,244.99Z" style="fill:white;"/>
                <path d="M1376.78,38.91l-24.877,0l0,-38.146l38.791,-0c38.199,-0 69.212,30.173 69.212,67.338c0,20.394 -9.338,38.682 -24.079,51.035c14.741,13.213 24.079,32.776 24.079,54.59c0,1.311 0.047,47.508 0.047,47.508l0,0c0.024,6.71 2.728,12.147 6.063,12.18l0,0l0,12.339l-80.36,0l0,-12.339l0,0c3.333,-0.037 6.036,-5.472 6.059,-12.18l0.001,0l0.001,-53.652c-0,-13.47 -1.571,-24.574 -14.469,-25.989l-25.345,0l0,-39.894l24.877,0l-0,-0.1c13.322,-1.196 15.196,-12.405 15.196,-26.036l0,-10.597c0,-13.632 -1.874,-24.84 -15.196,-26.036l-0,-0.021Zm-39.634,206.844l-73.87,0l-0,-12.339l-0,0c3.333,-0.037 6.036,-5.472 6.059,-12.18l0,0l0,-195.936l-0,-0c-0.023,-6.708 -2.726,-12.143 -6.059,-12.18l-0,-0l-0,-12.355l73.87,-0l0,244.99Z" style="fill:white;"/>
                <path d="M971.998,245.754l-73.871,0l0,-12.339l0.001,0c3.332,-0.037 6.035,-5.472 6.059,-12.18l-0,0l-0,-195.936l-0,-0c-0.024,-6.708 -2.727,-12.143 -6.059,-12.18l-0.001,-0l0,-12.355l73.871,-0l0,244.99Zm72.204,-98.29l-12.355,-0c0,-3.035 -4.476,-5.555 -10.325,-6.018l-34.724,0l-0,-39.8l34.724,-0c5.849,-0.463 10.325,-2.983 10.325,-6.018l12.355,0l0,51.836Zm15.117,-128.798l0.14,0l-0,26.262l-12.355,-0c-0,-3.035 -4.476,-5.555 -10.325,-6.018l-50.122,0l0,-38.146l72.662,-0l-0,17.902Z" style="fill:white;"/>
                <path d="M369.19,245.754l-73.87,0l-0,-12.339l-0,0c3.333,-0.037 6.036,-5.472 6.059,-12.18l0,0l0,-195.936l-0,-0c-0.023,-6.708 -2.726,-12.143 -6.059,-12.18l-0,-0l-0,-12.355l73.87,-0l0,244.99Zm82.275,-0.059l-67.475,0l-0,-42.903l44.796,0c5.849,-0.463 10.325,-2.982 10.325,-6.017l12.354,-0l0,48.92Zm-15.256,-98.231l-12.355,-0c-0,-3.035 -4.476,-5.555 -10.325,-6.018l-29.539,0l-0,-39.8l29.539,-0c5.849,-0.463 10.325,-2.983 10.325,-6.018l12.355,0l-0,51.836Zm15.256,-102.536l-12.354,-0c-0,-3.035 -4.476,-5.555 -10.325,-6.018l-44.936,0l-0,-38.146l67.475,-0l0,17.902l0.14,0l0,26.262Z" style="fill:white;"/>
                <path d="M674.419,0.764l136.992,-0l-0,223.287c0.651,5.363 3.056,9.348 5.919,9.348l0,12.355l-79.79,0l-0,-12.339l-0,0c3.333,-0.037 6.036,-5.472 6.059,-12.18l0,0l0,-182.325l-46.64,0c-5.849,0.463 -10.325,2.983 -10.325,6.018l-12.355,-0l-0,-26.262l0.14,0l0,-17.902Zm206.302,44.164l-12.354,-0c-0,-3.035 -4.476,-5.555 -10.325,-6.018l-31.972,0l-0,-38.146l54.511,-0l0,17.902l0.14,0l0,26.262Z" style="fill:white;"/>
            </g>
            <g>
                <path d="M1082.3,539.742l-12.103,0l0,-43.057c13.323,-1.195 15.197,-12.404 15.197,-26.036l-0,-22.82l68.135,0l0.073,20.612c-0,39.352 -31.949,71.301 -71.302,71.301Zm-27.96,0l-12.104,0c-39.352,0 -71.301,-31.949 -71.301,-71.301l0.194,-51.194l-0.194,-51.193c-0,-39.352 31.949,-71.301 71.301,-71.302l12.104,0l-0,37.908c-13.323,1.196 -15.197,12.404 -15.197,26.036l0,111.953c0,13.632 1.874,24.841 15.197,26.036l-0,43.057Zm99.187,-156.215l-68.133,-0l-0,-24.831c-0,-13.632 -1.874,-24.84 -15.197,-26.036l0,-37.908l12.103,0c39.353,0 71.302,31.949 71.302,71.302l-0.075,17.473Z" style="fill:white;"/>
                <path d="M1435.82,539.742l-12.103,0c-39.352,0 -71.301,-31.949 -71.301,-71.301l-0.004,-149.154l-0,-0c-0.023,-6.707 -2.467,-12.143 -5.8,-12.18l-0,-0l-0,-12.355l79.582,0l0,12.355c-3.363,0 -5.834,5.497 -5.834,12.267c-0,0.42 0.01,0.834 0.031,1.243l0.233,150.032c-0,13.632 1.874,24.841 15.196,26.036l0,43.057Zm29.87,-69.093l-0.031,-151.362l-0,-0c-0.024,-6.707 -2.726,-12.143 -6.059,-12.18l-0.001,-0l0,-12.355l80.36,0l0,12.355c-3.363,0 -6.093,5.497 -6.093,12.267c-0,0.42 0.01,0.834 0.031,1.243l0.001,147.824c-0,39.345 -31.937,71.289 -71.302,71.301l-12.103,0l0,-43.057c13.323,-1.195 15.197,-12.404 15.197,-26.036Z" style="fill:white;"/>
                <path d="M74.645,539.742l-73.871,0l0,-12.338l0,-0.001c3.333,-0.037 6.036,-5.472 6.06,-12.179l-0,-0.001l-0,-195.936l-0,-0c-0.024,-6.707 -2.727,-12.143 -6.06,-12.18l0,-0l0,-12.355l73.871,0l0,244.99Zm39.633,-206.843l-24.876,-0l0,-38.147l38.791,0c38.199,0 69.212,30.173 69.212,67.338c0,20.394 -9.339,38.683 -24.079,51.036c14.74,13.213 24.079,32.775 24.079,54.589c0,39.753 -31.012,72.027 -69.212,72.027l-38.791,0l0,-42.902l25.538,-0c12.723,-1.505 14.535,-12.565 14.535,-25.968l-0,-9.3c-0,-13.471 -1.83,-24.575 -14.729,-25.989l-25.344,-0l0,-39.895l24.876,0l0,-0.1c13.323,-1.196 15.197,-12.404 15.197,-26.036l-0,-10.597c-0,-13.632 -1.874,-24.84 -15.197,-26.036l0,-0.02Z" style="fill:white;"/>
                <path d="M1630.47,539.742l-73.871,0l0,-12.338l0,-0.001c3.333,-0.037 6.036,-5.472 6.059,-12.179l0,-0.001l0,-195.936l0,-0c-0.023,-6.707 -2.726,-12.143 -6.059,-12.18l0,-0l0,-12.355l73.871,0l-0,244.99Zm39.633,-206.843l-24.876,-0l-0,-38.147l38.79,0c38.2,0 69.213,30.173 69.213,67.338c-0,20.394 -9.339,38.683 -24.08,51.036c14.741,13.213 24.08,32.775 24.08,54.589c-0,39.753 -31.013,72.027 -69.213,72.027l-38.79,0l-0,-42.902l25.538,-0c12.723,-1.505 14.535,-12.565 14.535,-25.968l-0,-9.3c-0.001,-13.471 -1.83,-24.575 -14.729,-25.989l-25.344,-0l-0,-39.895l24.876,0l0,-0.1c13.323,-1.196 15.197,-12.404 15.197,-26.036l-0,-10.597c-0.001,-13.632 -1.874,-24.84 -15.197,-26.036l0,-0.02Z" style="fill:white;"/>
                <path d="M328.25,332.899l-24.876,-0l-0,-38.147l38.79,0c38.199,0 69.212,30.173 69.212,67.338c0,20.394 -9.338,38.683 -24.079,51.036c14.741,13.213 24.079,32.775 24.079,54.589c0,1.311 0.047,47.508 0.047,47.508l0.001,0.001c0.023,6.709 2.728,12.146 6.062,12.179l0,0.001l0,12.338l-80.36,0l0,-12.338l0,-0.001c3.333,-0.037 6.036,-5.472 6.059,-12.179l0.001,-0.001l0.001,-53.651c-0,-13.471 -1.571,-24.575 -14.469,-25.989l-25.344,-0l-0,-39.895l24.876,0l-0,-0.1c13.322,-1.196 15.196,-12.404 15.196,-26.036l0,-10.597c0,-13.632 -1.874,-24.84 -15.196,-26.036l-0,-0.02Zm-39.633,206.843l-73.871,0l-0,-12.338l-0,-0.001c3.333,-0.037 6.036,-5.472 6.059,-12.179l0,-0.001l0,-195.936l-0,-0c-0.023,-6.707 -2.726,-12.143 -6.059,-12.18l-0,-0l-0,-12.355l73.871,0l-0,244.99Z" style="fill:white;"/>
                <path d="M517.027,539.742l-73.871,0l-0,-12.338l0,-0.001c3.333,-0.037 6.036,-5.472 6.059,-12.179l0,-0.001l0,-195.936l0,-0c-0.023,-6.707 -2.726,-12.143 -6.059,-12.18l-0,-0l-0,-12.355l73.871,0l-0,244.99Zm82.275,-0.058l-67.476,-0l0,-42.903l44.796,-0c5.849,-0.463 10.325,-2.983 10.325,-6.018l12.355,0l-0,48.921Zm-15.257,-98.232l-12.355,0c0,-3.035 -4.476,-5.554 -10.325,-6.017l-29.539,-0l0,-39.801l29.539,0c5.849,-0.463 10.325,-2.982 10.325,-6.017l12.355,-0l-0,51.835Zm15.257,-102.536l-12.355,0c-0,-3.035 -4.476,-5.554 -10.325,-6.017l-44.936,-0l-0,-38.147l67.475,0l0,17.903l0.141,-0l-0,26.261Z" style="fill:white;"/>
                <path d="M1239.92,539.742l-73.871,0l0,-12.338l0.001,-0.001c3.332,-0.037 6.035,-5.472 6.059,-12.179l-0,-0.001l-0,-195.936l-0,-0c-0.024,-6.707 -2.727,-12.143 -6.059,-12.18l-0.001,-0l0,-12.355l73.871,0l0,244.99Zm97.832,-0.058l-83.032,-0l-0,-42.903l60.352,-0c5.849,-0.463 10.325,-2.983 10.325,-6.018l12.355,0l0,48.921Z" style="fill:white;"/>
                <path d="M849.065,539.742l-79.51,0l-2.592,-12.354c0.018,-0 0.037,-0 0.055,-0.001l0,-0.141c2.546,-0.909 3.669,-6.064 2.644,-12.023l0.044,0l-51.333,-220.471l67.713,0l51.784,222.407c-0.003,-0.032 -0.005,-0.064 -0.008,-0.096l0.727,3.177c1.612,4.217 5.428,7.148 7.883,7.148l2.593,12.354Zm-94.52,0l-79.492,0l-2.593,-12.354c0.055,-0 0.109,-0.002 0.162,-0.005l0,-0.137c2.546,-0.909 3.812,-6.064 2.787,-12.023l-0.003,0l-46.914,-201.494c-1.717,-3.933 -5.317,-6.622 -7.669,-6.622l-2.593,-12.355l79.508,0l2.593,12.355c-0.016,-0 -0.032,0 -0.047,0c-2.546,0.91 -3.804,6.222 -2.779,12.18l-0.006,0l47.038,202.024c1.798,3.634 5.173,6.077 7.415,6.077l2.593,12.354Zm84.098,-19.262l-0.054,-0.24l-0.003,-0.007l0.057,0.247Zm10.294,-213.375l2.593,-12.353l54.356,0l-2.592,12.355c-2.405,-0 -6.114,2.81 -7.781,6.887l-44.824,192.513l-21.411,-91.96l22.438,-96.368c0.714,-5.497 -0.399,-10.22 -2.786,-11.072l0.007,-0.002Z" style="fill:white;"/>
            </g>
        </g>
    </g>
</svg>
