<?xml version="1.0" encoding="UTF-8" standalone="no"?>
<!DOCTYPE svg PUBLIC "-//W3C//DTD SVG 1.1//EN" "http://www.w3.org/Graphics/SVG/1.1/DTD/svg11.dtd">
<svg width="100%" height="100%" viewBox="0 0 1372 1372" version="1.1" xmlns="http://www.w3.org/2000/svg" xmlns:xlink="http://www.w3.org/1999/xlink" xml:space="preserve" xmlns:serif="http://www.serif.com/" style="fill-rule:evenodd;clip-rule:evenodd;stroke-linejoin:round;stroke-miterlimit:2;">
    <rect id="Logo" x="0" y="0" width="1371.09" height="1371.09" style="fill:none;"/>
    <path d="M1371.09,502.628l-0,365.831l-502.628,502.628l-365.831,-0l-502.628,-502.628l-0,-365.831l502.628,-502.628l365.831,-0l502.628,502.628Zm-854.082,-467.919l-482.296,482.296l0,337.077l482.296,482.296l337.077,-0l482.296,-482.296l-0,-337.077l-482.296,-482.296l-337.077,0Zm799.305,490.608l-0,320.453l-470.54,470.54l-320.453,-0l-470.54,-470.54l0,-320.453l470.54,-470.54l320.453,0l470.54,470.54Zm-776.616,-435.831l-450.208,450.208l0,291.698l450.208,450.209l291.699,-0l450.207,-450.209l0,-291.698l-450.207,-450.208l-291.699,0Zm-171.372,600.992c-6.881,3.337 -16.126,3.571 -25.208,-0.082c-10.654,-4.285 -13.096,-15.095 -20.573,-21.685c-11.77,-10.375 -33.23,-21.877 -50.047,-40.562c-18.703,-20.782 -30.775,-36.479 -44.264,-55.646c14.229,20.217 26.19,32.503 43.995,52.286c17.262,19.181 36.074,29.177 51.173,38.674c7.693,4.839 17.603,-2.962 28.361,1.365c7.286,2.93 13.163,7.838 16.879,13.491c-2.295,-6.501 -2.41,-14.127 0.201,-21.377c0.174,-0.483 0.368,-0.947 0.58,-1.393c-2.91,1.805 -6.096,2.963 -9.371,3.37c-6.39,-7.391 -8.702,-18.858 -5.095,-29.635c0.421,-1.258 0.978,-2.391 1.635,-3.428c-3.751,3.016 -8.126,4.877 -12.634,5.328c-6.223,-7.526 -8.265,-19.023 -4.395,-29.692c0.67,-1.845 1.633,-3.411 2.77,-4.787c-3.485,3.047 -7.593,5.037 -11.898,5.714c-6.606,-7.204 -9.276,-18.622 -6.022,-29.534c0.254,-0.855 0.572,-1.655 0.942,-2.41c-2.267,1.26 -4.689,2.128 -7.183,2.554c-6.69,-7.128 -9.503,-18.522 -6.392,-29.485c0.631,-2.222 1.688,-4.087 2.971,-5.727c-1.851,1.185 -3.836,2.087 -5.906,2.668c-2.424,-2.139 -4.478,-4.789 -6.07,-7.786c0.75,2.734 1.058,5.471 0.888,8.1c-3.262,1.423 -7.01,2.042 -10.951,1.847c1.313,0.46 2.615,1.068 3.892,1.874c10.237,6.462 16.297,16.762 16.351,26.127c-2.588,1.363 -5.543,2.2 -8.701,2.494c1.239,0.409 2.471,0.95 3.687,1.666c10.421,6.137 16.806,16.257 17.173,25.64c-2.745,1.572 -5.939,2.54 -9.376,2.876c1.926,0.272 3.87,0.804 5.811,1.752c10.831,5.293 17.999,14.915 19.148,24.297c-3.208,2.238 -7.178,3.601 -11.526,4.002c2.579,0.085 5.213,0.544 7.86,1.763c10.937,5.038 18.325,14.502 19.702,23.871c-7.29,5.376 -18.782,6.143 -29.718,1.106c-10.458,-4.817 -12.337,-15.696 -19.487,-22.639c-11.256,-10.932 -32.169,-23.49 -48.047,-42.95c-17.66,-21.643 -28.937,-37.883 -41.454,-57.649c13.203,20.849 24.55,33.691 41.361,54.294c16.298,19.976 34.635,30.898 49.276,41.13c4.652,3.252 10.427,1.659 16.677,1.18c-4.67,-0.163 -9.623,-1.374 -14.438,-3.727c-10.356,-5.06 -11.972,-15.96 -18.962,-23.062c-11.006,-11.181 -31.645,-24.219 -47.071,-44.022c-17.156,-22.024 -28.053,-38.503 -40.105,-58.528c12.712,21.123 23.762,34.212 40.094,55.178c15.835,20.327 33.933,31.671 48.346,42.237c4.357,3.193 9.841,2.038 15.764,1.637c-4.549,-0.592 -9.272,-2.186 -13.773,-4.837c-9.965,-5.868 -10.673,-16.793 -17.09,-24.403c-10.104,-11.981 -29.715,-26.598 -43.53,-47.481c-15.366,-23.225 -24.917,-40.442 -35.329,-61.266c10.983,21.965 20.971,35.839 35.598,57.949c14.182,21.436 31.386,34.166 44.959,45.819c3.419,2.935 7.873,2.946 12.72,2.922c-3.195,-0.943 -6.399,-2.379 -9.479,-4.324c-9.789,-6.179 -10.133,-17.092 -16.31,-24.891c-9.723,-12.277 -28.886,-27.497 -42.032,-48.771c-10.872,-17.593 -18.633,-31.768 -25.902,-46.556l0.215,-0.215c7.664,14.413 15.638,26.596 26.068,43.474c13.494,21.837 30.309,35.096 43.52,47.162c4.15,3.79 10.068,3.099 16.313,3.474c-3.755,-1.154 -7.512,-3.005 -11.041,-5.563c-9.388,-6.806 -8.972,-17.658 -14.624,-25.821c-8.897,-12.852 -27.058,-29.275 -38.761,-51.288c-4.165,-7.834 -7.796,-15.001 -11.08,-21.833l1.133,-1.133c3.232,6.078 6.713,12.485 10.559,19.72c12.013,22.597 27.955,36.912 40.365,49.794c2.777,2.883 6.612,3.571 10.843,4.019c-3.658,-1.563 -7.239,-3.824 -10.506,-6.763c-8.63,-7.766 -6.968,-18.403 -11.697,-27.081c-6.785,-12.451 -20.941,-28.695 -30.366,-48.887l1.648,-1.648c9.281,19.585 21.72,33.571 31.483,46.12c5.586,7.18 17.98,3.784 26.695,11.626c2.801,2.52 5.132,5.325 6.966,8.267c-0.616,-2.715 -0.921,-5.561 -0.865,-8.472c0.215,-11.204 11.639,-16.774 10.131,-25.489c-2.959,-17.106 -4.898,-37.677 -16.209,-60.587c-3.595,-7.281 -6.735,-13.788 -9.756,-19.91l1.116,-1.116c3.791,6.922 7.64,14.33 11.731,22.617c11.019,22.319 13.324,45.826 18.461,60.357c2.974,8.412 10.971,14.561 12.205,23.983c-0.182,-15.862 -0.102,-34.304 -7.115,-55.625c-8.161,-24.813 -12.747,-40.947 -23.206,-63.131c9.916,21.031 17.49,39.075 26.063,65.141c7.709,23.436 6.521,46.752 9.502,61.711c1.893,9.502 10.244,17.231 8.382,28.044c-0.865,5.021 -2.785,9.464 -5.43,13.071c3.346,-2.801 6.283,-5.493 6.601,-9.533c1.336,-16.971 4.545,-36.981 -0.928,-61.523c-5.646,-25.312 -8.593,-41.698 -16.811,-64.649c7.791,21.759 13.54,40.331 19.47,66.922c5.332,23.908 1.754,46.796 3.212,61.861c0.926,9.568 8.51,18.041 5.535,28.523c-0.66,2.328 -1.55,4.501 -2.629,6.495c2.653,-2.3 4.767,-4.701 5.075,-8.058c1.554,-16.936 5.02,-36.884 -0.146,-61.468c-0.279,-1.328 -0.551,-2.631 -0.816,-3.911c-0.019,-0.035 -0.037,-0.069 -0.055,-0.103c-2.17,-4.117 -2.619,-8.179 -2.481,-12.211c-3.507,-17.007 -6.537,-30.82 -12.651,-48.567c5.06,14.687 9.213,27.922 13.093,43.121c0.443,-4.074 0.963,-8.128 0.37,-12.188c-2.269,-15.525 -11.2,-38.176 -11.944,-63.303c-0.827,-27.947 0.116,-47.727 2.221,-71.07c-2.221,24.623 -1.042,41.729 -0.254,68.333c0.763,25.793 8.648,45.583 14.024,62.591c1.162,3.677 4.1,5.876 7.511,7.974c-0.513,-1.939 -1.058,-3.92 -1.639,-5.953c0.577,2.019 1.14,4.01 1.688,5.983c4.617,2.834 10.088,5.493 13.19,11.378c3.663,6.946 4.972,14.49 4.151,21.205c2.453,-6.443 7.297,-12.334 13.977,-16.175c0.445,-0.256 0.893,-0.485 1.343,-0.688c-3.386,-0.505 -6.565,-1.682 -9.327,-3.489c-0.095,-9.77 5.557,-20.012 15.277,-25.9c1.135,-0.687 2.293,-1.191 3.464,-1.557c-4.811,-0.126 -9.351,-1.535 -13.081,-4.106c0.119,-9.765 5.997,-19.856 15.848,-25.49c1.704,-0.975 3.451,-1.546 5.209,-1.861c-4.629,0.071 -9.049,-1.067 -12.771,-3.335c-0.38,-9.767 4.967,-20.203 14.505,-26.422c0.747,-0.487 1.507,-0.893 2.277,-1.229c-2.544,-0.505 -4.952,-1.409 -7.13,-2.697c-0.494,-9.764 4.729,-20.274 14.191,-26.624c1.918,-1.287 3.931,-2.026 5.97,-2.447c-2.178,-0.293 -4.275,-0.889 -6.231,-1.784c-0.465,-3.199 -0.318,-6.548 0.406,-9.865c-1.196,2.571 -2.731,4.857 -4.561,6.754c-3.408,-1.025 -6.668,-2.977 -9.548,-5.674c0.704,1.201 1.304,2.506 1.757,3.947c3.63,11.549 1.592,23.323 -4.423,30.502c-2.856,-0.634 -5.65,-1.906 -8.249,-3.724c0.68,1.113 1.269,2.323 1.734,3.655c3.98,11.42 2.306,23.268 -3.482,30.663c-3.11,-0.576 -6.172,-1.904 -9.011,-3.87c1.293,1.453 2.432,3.116 3.299,5.095c4.839,11.04 4.084,23.016 -1.106,30.915c-3.894,-0.368 -7.804,-1.895 -11.38,-4.401c1.912,1.732 3.625,3.785 4.855,6.427c5.085,10.915 4.6,22.912 -0.408,30.949c-9.037,-0.613 -18.299,-7.459 -23.383,-18.374c-4.862,-10.437 0.739,-19.95 -0.224,-29.87c-1.517,-15.617 -9.348,-38.72 -8.875,-63.831c0.398,-21.149 1.584,-37.568 3.541,-54.354l0.286,-0.286c-1.461,16.818 -1.345,31.643 -1.729,52.021c-0.485,25.776 6.438,45.965 10.989,63.238c1.446,5.488 6.881,8.008 11.958,11.684c-3.456,-3.145 -6.451,-7.271 -8.603,-12.179c-4.627,-10.557 1.19,-19.916 0.45,-29.854c-1.164,-15.645 -8.475,-38.937 -7.436,-64.017c0.43,-10.385 1.025,-19.623 1.797,-28.319l1.432,-1.432c-0.387,8.307 -0.652,17.063 -1.071,27.188c-1.067,25.745 5.402,46.102 9.564,63.481c1.258,5.254 6.187,7.918 10.965,11.442c-3.087,-3.392 -5.659,-7.662 -7.378,-12.596c-3.806,-10.919 2.719,-19.71 2.745,-29.665c0.041,-15.672 -5.465,-39.504 -2.499,-64.367c0.367,-3.075 0.74,-6.047 1.123,-8.931l2.261,-2.262c-0.327,2.837 -0.668,5.774 -1.033,8.837c-3.045,25.522 1.846,46.358 4.663,64.024c0.709,4.449 4.1,7.338 7.813,10.454c-1.827,-2.785 -3.343,-5.953 -4.435,-9.428c-3.471,-11.043 3.325,-19.59 3.656,-29.533c0.444,-13.308 -2.941,-32.652 -1.672,-53.346l2.375,-2.375c-1.421,20.563 1.956,38.053 3.896,53.187c0.714,5.574 5.675,8.874 10.196,13.198c-2.118,-3.307 -3.787,-7.15 -4.824,-11.383c-2.76,-11.262 4.575,-19.27 5.543,-29.152c1.042,-10.635 -0.139,-25.342 0.706,-41.366l2.486,-2.487c-0.829,15.568 0.784,29.415 1.563,41.671c0.254,3.995 2.734,7 5.672,10.078c-1.78,-3.558 -3.049,-7.599 -3.64,-11.953c-1.561,-11.505 6.585,-18.543 8.59,-28.221c1.507,-7.272 2.144,-16.645 3.252,-27.012l2.971,-2.971c-0.861,10.244 -0.894,19.744 -1.259,28.404c-0.382,9.089 11.268,14.513 12.844,26.13c0.506,3.734 0.471,7.381 -0.033,10.811c1.286,-2.47 2.894,-4.838 4.819,-7.022c7.409,-8.407 19.725,-5.268 24.211,-12.891c8.804,-14.961 20.628,-31.906 26.816,-56.696c6.382,-25.568 11.138,-41.818 14.186,-66.322c-2.889,23.231 -6.153,42.676 -12.857,69.535c-6.028,24.15 -19.471,43.571 -24.95,57.977c-3.171,8.34 -1.047,18.201 -6.199,26.186c10.118,-12.217 22.106,-26.232 30.544,-47.03c9.821,-24.205 16.756,-39.476 23.124,-63.161c-6.037,22.454 -11.928,41.115 -22.245,66.541c-9.275,22.862 -25.259,39.878 -32.659,53.216c-4.701,8.473 -3.328,19.768 -11.742,26.812c-3.906,3.27 -8.244,5.418 -12.594,6.459c4.363,0.027 8.345,-0.127 11.2,-3.003c11.994,-12.081 27.381,-25.269 39.076,-47.528c12.064,-22.959 20.412,-37.363 28.984,-60.184c-8.127,21.636 -15.753,39.52 -28.425,63.637c-11.394,21.685 -28.924,36.829 -37.553,49.262c-5.482,7.898 -5.175,19.265 -14.223,25.337c-2.01,1.349 -4.093,2.431 -6.206,3.254c3.512,-0.039 6.676,-0.503 9.082,-2.865c12.137,-11.913 27.681,-24.888 39.639,-46.98c12.333,-22.787 20.851,-37.073 29.692,-59.769c-8.382,21.517 -16.218,39.292 -29.174,63.229c-11.649,21.522 -29.359,36.423 -38.135,48.735c-5.575,7.82 -5.401,19.188 -14.522,25.134c-3.838,2.503 -7.933,4.048 -11.973,4.684c6.762,-0.064 13.324,2.11 17.803,-1.814c11.184,-9.796 25.034,-20.251 37.1,-37.083c0.567,-2.205 1.196,-4.414 1.898,-6.62c8.477,-26.642 15.92,-44.993 25.639,-66.321c-10.252,22.497 -14.807,39.028 -22.877,64.391c-0.324,1.017 -0.633,2.03 -0.927,3.036c0.399,-0.625 0.795,-1.258 1.189,-1.899c10.022,-16.337 17.701,-28.121 25.085,-42.165c7.474,-18.697 14.518,-33.522 23.111,-50.178c-11.315,21.93 -16.661,38.213 -25.94,63.132c-1.662,4.462 -3.022,8.827 -4.144,13.092c1.998,-4.13 3.977,-8.475 5.982,-13.194c-2.108,4.963 -4.181,9.722 -6.294,14.402c-2.759,10.87 -3.999,21.078 -4.789,30.547c1.988,-3.919 3.964,-8.042 5.971,-12.506c-2.019,4.491 -4.004,8.812 -6.016,13.057c-0.516,6.308 -0.84,12.285 -1.292,17.91c-0.454,5.657 3.84,9.836 7.413,14.986c-2.22,-4.112 -3.679,-8.998 -4.083,-14.342c-0.868,-11.493 7.72,-18.397 10.315,-28.019c4.084,-15.147 4.901,-39.546 14.19,-62.866c10.332,-25.936 19.042,-43.668 30.229,-64.189c-11.8,21.646 -17.509,37.797 -27.344,62.487c-9.535,23.937 -10.175,45.288 -12.006,63.064c-0.553,5.374 3.216,9.521 6.556,14.43c-1.789,-4.224 -2.801,-9.105 -2.789,-14.33c0.027,-11.564 9.095,-17.697 12.418,-27.081c5.23,-14.773 7.93,-39.084 18.965,-61.56c12.273,-24.998 22.301,-41.941 35.005,-61.451c-13.401,20.579 -20.323,36.21 -32.006,60.007c-11.328,23.072 -13.615,44.351 -16.81,61.953c-0.804,4.433 1.438,8.283 3.909,12.453c-0.802,-3.234 -1.182,-6.725 -1.061,-10.366c0.383,-11.569 9.626,-17.382 13.233,-26.654c5.678,-14.595 9.124,-38.823 20.835,-60.92c13.025,-24.575 23.559,-41.171 36.845,-60.239c-14.014,20.113 -21.408,35.507 -33.807,58.901c-12.021,22.682 -14.962,43.892 -18.695,61.39c-1.172,5.497 2.415,10.254 5.248,15.832c-0.903,-3.823 -1.204,-8.001 -0.78,-12.339c1.126,-11.54 10.7,-16.667 14.887,-25.669c6.591,-14.174 11.582,-38.145 24.661,-59.37c14.546,-23.606 26.099,-39.419 40.55,-57.499c-15.243,19.071 -23.594,33.915 -37.441,56.387c-13.425,21.787 -17.718,42.778 -22.56,59.998c-1.084,3.853 0.26,7.51 2.013,11.388c-0.501,-3.947 -0.36,-8.18 0.525,-12.484c2.338,-11.373 12.356,-15.315 17.454,-23.782c8.026,-13.33 15.506,-36.628 30.699,-56.198c16.898,-21.766 30.007,-36.125 46.226,-52.391c-17.107,17.158 -26.945,30.942 -43.031,51.661c-15.595,20.089 -22.069,40.5 -28.687,57.083c-3.372,8.449 5.823,17.426 3.462,28.909c-0.759,3.691 -2.001,7.121 -3.613,10.19c2.032,-1.904 4.334,-3.606 6.874,-5.029c9.776,-5.478 20.356,1.564 27.114,-4.143c13.263,-11.2 30.033,-23.271 44.084,-44.611c7.983,-12.124 14.564,-21.745 20.702,-31.636c-4.778,-8.574 -9.174,-17.052 -13.742,-26.241c4.787,9.629 9.361,17.673 14.197,25.505c4.837,-7.832 9.411,-15.876 14.198,-25.505c-4.568,9.189 -8.964,17.667 -13.742,26.241c6.138,9.891 12.719,19.512 20.702,31.636c14.051,21.34 30.821,33.411 44.084,44.611c6.758,5.707 17.338,-1.335 27.114,4.143c2.54,1.423 4.842,3.125 6.874,5.029c-1.612,-3.069 -2.854,-6.499 -3.613,-10.19c-2.361,-11.483 6.834,-20.46 3.462,-28.909c-6.618,-16.583 -13.092,-36.994 -28.687,-57.083c-16.086,-20.719 -25.924,-34.503 -43.031,-51.661c16.219,16.266 29.328,30.625 46.226,52.391c15.193,19.57 22.673,42.868 30.699,56.198c5.098,8.467 15.116,12.409 17.454,23.782c0.885,4.304 1.026,8.537 0.525,12.484c1.753,-3.878 3.097,-7.535 2.013,-11.388c-4.842,-17.22 -9.135,-38.211 -22.56,-59.998c-13.847,-22.472 -22.198,-37.316 -37.441,-56.387c14.451,18.08 26.004,33.893 40.55,57.499c13.079,21.225 18.07,45.196 24.661,59.37c4.187,9.002 13.76,14.129 14.887,25.669c0.424,4.338 0.123,8.516 -0.78,12.339c2.833,-5.578 6.42,-10.335 5.248,-15.832c-3.733,-17.498 -6.674,-38.708 -18.695,-61.39c-12.399,-23.394 -19.793,-38.788 -33.807,-58.901c13.286,19.068 23.82,35.664 36.845,60.239c11.711,22.097 15.157,46.325 20.835,60.92c3.607,9.272 12.85,15.085 13.233,26.654c0.121,3.641 -0.259,7.132 -1.061,10.366c2.471,-4.17 4.713,-8.02 3.909,-12.453c-3.195,-17.602 -5.482,-38.881 -16.81,-61.953c-11.683,-23.797 -18.605,-39.428 -32.006,-60.007c12.704,19.51 22.732,36.453 35.005,61.451c11.035,22.476 13.735,46.787 18.965,61.56c3.323,9.384 12.391,15.517 12.418,27.081c0.012,5.225 -1,10.106 -2.789,14.33c3.34,-4.909 7.109,-9.056 6.556,-14.43c-1.831,-17.776 -2.471,-39.127 -12.006,-63.064c-9.835,-24.69 -15.544,-40.841 -27.344,-62.487c11.187,20.521 19.897,38.253 30.229,64.189c9.289,23.32 10.106,47.719 14.19,62.866c2.595,9.622 11.183,16.526 10.315,28.019c-0.404,5.344 -1.863,10.23 -4.083,14.342c3.573,-5.15 7.867,-9.329 7.413,-14.986c-0.452,-5.625 -0.776,-11.602 -1.292,-17.91c-2.012,-4.245 -3.997,-8.566 -6.016,-13.057c2.007,4.464 3.983,8.587 5.971,12.506c-0.79,-9.469 -2.03,-19.677 -4.789,-30.547c-2.113,-4.68 -4.186,-9.439 -6.294,-14.402c2.005,4.719 3.984,9.064 5.982,13.194c-1.122,-4.265 -2.482,-8.63 -4.144,-13.092c-9.279,-24.919 -14.625,-41.202 -25.94,-63.132c8.593,16.656 15.637,31.481 23.111,50.178c7.384,14.044 15.063,25.828 25.085,42.165c0.394,0.641 0.79,1.274 1.189,1.899c-0.294,-1.006 -0.603,-2.019 -0.927,-3.036c-8.07,-25.363 -12.625,-41.894 -22.877,-64.391c9.719,21.328 17.162,39.679 25.639,66.321c0.702,2.206 1.331,4.415 1.898,6.62c12.066,16.832 25.916,27.287 37.1,37.083c4.479,3.924 11.041,1.75 17.803,1.814c-4.04,-0.636 -8.135,-2.181 -11.973,-4.684c-9.121,-5.946 -8.947,-17.314 -14.522,-25.134c-8.776,-12.312 -26.486,-27.213 -38.135,-48.735c-12.956,-23.937 -20.792,-41.712 -29.174,-63.229c8.841,22.696 17.359,36.982 29.692,59.769c11.958,22.092 27.502,35.067 39.639,46.98c2.406,2.362 5.57,2.826 9.082,2.865c-2.113,-0.823 -4.196,-1.905 -6.206,-3.254c-9.048,-6.072 -8.741,-17.439 -14.223,-25.337c-8.629,-12.433 -26.159,-27.577 -37.553,-49.262c-12.672,-24.117 -20.298,-42.001 -28.426,-63.637c8.573,22.821 16.921,37.225 28.984,60.184c11.696,22.259 27.083,35.447 39.077,47.528c2.855,2.876 6.837,3.03 11.2,3.003c-4.35,-1.041 -8.688,-3.189 -12.594,-6.459c-8.414,-7.044 -7.041,-18.339 -11.742,-26.812c-7.4,-13.338 -23.384,-30.354 -32.659,-53.216c-10.317,-25.426 -16.208,-44.087 -22.245,-66.541c6.368,23.685 13.303,38.956 23.124,63.161c8.438,20.798 20.426,34.813 30.544,47.03c-5.152,-7.985 -3.028,-17.846 -6.199,-26.186c-5.479,-14.406 -18.922,-33.827 -24.95,-57.977c-6.704,-26.859 -9.968,-46.304 -12.857,-69.535c3.048,24.504 7.804,40.754 14.186,66.322c6.188,24.79 18.012,41.735 26.816,56.696c4.486,7.623 16.802,4.484 24.211,12.891c1.925,2.184 3.533,4.552 4.819,7.022c-0.504,-3.43 -0.539,-7.077 -0.033,-10.811c1.576,-11.617 13.226,-17.041 12.844,-26.13c-0.365,-8.66 -0.398,-18.16 -1.259,-28.403l2.971,2.97c1.108,10.367 1.745,19.74 3.252,27.012c2.005,9.678 10.151,16.716 8.59,28.221c-0.591,4.354 -1.86,8.395 -3.64,11.953c2.938,-3.078 5.418,-6.083 5.672,-10.078c0.779,-12.255 2.392,-26.103 1.563,-41.671l2.486,2.487c0.845,16.024 -0.336,30.732 0.706,41.366c0.968,9.882 8.303,17.89 5.543,29.152c-1.037,4.233 -2.706,8.076 -4.824,11.383c4.521,-4.324 9.482,-7.624 10.196,-13.198c1.94,-15.134 5.317,-32.624 3.896,-53.187l2.375,2.375c1.269,20.694 -2.116,40.038 -1.672,53.346c0.331,9.943 7.127,18.49 3.656,29.533c-1.092,3.475 -2.608,6.643 -4.435,9.428c3.713,-3.116 7.104,-6.005 7.813,-10.454c2.817,-17.666 7.708,-38.502 4.663,-64.024c-0.365,-3.063 -0.706,-6 -1.033,-8.837l2.262,2.262c0.382,2.885 0.755,5.856 1.122,8.931c2.966,24.863 -2.54,48.695 -2.499,64.367c0.026,9.955 6.551,18.746 2.745,29.665c-1.719,4.934 -4.291,9.204 -7.378,12.596c4.778,-3.524 9.707,-6.188 10.965,-11.442c4.162,-17.379 10.631,-37.736 9.564,-63.481c-0.419,-10.125 -0.684,-18.881 -1.071,-27.188l1.432,1.433c0.772,8.695 1.367,17.933 1.797,28.318c1.039,25.08 -6.272,48.372 -7.436,64.017c-0.74,9.938 5.077,19.297 0.45,29.854c-2.152,4.908 -5.147,9.034 -8.603,12.179c5.077,-3.676 10.512,-6.196 11.958,-11.684c4.551,-17.273 11.474,-37.462 10.989,-63.238c-0.384,-20.378 -0.268,-35.203 -1.729,-52.021l0.286,0.286c1.957,16.786 3.143,33.205 3.541,54.354c0.473,25.111 -7.358,48.214 -8.875,63.831c-0.963,9.92 4.638,19.433 -0.224,29.87c-5.084,10.915 -14.346,17.761 -23.383,18.374c-5.008,-8.037 -5.493,-20.034 -0.408,-30.949c1.23,-2.642 2.943,-4.695 4.855,-6.427c-3.576,2.506 -7.486,4.033 -11.38,4.401c-5.19,-7.899 -5.945,-19.875 -1.106,-30.915c0.867,-1.979 2.006,-3.642 3.299,-5.095c-2.839,1.966 -5.901,3.294 -9.011,3.87c-5.788,-7.395 -7.462,-19.243 -3.482,-30.663c0.465,-1.332 1.054,-2.542 1.734,-3.655c-2.599,1.818 -5.393,3.09 -8.249,3.724c-6.015,-7.179 -8.053,-18.953 -4.423,-30.502c0.453,-1.441 1.053,-2.746 1.757,-3.947c-2.88,2.697 -6.14,4.649 -9.548,5.674c-1.83,-1.897 -3.365,-4.183 -4.561,-6.754c0.724,3.317 0.871,6.666 0.405,9.865c-1.955,0.895 -4.052,1.491 -6.23,1.784c2.039,0.421 4.052,1.16 5.97,2.447c9.462,6.35 14.685,16.86 14.191,26.624c-2.178,1.288 -4.586,2.192 -7.13,2.697c0.77,0.336 1.53,0.742 2.277,1.229c9.538,6.219 14.885,16.655 14.505,26.422c-3.722,2.268 -8.142,3.406 -12.771,3.335c1.758,0.315 3.505,0.886 5.209,1.861c9.851,5.634 15.729,15.725 15.848,25.49c-3.73,2.571 -8.27,3.98 -13.081,4.106c1.171,0.366 2.329,0.87 3.464,1.557c9.72,5.888 15.372,16.13 15.277,25.9c-2.762,1.807 -5.941,2.984 -9.327,3.489c0.45,0.203 0.898,0.432 1.343,0.688c6.68,3.841 11.524,9.732 13.977,16.175c-0.821,-6.715 0.488,-14.259 4.151,-21.205c3.102,-5.885 8.573,-8.544 13.19,-11.378c0.548,-1.973 1.111,-3.964 1.688,-5.983c-0.581,2.033 -1.126,4.014 -1.639,5.953c3.411,-2.098 6.349,-4.297 7.511,-7.974c5.376,-17.008 13.261,-36.798 14.024,-62.591c0.788,-26.604 1.967,-43.71 -0.254,-68.333c2.105,23.343 3.048,43.123 2.221,71.07c-0.744,25.127 -9.675,47.778 -11.944,63.303c-0.593,4.06 -0.073,8.114 0.37,12.188c3.88,-15.199 8.033,-28.434 13.093,-43.121c-6.114,17.747 -9.144,31.56 -12.651,48.567c0.138,4.032 -0.311,8.094 -2.481,12.211c-0.018,0.034 -0.036,0.068 -0.055,0.103c-0.266,1.28 -0.537,2.583 -0.816,3.911c-5.166,24.584 -1.7,44.532 -0.146,61.468c0.308,3.357 2.422,5.758 5.075,8.058c-1.079,-1.994 -1.969,-4.167 -2.629,-6.495c-2.975,-10.482 4.609,-18.955 5.535,-28.523c1.458,-15.065 -2.12,-37.953 3.212,-61.861c5.93,-26.591 11.679,-45.163 19.47,-66.922c-8.218,22.951 -11.165,39.337 -16.811,64.649c-5.473,24.542 -2.264,44.552 -0.928,61.523c0.318,4.04 3.255,6.732 6.601,9.533c-2.645,-3.607 -4.565,-8.05 -5.43,-13.071c-1.862,-10.813 6.489,-18.542 8.382,-28.044c2.981,-14.959 1.793,-38.275 9.502,-61.711c8.573,-26.066 16.147,-44.11 26.063,-65.141c-10.459,22.184 -15.045,38.318 -23.206,63.131c-7.013,21.321 -6.933,39.763 -7.115,55.625c1.234,-9.422 9.231,-15.571 12.205,-23.983c5.137,-14.531 7.442,-38.038 18.461,-60.357c4.091,-8.287 7.94,-15.695 11.731,-22.617l1.116,1.116c-3.021,6.122 -6.161,12.629 -9.756,19.91c-11.311,22.91 -13.25,43.481 -16.209,60.587c-1.508,8.715 9.916,14.285 10.131,25.489c0.056,2.911 -0.249,5.757 -0.865,8.472c1.834,-2.942 4.165,-5.747 6.966,-8.267c8.715,-7.842 21.108,-4.446 26.695,-11.626c9.763,-12.549 22.202,-26.535 31.483,-46.12l1.648,1.648c-9.425,20.192 -23.581,36.436 -30.366,48.887c-4.729,8.678 -3.067,19.315 -11.697,27.081c-3.267,2.939 -6.848,5.2 -10.506,6.763c4.231,-0.448 8.066,-1.136 10.843,-4.019c12.41,-12.882 28.352,-27.197 40.365,-49.794c3.846,-7.235 7.326,-13.642 10.559,-19.72l1.133,1.134c-3.284,6.831 -6.915,13.998 -11.08,21.832c-11.703,22.013 -29.864,38.436 -38.761,51.288c-5.652,8.163 -5.236,19.015 -14.624,25.821c-3.529,2.558 -7.286,4.409 -11.041,5.563c6.245,-0.375 12.163,0.316 16.313,-3.474c13.211,-12.066 30.026,-25.325 43.52,-47.162c10.43,-16.878 18.404,-29.061 26.068,-43.474l0.214,0.215c-7.268,14.788 -15.029,28.963 -25.901,46.556c-13.146,21.274 -32.309,36.494 -42.032,48.771c-6.177,7.799 -6.521,18.712 -16.31,24.891c-3.08,1.945 -6.284,3.381 -9.479,4.324c4.847,0.024 9.301,0.013 12.72,-2.922c13.573,-11.653 30.777,-24.383 44.959,-45.819c14.627,-22.11 24.615,-35.984 35.598,-57.949c-10.412,20.824 -19.963,38.041 -35.329,61.266c-13.815,20.883 -33.426,35.5 -43.53,47.481c-6.418,7.61 -7.125,18.535 -17.09,24.403c-4.501,2.651 -9.224,4.245 -13.773,4.837c5.923,0.401 11.407,1.556 15.764,-1.637c14.413,-10.566 32.511,-21.91 48.345,-42.237c16.333,-20.966 27.383,-34.055 40.095,-55.178c-12.052,20.025 -22.949,36.504 -40.105,58.528c-15.426,19.803 -36.065,32.841 -47.071,44.022c-6.991,7.102 -8.606,18.002 -18.962,23.062c-4.815,2.353 -9.768,3.564 -14.438,3.727c6.25,0.479 12.025,2.072 16.677,-1.18c14.641,-10.232 32.978,-21.154 49.276,-41.13c16.811,-20.603 28.158,-33.445 41.361,-54.294c-12.517,19.766 -23.794,36.006 -41.454,57.649c-15.878,19.46 -36.791,32.018 -48.047,42.95c-7.15,6.943 -9.029,17.822 -19.487,22.639c-10.936,5.037 -22.428,4.27 -29.718,-1.106c1.377,-9.369 8.765,-18.833 19.702,-23.871c2.647,-1.219 5.281,-1.678 7.86,-1.763c-4.348,-0.401 -8.318,-1.764 -11.526,-4.002c1.149,-9.382 8.317,-19.004 19.148,-24.297c1.941,-0.948 3.885,-1.48 5.811,-1.752c-3.437,-0.336 -6.631,-1.304 -9.376,-2.876c0.367,-9.383 6.752,-19.503 17.173,-25.64c1.216,-0.716 2.448,-1.257 3.687,-1.666c-3.158,-0.294 -6.113,-1.131 -8.701,-2.494c0.054,-9.365 6.114,-19.665 16.351,-26.127c1.277,-0.806 2.579,-1.414 3.892,-1.874c-3.941,0.195 -7.689,-0.424 -10.951,-1.847c-0.17,-2.629 0.138,-5.366 0.888,-8.1c-1.592,2.997 -3.646,5.647 -6.07,7.786c-2.07,-0.581 -4.055,-1.483 -5.906,-2.668c1.283,1.64 2.34,3.505 2.971,5.727c3.111,10.963 0.298,22.357 -6.392,29.485c-2.494,-0.426 -4.916,-1.294 -7.183,-2.554c0.37,0.755 0.687,1.555 0.942,2.41c3.254,10.912 0.584,22.33 -6.022,29.534c-4.305,-0.677 -8.413,-2.667 -11.898,-5.714c1.137,1.376 2.1,2.942 2.77,4.787c3.87,10.669 1.828,22.166 -4.395,29.692c-4.508,-0.451 -8.883,-2.312 -12.634,-5.328c0.657,1.037 1.214,2.17 1.635,3.428c3.607,10.777 1.295,22.244 -5.095,29.635c-3.275,-0.407 -6.461,-1.565 -9.371,-3.37c0.212,0.446 0.406,0.91 0.58,1.393c2.611,7.25 2.496,14.876 0.201,21.377c3.716,-5.653 9.593,-10.561 16.879,-13.491c10.758,-4.327 20.668,3.474 28.361,-1.365c15.099,-9.497 33.911,-19.493 51.173,-38.674c17.805,-19.783 29.766,-32.069 43.995,-52.286c-13.489,19.167 -25.561,34.864 -44.264,55.646c-16.817,18.685 -38.277,30.187 -50.047,40.562c-7.477,6.59 -9.919,17.4 -20.573,21.685c-9.082,3.653 -18.327,3.419 -25.208,0.082c-4.742,8.869 -26.064,46.071 -53.991,54.037c-48.858,13.935 -64.86,11.14 -96.96,32.431c-5.991,3.974 -12.061,8.769 -17.973,13.941c23.312,-4.502 44.25,-10.137 52.25,-12.546c17.843,-5.372 53.474,-17.879 57.329,-5.685c3.854,12.193 -87.953,78.884 -121.936,82.745c-33.983,3.861 -36.407,8.254 -44.443,18.971c-7.189,9.586 1.797,22.329 11.826,34.219c0.337,0.401 0.444,0.959 0.667,1.452c2.239,4.951 2.243,25.546 0.304,48.397c-1.483,17.484 -6.378,28.996 -7.733,50.417c-1.786,28.266 -21.911,62.057 -25.52,76.108c-4.96,19.315 -9.89,55.918 -13.088,68.23c-3.198,12.312 3.052,25.343 -2.557,69.579c-4.391,34.628 -29.343,42.324 -54.402,43.478l-0,0.079c-0.332,-0.011 -0.663,-0.023 -0.995,-0.036c-0.331,0.013 -0.662,0.025 -0.994,0.036l0,-0.079c-25.059,-1.154 -50.011,-8.85 -54.402,-43.478c-5.609,-44.236 0.641,-57.267 -2.557,-69.579c-3.198,-12.312 -8.128,-48.915 -13.088,-68.23c-3.609,-14.051 -23.734,-47.842 -25.521,-76.108c-1.354,-21.421 -6.249,-32.933 -7.732,-50.417c-1.939,-22.851 -1.935,-43.446 0.304,-48.397c0.223,-0.493 0.33,-1.051 0.667,-1.452c10.029,-11.89 19.015,-24.633 11.826,-34.219c-8.036,-10.717 -10.46,-15.11 -44.443,-18.971c-33.983,-3.861 -125.79,-70.552 -121.936,-82.745c3.855,-12.194 39.486,0.313 57.329,5.685c8,2.409 28.938,8.044 52.25,12.546c-5.912,-5.172 -11.982,-9.967 -17.973,-13.941c-32.1,-21.291 -48.102,-18.496 -96.96,-32.431c-27.927,-7.966 -49.249,-45.168 -53.991,-54.037Zm-25.019,-199.414c0.083,0.392 0.166,0.786 0.249,1.181c5.032,23.95 1.16,46.769 2.427,61.835c0.805,9.57 8.288,18.129 5.177,28.563c-1.309,4.391 -3.434,8.217 -6.104,11.315c5.117,-4.422 11.528,-7.006 12.407,-12.896c2.502,-16.751 7.089,-36.391 3.278,-61.115c-1.002,-6.499 -1.867,-12.41 -2.711,-17.998c-5.407,-1.702 -10.634,-5.466 -14.723,-10.885Zm16.537,11.377c1.181,6.223 2.308,12.799 3.409,19.941c3.712,24.086 -1.442,46.557 -1.011,61.604c0.275,9.559 7.302,18.479 3.601,28.681c-1.007,2.776 -2.343,5.299 -3.933,7.528c4.647,-3.764 9.762,-6.515 10.419,-11.798c1.397,-11.22 3.687,-23.747 3.759,-38.159c-8.938,-33.098 -12.613,-61.617 -13.297,-67.335c-0.981,-0.084 -1.965,-0.239 -2.947,-0.462Zm18.605,76.212c-0.388,12.592 -1.739,23.844 -1.281,32.561c0.502,9.567 7.728,18.335 4.279,28.64c-0.755,2.258 -1.728,4.356 -2.877,6.273c3.887,-2.796 7.489,-5.345 8.123,-9.659c1.258,-8.562 3.058,-17.879 4.003,-28.24c-4.233,-7.478 -7.486,-14.234 -9.243,-19.734c-1.053,-3.298 -2.054,-6.584 -3.004,-9.841Zm14.669,33.754c-0.747,10.332 -1.87,19.557 -1.64,26.975c0.296,9.559 7.343,18.466 3.665,28.677c-2.836,7.877 -8.317,13.72 -14.724,16.625c4.295,8.399 21.893,39.37 52.266,49.19c35.26,11.401 48.602,1.91 48.602,1.91l-17.692,-27.396c0,-0 -46.946,-56.246 -70.477,-95.981Zm-20.403,73.485c-0.34,-0.443 -0.667,-0.898 -0.98,-1.365c0.186,0.533 0.352,1.068 0.5,1.604l0.48,-0.239Zm84.76,-305.526c-11.907,15.622 -26.146,26.912 -34.024,36.763c-5.971,7.468 -6.38,18.817 -15.799,24.205c-2.565,1.466 -5.215,2.527 -7.869,3.199c5.978,0.134 11.659,1.343 15.576,-2.261c11.86,-10.912 26.822,-22.675 39.094,-42.391c0.687,-6.274 1.603,-12.847 3.022,-19.515Zm-3.521,24.406c-12.097,18.612 -28.269,31.672 -36.725,42.777c-5.803,7.622 -5.962,18.984 -15.257,24.613c-2.036,1.234 -4.135,2.206 -6.251,2.924c4.773,0.381 9.169,0.766 12.442,-2.115c12.716,-11.191 28.89,-23.245 41.926,-44.601c0.649,-1.063 1.288,-2.107 1.918,-3.134c0.749,-6.04 1.23,-12.986 1.947,-20.464Zm-2.733,25.792c-0.259,0.427 -0.52,0.856 -0.783,1.287c-12.7,20.805 -31.133,34.657 -40.51,46.438c-5.955,7.483 -6.34,18.833 -15.748,24.244c-6.257,3.599 -13.035,4.773 -19.122,3.793c0.097,3.422 1.244,29.565 14.257,65.69c-3.647,-23.642 -5.642,-39.664 -12.071,-61.956c6.376,22.108 10.914,40.921 15.103,67.705c0.185,1.179 0.348,2.354 0.491,3.525c0.753,1.882 1.537,3.787 2.355,5.712c19.773,46.563 52.224,75.564 52.224,75.564c-0,0 6.895,6.962 2.381,-60.605c-3.889,-58.2 5.604,-108.504 7.642,-118.43c-7.363,-3.829 -13.166,-12.312 -14.758,-23.029c-1.688,-11.358 6.405,-18.93 8.312,-28.712c0.078,-0.403 0.154,-0.811 0.227,-1.226Zm-85.594,69.858c0.015,-0.155 0.031,-0.31 0.049,-0.465c-0.034,0.089 -0.069,0.177 -0.104,0.266c0.018,0.066 0.037,0.132 0.055,0.199Zm-0.288,0.364c-0.247,0.577 -0.514,1.142 -0.8,1.691l1.301,0.429c-0.011,-0.044 -0.021,-0.088 -0.031,-0.132c-0.099,-0.065 -0.198,-0.132 -0.296,-0.199c0.003,-0.315 0.013,-0.629 0.028,-0.945c-0.067,-0.281 -0.134,-0.562 -0.202,-0.844Zm122.005,-171.952c-6.545,13.284 -13.663,26.275 -23.284,41.958c-1.061,1.73 -2.162,3.411 -3.293,5.047c-1.569,6.545 -2.577,12.836 -3.239,18.871c7.739,-13.256 14.035,-23.62 19.919,-34.83c1.392,-6.584 3.194,-13.328 5.68,-20.004c1.432,-3.847 2.834,-7.516 4.217,-11.042Zm-14.757,61.981c1.235,-8.483 2.341,-18.316 4.384,-28.61c-5.614,11.771 -11.836,23.595 -19.921,37.515c-0.538,6.551 -0.721,12.785 -0.843,18.695c6.113,-9.911 11.366,-18.418 16.38,-27.6Zm212.96,-164.641c-6.001,10.72 -12.629,21.628 -20.967,34.293c-13.689,20.789 -32.806,34.66 -42.748,46.438c-5.755,6.818 -7.018,16.826 -14.524,22.653c13.594,-8.174 29.548,-17.427 44.399,-34.255c13.42,-15.206 23.414,-25.906 33.697,-39.403c-2.908,-4.062 -5.798,-8.207 -8.758,-12.532c3.048,4.453 5.987,8.512 8.901,12.344c2.915,-3.832 5.854,-7.891 8.902,-12.344c-2.96,4.325 -5.85,8.47 -8.758,12.532c10.283,13.497 20.277,24.197 33.697,39.403c14.851,16.828 30.805,26.081 44.399,34.255c-7.506,-5.827 -8.769,-15.835 -14.524,-22.653c-9.942,-11.778 -29.059,-25.649 -42.748,-46.438c-8.338,-12.665 -14.966,-23.573 -20.968,-34.293Zm0,29.926c-9.949,13.886 -20.132,26.823 -34.13,42.683c-16.325,18.498 -37.043,29.259 -48.444,39.392c-7.242,6.437 -9.689,17.549 -19.961,21.408c-4.769,1.792 -9.574,2.381 -14.023,1.922c4.108,1.471 7.916,2.645 11.562,0.877c15.319,-7.425 34.207,-14.772 52.615,-31.899c18.988,-17.666 31.636,-28.491 47.285,-47.184c-14.836,17.721 -27.955,32.07 -47.901,50.627c-17.934,16.686 -39.492,25.168 -51.753,34.04c-7.788,5.636 -11.265,16.463 -21.813,19.194c-2.343,0.607 -4.667,0.938 -6.933,1.015c3.326,1.126 6.465,1.737 9.518,0.306c15.398,-7.22 34.363,-14.313 52.964,-31.197c19.185,-17.414 31.955,-28.072 47.816,-46.558c-15.037,17.526 -28.319,31.701 -48.473,49.994c-18.121,16.449 -39.768,24.641 -52.127,33.35c-7.85,5.532 -11.453,16.315 -22.028,18.905c-4.452,1.09 -8.828,1.191 -12.851,0.452c6.402,2.18 11.874,6.406 17.401,4.187c15.718,-6.308 34.983,-12.278 54.389,-28.063c20.017,-16.282 33.291,-26.185 50.049,-43.736c-15.887,16.639 -29.853,30.031 -50.88,47.134c-18.906,15.378 -40.901,22.289 -53.666,30.268c-8.108,5.068 -12.253,15.641 -22.926,17.603c-2.905,0.535 -5.758,0.657 -8.485,0.412c5.597,2.107 10.556,5.13 15.447,3.027c15.586,-6.703 34.729,-13.157 53.797,-29.419c19.668,-16.775 32.73,-27.006 49.109,-44.965c-15.528,17.026 -29.205,30.759 -49.865,48.38c-18.577,15.844 -40.43,23.307 -53.025,31.603c-8.001,5.269 -11.914,15.936 -22.549,18.169c-2.331,0.489 -4.633,0.711 -6.868,0.687c4.378,1.941 8.398,3.761 12.441,2.127c15.705,-6.346 34.959,-12.362 54.334,-28.194c19.984,-16.329 33.238,-26.264 49.96,-43.854c-15.853,16.676 -29.792,30.101 -50.784,47.254c-18.875,15.423 -40.857,22.387 -53.606,30.396c-8.099,5.087 -12.221,15.67 -22.891,17.658c-6.819,1.271 -13.352,0.27 -18.659,-2.42c-1.496,11.591 -10.071,82.582 -2.722,133.332c8.024,55.415 41.263,96.941 100.031,135.1c28.128,18.264 42.77,27.933 50.391,33.052c28.379,-10.628 34.108,-14.364 40.891,-21.067c6.484,-6.407 17.299,-8.016 26.369,-8.296l0,-0.042c0.423,0.001 0.848,0.004 1.274,0.011c0.24,-0.005 0.478,-0.008 0.715,-0.011l-0,0.024c9.59,0.209 19.857,1.879 26.369,8.314c6.783,6.703 12.512,10.439 40.891,21.067c7.621,-5.119 22.263,-14.788 50.391,-33.052c58.768,-38.159 92.007,-79.685 100.031,-135.1c7.349,-50.75 -1.226,-121.741 -2.722,-133.332c-5.307,2.69 -11.84,3.691 -18.659,2.42c-10.67,-1.988 -14.792,-12.571 -22.891,-17.658c-12.749,-8.009 -34.731,-14.973 -53.606,-30.396c-20.992,-17.153 -34.931,-30.578 -50.785,-47.254c16.723,17.59 29.977,27.525 49.961,43.854c19.375,15.832 38.629,21.848 54.334,28.194c4.043,1.634 8.063,-0.186 12.441,-2.127c-2.236,0.024 -4.537,-0.198 -6.868,-0.687c-10.635,-2.233 -14.548,-12.9 -22.549,-18.169c-12.595,-8.296 -34.448,-15.759 -53.025,-31.603c-20.66,-17.621 -34.337,-31.354 -49.865,-48.38c16.379,17.959 29.441,28.19 49.109,44.965c19.068,16.262 38.211,22.716 53.797,29.419c4.891,2.103 9.85,-0.92 15.447,-3.027c-2.727,0.245 -5.58,0.123 -8.485,-0.412c-10.673,-1.962 -14.818,-12.535 -22.926,-17.603c-12.765,-7.979 -34.76,-14.89 -53.666,-30.268c-21.027,-17.103 -34.993,-30.495 -50.88,-47.134c16.758,17.551 30.032,27.454 50.049,43.736c19.406,15.785 38.671,21.755 54.389,28.063c5.527,2.219 10.999,-2.007 17.401,-4.187c-4.023,0.739 -8.399,0.638 -12.851,-0.452c-10.575,-2.59 -14.178,-13.373 -22.028,-18.905c-12.359,-8.709 -34.006,-16.901 -52.127,-33.35c-20.154,-18.293 -33.436,-32.468 -48.473,-49.994c15.861,18.486 28.631,29.144 47.816,46.558c18.601,16.884 37.566,23.977 52.964,31.197c3.053,1.431 6.192,0.82 9.518,-0.306c-2.266,-0.077 -4.59,-0.408 -6.933,-1.015c-10.548,-2.731 -14.025,-13.558 -21.813,-19.194c-12.261,-8.872 -33.819,-17.354 -51.753,-34.04c-19.946,-18.557 -33.065,-32.906 -47.901,-50.627c15.649,18.693 28.297,29.518 47.285,47.184c18.408,17.127 37.296,24.474 52.615,31.899c3.646,1.768 7.454,0.594 11.562,-0.877c-4.449,0.459 -9.254,-0.13 -14.023,-1.922c-10.272,-3.859 -12.719,-14.971 -19.961,-21.408c-11.401,-10.133 -32.119,-20.894 -48.444,-39.392c-13.998,-15.86 -24.181,-28.797 -34.131,-42.683Zm-224.193,228.105c0.257,-0.669 0.543,-1.329 0.858,-1.978c-0.466,0.547 -0.951,1.069 -1.455,1.565l0.597,0.413Zm-5.224,-61.86c-0.048,2.575 -0.098,5.086 -0.175,7.531c-0.287,9.085 11.453,13.692 13.157,25.161c1.155,7.769 -0.109,15.32 -3.108,21.384c4.448,-5.266 10.971,-9.22 18.546,-10.632c0.505,-0.094 1.003,-0.162 1.496,-0.204c-3.028,-1.599 -5.638,-3.762 -7.645,-6.382c3.147,-9.25 11.872,-17.041 22.995,-19.376c1.298,-0.273 2.558,-0.365 3.784,-0.322c-4.498,-1.713 -8.315,-4.546 -10.983,-8.208c3.348,-9.174 12.236,-16.747 23.398,-18.8c1.93,-0.355 3.768,-0.316 5.531,-0.03c-4.391,-1.467 -8.185,-4.006 -10.945,-7.378c2.877,-9.342 11.379,-17.417 22.439,-20.125c0.866,-0.212 1.718,-0.343 2.556,-0.405c-2.233,-1.319 -4.207,-2.97 -5.834,-4.907c2.768,-9.376 11.177,-17.562 22.209,-20.419c2.237,-0.579 4.38,-0.61 6.443,-0.331c-1.958,-0.999 -3.739,-2.256 -5.287,-3.748c0.621,-3.173 1.869,-6.285 3.651,-9.174c-1.98,2.03 -4.186,3.679 -6.541,4.862c-2.877,-2.096 -5.305,-5.017 -7.129,-8.517c0.266,1.367 0.4,2.797 0.35,4.306c-0.401,12.1 -6.225,22.534 -14.278,27.315c-2.484,-1.544 -4.7,-3.67 -6.55,-6.246c0.273,1.275 0.429,2.612 0.426,4.023c-0.028,12.094 -5.533,22.718 -13.443,27.778c-2.744,-1.574 -5.194,-3.841 -7.221,-6.638c0.739,1.8 1.263,3.747 1.425,5.901c0.909,12.021 -3.771,23.069 -11.285,28.803c-3.553,-1.637 -6.736,-4.374 -9.28,-7.923c1.231,2.268 2.167,4.773 2.453,7.674c1.181,11.983 -3.25,23.142 -10.638,29.066c-8.324,-3.573 -14.795,-13.1 -15.976,-25.083c-1.13,-11.458 7.306,-18.579 9.684,-28.258c0.778,-3.168 1.406,-6.732 1.991,-10.602c-4.791,9.637 -9.951,19.224 -16.216,29.904Zm442.619,-29.904c0.585,3.87 1.213,7.434 1.991,10.602c2.378,9.679 10.814,16.8 9.684,28.258c-1.181,11.983 -7.652,21.51 -15.976,25.083c-7.388,-5.924 -11.819,-17.083 -10.638,-29.066c0.286,-2.901 1.222,-5.406 2.453,-7.674c-2.544,3.549 -5.727,6.286 -9.28,7.923c-7.514,-5.734 -12.194,-16.782 -11.285,-28.803c0.162,-2.154 0.686,-4.101 1.425,-5.901c-2.027,2.797 -4.477,5.064 -7.221,6.638c-7.91,-5.06 -13.415,-15.684 -13.443,-27.778c-0.003,-1.411 0.153,-2.748 0.426,-4.023c-1.85,2.576 -4.066,4.702 -6.55,6.246c-8.053,-4.781 -13.877,-15.215 -14.278,-27.315c-0.05,-1.509 0.084,-2.939 0.35,-4.306c-1.824,3.5 -4.252,6.421 -7.129,8.517c-2.355,-1.183 -4.561,-2.832 -6.541,-4.862c1.782,2.889 3.03,6.001 3.651,9.174c-1.548,1.492 -3.329,2.749 -5.287,3.748c2.063,-0.279 4.206,-0.248 6.443,0.331c11.032,2.857 19.441,11.043 22.209,20.419c-1.627,1.937 -3.601,3.588 -5.834,4.907c0.838,0.062 1.69,0.193 2.556,0.405c11.06,2.708 19.562,10.783 22.439,20.125c-2.76,3.372 -6.554,5.911 -10.945,7.378c1.763,-0.286 3.601,-0.325 5.531,0.03c11.162,2.053 20.05,9.626 23.398,18.8c-2.668,3.662 -6.485,6.495 -10.983,8.208c1.226,-0.043 2.486,0.049 3.784,0.322c11.123,2.335 19.848,10.126 22.995,19.376c-2.007,2.62 -4.617,4.783 -7.645,6.382c0.493,0.042 0.991,0.11 1.496,0.204c7.575,1.412 14.098,5.366 18.546,10.632c-2.999,-6.064 -4.263,-13.615 -3.109,-21.384c1.705,-11.469 13.445,-16.076 13.158,-25.161c-0.077,-2.445 -0.127,-4.956 -0.175,-7.531c-6.265,-10.68 -11.425,-20.267 -16.216,-29.904Zm21.125,38.123c0.073,0.415 0.149,0.823 0.227,1.226c1.907,9.782 10,17.354 8.312,28.712c-1.592,10.717 -7.395,19.2 -14.758,23.029c2.038,9.926 11.531,60.23 7.642,118.43c-4.514,67.567 2.381,60.605 2.381,60.605c0,0 32.451,-29.001 52.224,-75.564c0.818,-1.925 1.602,-3.83 2.355,-5.712c0.143,-1.171 0.306,-2.346 0.491,-3.525c4.189,-26.784 8.727,-45.597 15.103,-67.705c-6.429,22.292 -8.424,38.314 -12.071,61.956c13.013,-36.125 14.16,-62.268 14.257,-65.69c-6.087,0.98 -12.865,-0.194 -19.122,-3.793c-9.408,-5.411 -9.793,-16.761 -15.748,-24.244c-9.377,-11.781 -27.81,-25.633 -40.51,-46.438c-0.263,-0.431 -0.524,-0.86 -0.783,-1.287Zm-9.536,53.228c-0.504,-0.496 -0.989,-1.018 -1.455,-1.565c0.315,0.649 0.601,1.309 0.858,1.978l0.597,-0.413Zm-16.214,-121.587c2.043,10.294 3.149,20.127 4.384,28.61c5.014,9.182 10.267,17.689 16.38,27.6c-0.122,-5.91 -0.305,-12.144 -0.843,-18.695c-8.085,-13.92 -14.307,-25.744 -19.921,-37.515Zm-10.373,-33.371c1.383,3.526 2.785,7.195 4.217,11.042c2.486,6.676 4.288,13.42 5.68,20.004c5.884,11.21 12.18,21.574 19.918,34.83c-0.661,-6.035 -1.669,-12.326 -3.238,-18.871c-1.131,-1.636 -2.232,-3.317 -3.293,-5.047c-9.621,-15.683 -16.739,-28.674 -23.284,-41.958Zm127.5,173.607c-0.982,0.223 -1.966,0.378 -2.947,0.462c-0.684,5.718 -4.359,34.237 -13.297,67.335c0.072,14.412 2.362,26.939 3.759,38.159c0.657,5.283 5.772,8.034 10.419,11.798c-1.59,-2.229 -2.926,-4.752 -3.933,-7.528c-3.701,-10.202 3.326,-19.122 3.601,-28.681c0.431,-15.047 -4.723,-37.518 -1.011,-61.604c1.101,-7.142 2.228,-13.718 3.409,-19.941Zm-4.695,0.036c-0.286,-0.549 -0.553,-1.114 -0.8,-1.691c-0.068,0.282 -0.135,0.563 -0.202,0.844c0.015,0.316 0.025,0.63 0.028,0.945c-0.098,0.067 -0.197,0.134 -0.296,0.199c-0.01,0.044 -0.02,0.088 -0.031,0.132l1.301,-0.429Zm-1.033,-2.254c-0.035,-0.089 -0.07,-0.177 -0.104,-0.266c0.018,0.155 0.034,0.31 0.049,0.465c0.018,-0.067 0.037,-0.133 0.055,-0.199Zm-86.435,-74.987c0.63,1.027 1.269,2.071 1.918,3.134c13.036,21.356 29.21,33.41 41.926,44.601c3.273,2.881 7.669,2.496 12.442,2.115c-2.116,-0.718 -4.215,-1.69 -6.251,-2.924c-9.295,-5.629 -9.454,-16.991 -15.257,-24.613c-8.456,-11.105 -24.628,-24.165 -36.725,-42.777c0.717,7.478 1.198,14.424 1.947,20.464Zm-2.446,-25.355c12.272,19.716 27.234,31.479 39.094,42.391c3.917,3.604 9.598,2.395 15.576,2.261c-2.654,-0.672 -5.304,-1.733 -7.869,-3.199c-9.419,-5.388 -9.828,-16.737 -15.799,-24.205c-7.878,-9.851 -22.117,-21.141 -34.024,-36.763c1.419,6.668 2.335,13.241 3.022,19.515Zm111.146,91.183c-4.089,5.419 -9.316,9.183 -14.723,10.885c-0.844,5.588 -1.709,11.499 -2.711,17.998c-3.811,24.724 0.776,44.364 3.278,61.115c0.879,5.89 7.29,8.474 12.407,12.896c-2.671,-3.098 -4.795,-6.924 -6.104,-11.315c-3.111,-10.434 4.372,-18.993 5.177,-28.563c1.267,-15.066 -2.605,-37.885 2.427,-61.835c0.083,-0.395 0.166,-0.789 0.249,-1.181Zm-28.928,195.067c0.147,-0.536 0.314,-1.071 0.499,-1.604c-0.312,0.467 -0.639,0.922 -0.979,1.365l0.48,0.239Zm-8.184,-1.447c-6.407,-2.905 -11.888,-8.748 -14.725,-16.625c-3.677,-10.211 3.37,-19.118 3.666,-28.677c0.23,-7.418 -0.893,-16.643 -1.64,-26.975c-23.531,39.735 -70.477,95.981 -70.477,95.981l-17.692,27.396c0,0 13.342,9.491 48.602,-1.91c30.373,-9.82 47.971,-40.791 52.266,-49.19Zm-10.277,-76.456c0.945,10.361 2.745,19.678 4.003,28.24c0.634,4.314 4.236,6.863 8.123,9.659c-1.149,-1.917 -2.122,-4.015 -2.877,-6.273c-3.449,-10.305 3.777,-19.073 4.279,-28.64c0.458,-8.717 -0.893,-19.969 -1.281,-32.561c-0.95,3.257 -1.951,6.543 -3.004,9.841c-1.757,5.5 -5.01,12.256 -9.243,19.734Zm99.841,-106.937c-2.203,3.501 -5.011,6.449 -8.229,8.585c-0.325,-0.149 -0.647,-0.307 -0.965,-0.473c0.221,0.689 0.4,1.408 0.53,2.161c0.885,5.138 0.554,10.241 -0.758,14.887c2.493,-4.708 6.286,-9.144 11.193,-12.702c1.154,-0.836 2.343,-1.5 3.552,-2.032c-1.927,-0.086 -3.789,-0.392 -5.548,-0.919c-0.552,-3.01 -0.466,-6.239 0.225,-9.507Zm-22.564,-14.403c-0.008,0.419 -0.018,0.837 -0.028,1.252c-0.036,1.475 0.283,2.807 0.848,4.057c-0.408,-1.699 -0.686,-3.473 -0.82,-5.309Zm-266.013,-167.069c1.907,3.671 3.031,7.584 3.248,11.441c-0.293,0.205 -0.592,0.403 -0.896,0.593c0.706,0.158 1.417,0.367 2.132,0.635c4.881,1.834 9.117,4.699 12.463,8.179c-2.803,-4.53 -4.713,-10.046 -5.302,-16.078c-0.139,-1.419 -0.11,-2.78 0.042,-4.092c-1.048,1.619 -2.254,3.072 -3.598,4.322c-2.876,-1.044 -5.619,-2.751 -8.089,-5Zm-23.835,12.189c0.358,0.219 0.714,0.439 1.068,0.658c1.255,0.776 2.566,1.175 3.93,1.319c-1.673,-0.507 -3.345,-1.165 -4.998,-1.977Zm-188.396,-12.189c-2.47,2.249 -5.213,3.956 -8.089,5c-1.344,-1.25 -2.55,-2.703 -3.598,-4.322c0.152,1.312 0.181,2.673 0.042,4.092c-0.589,6.032 -2.499,11.548 -5.302,16.078c3.346,-3.48 7.582,-6.345 12.463,-8.179c0.715,-0.268 1.426,-0.477 2.132,-0.635c-0.304,-0.19 -0.603,-0.388 -0.896,-0.593c0.217,-3.857 1.341,-7.77 3.248,-11.441Zm23.835,12.189c-1.653,0.812 -3.325,1.47 -4.998,1.977c1.364,-0.144 2.675,-0.543 3.93,-1.319c0.354,-0.219 0.71,-0.439 1.068,-0.658Zm-312.412,169.283c0.691,3.268 0.777,6.497 0.225,9.507c-1.759,0.527 -3.621,0.833 -5.548,0.919c1.209,0.532 2.398,1.196 3.552,2.032c4.907,3.558 8.7,7.994 11.193,12.702c-1.312,-4.646 -1.643,-9.749 -0.758,-14.887c0.13,-0.753 0.309,-1.472 0.53,-2.161c-0.318,0.166 -0.64,0.324 -0.965,0.473c-3.218,-2.136 -6.026,-5.084 -8.229,-8.585Zm22.564,-14.403c-0.134,1.836 -0.412,3.61 -0.82,5.309c0.565,-1.25 0.884,-2.582 0.848,-4.057c-0.01,-0.415 -0.02,-0.833 -0.028,-1.252Zm359.079,745.171c-0,-0 -3.913,0.471 -7.354,-0.841c-4.612,-1.759 -7.124,-8.266 -8.727,-13.151c-2.762,-8.417 -1.761,-24.834 -11.159,-22.512c-9.583,2.369 -2.467,17.361 -0.167,22.663c3.745,8.634 7.468,15.467 17.634,17.042c7.077,1.096 9.773,-3.201 9.773,-3.201Zm24.099,-0.128c0,0 2.696,4.298 9.773,3.201c10.166,-1.575 13.889,-8.408 17.634,-17.041c2.3,-5.302 9.416,-20.295 -0.168,-22.663c-9.397,-2.323 -8.396,14.095 -11.158,22.511c-1.603,4.885 -4.115,11.392 -8.727,13.151c-3.441,1.313 -7.354,0.841 -7.354,0.841Zm-92.602,-243.688c0,0 25.248,-2.571 29.398,-20.494c3.198,-13.816 -9.405,-24.02 -19.173,-36.026c-9.769,-12.006 -17.028,-11.036 -17.028,-11.036c0,0 -2.568,18.431 3.363,27.811c6.59,10.422 17.705,4.294 19.673,18.514c1.493,10.79 -16.233,21.231 -16.233,21.231Zm161.105,0c-0,0 -17.726,-10.441 -16.233,-21.231c1.968,-14.22 13.083,-8.092 19.673,-18.514c5.931,-9.38 3.363,-27.811 3.363,-27.811c-0,0 -7.26,-0.97 -17.028,11.036c-9.768,12.006 -22.371,22.21 -19.173,36.026c4.15,17.923 29.398,20.494 29.398,20.494Zm183.52,-680.356c0.583,4.096 0.347,8.159 -0.726,11.87c-0.345,0.097 -0.692,0.184 -1.042,0.263c0.614,0.383 1.216,0.815 1.802,1.306c3.997,3.346 7.045,7.453 9.049,11.845c-1.144,-5.203 -1.119,-11.04 0.323,-16.926c0.34,-1.385 0.817,-2.659 1.396,-3.847c-1.526,1.18 -3.144,2.151 -4.827,2.886c-2.367,-1.939 -4.389,-4.457 -5.975,-7.397Zm-26.526,3.606c0.265,0.325 0.528,0.649 0.788,0.972c0.927,1.148 2.032,1.959 3.27,2.547c-1.409,-1.032 -2.768,-2.206 -4.058,-3.519Zm-499.619,-3.606c-1.586,2.94 -3.608,5.458 -5.975,7.397c-1.683,-0.735 -3.301,-1.706 -4.827,-2.886c0.579,1.188 1.056,2.462 1.396,3.847c1.442,5.886 1.467,11.723 0.323,16.926c2.004,-4.392 5.052,-8.499 9.049,-11.845c0.586,-0.491 1.188,-0.923 1.802,-1.306c-0.35,-0.079 -0.697,-0.166 -1.042,-0.263c-1.073,-3.711 -1.309,-7.774 -0.726,-11.87Zm26.526,3.606c-1.29,1.313 -2.649,2.487 -4.058,3.519c1.238,-0.588 2.343,-1.399 3.27,-2.547c0.26,-0.323 0.523,-0.647 0.788,-0.972Zm218.815,392.107l-74.319,-0l0,-11.523c3.113,-0.035 5.637,-5.111 5.659,-11.375l0,-182.978c-0.022,-6.263 -2.546,-11.339 -5.659,-11.374l0,-11.538l74.319,0l0,11.538c-3.141,-0 -5.691,5.133 -5.691,11.456c0,0.392 0.01,0.779 0.029,1.16l0,181.736c0.022,6.266 2.548,11.344 5.662,11.375l0,11.523Zm109.782,-0l-74.319,-0l-0,-11.523c3.112,-0.035 5.637,-5.111 5.658,-11.375l0,-74.374l-32.634,0l0,-37.255l32.634,-0l0,-71.349c-0.021,-6.263 -2.546,-11.339 -5.658,-11.374l-0,-11.538l74.319,0l-0,11.538c-3.141,-0 -5.691,5.133 -5.691,11.456c-0,0.392 0.01,0.779 0.029,1.16l-0,181.736c0.022,6.266 2.548,11.344 5.662,11.375l-0,11.523Zm-363.053,375.412l-68.985,0l0,-11.523c3.113,-0.034 5.637,-5.111 5.659,-11.374l-0,-182.978c-0.022,-6.264 -2.546,-11.34 -5.659,-11.375l0,-11.537l68.985,-0l0,228.787Zm613.676,-151.163l-63.627,-0l0,-23.189c0,-12.73 -1.75,-23.197 -14.191,-24.314l-0,-35.401l11.303,0c36.749,0 66.585,29.837 66.585,66.586l-0.07,16.318Zm-66.515,145.884l-11.303,-0l-0,-40.21c12.441,-1.116 14.191,-11.584 14.191,-24.314l0,-21.311l63.629,0l0.068,19.249c0,36.749 -29.835,66.585 -66.585,66.586Zm-26.112,-0l-11.303,-0c-36.749,-0 -66.585,-29.836 -66.585,-66.586l0.18,-47.808l-0.18,-47.808c-0,-36.749 29.835,-66.585 66.585,-66.586l11.303,0l0,35.401c-12.441,1.117 -14.191,11.584 -14.191,24.314l-0,104.549c-0,12.73 1.75,23.198 14.191,24.314l0,40.21Zm-484.037,-187.885l-23.231,0l0,-35.623l36.225,-0c35.673,-0 64.635,28.177 64.635,62.884c0,19.045 -8.721,36.124 -22.486,47.66c13.765,12.34 22.486,30.608 22.486,50.98c0,37.123 -28.961,67.262 -64.635,67.263l-36.225,0l0,-40.065l23.85,-0c11.881,-1.405 13.573,-11.734 13.573,-24.25l-0,-8.686c-0,-12.579 -1.709,-22.949 -13.754,-24.27l-23.669,-0l0,-37.256l23.231,0l0,-0.093c12.442,-1.117 14.192,-11.584 14.192,-24.314l-0,-9.897c-0,-12.73 -1.75,-23.197 -14.192,-24.314l0,-0.019Z" style="fill:white;"/>
</svg>
