<?xml version="1.0" encoding="UTF-8" standalone="no"?>
<!DOCTYPE svg PUBLIC "-//W3C//DTD SVG 1.1//EN" "http://www.w3.org/Graphics/SVG/1.1/DTD/svg11.dtd">
<svg width="100%" height="100%" viewBox="0 0 1018 397" version="1.1" xmlns="http://www.w3.org/2000/svg" xmlns:xlink="http://www.w3.org/1999/xlink" xml:space="preserve" xmlns:serif="http://www.serif.com/" style="fill-rule:evenodd;clip-rule:evenodd;stroke-linejoin:round;stroke-miterlimit:2;">
    <rect id="Stamp" x="0" y="0" width="1017.7" height="396.566" style="fill:none;"/>
    <clipPath id="_clip1">
        <rect x="0" y="0" width="1017.7" height="396.566"/>
    </clipPath>
    <g clip-path="url(#_clip1)">
        <g>
            <path d="M129.391,397.109l-128.82,0l0,-19.973l0,-0c5.396,-0.06 9.771,-8.858 9.808,-19.715l0.001,-0.001l-0,-317.162l-0.001,-0c-0.037,-10.857 -4.412,-19.655 -9.808,-19.716l0,0l0,-19.999l128.82,0l-0,19.999c-5.444,0 -9.864,8.898 -9.864,19.857c-0,0.679 0.017,1.35 0.05,2.012l-0,315.009l0,0.001c0.038,10.86 4.416,19.661 9.814,19.715l-0,0l-0,19.973Zm190.288,0l-128.819,0l-0,-19.973l-0,-0c5.395,-0.06 9.77,-8.858 9.808,-19.715l-0,-0.001l-0,-128.915l-56.566,0l-0,-64.576l56.566,-0l-0,-123.671l-0,-0c-0.038,-10.857 -4.413,-19.655 -9.808,-19.716l-0,0l-0,-19.999l128.819,0l-0,19.999c-5.444,0 -9.864,8.898 -9.864,19.857c0,0.679 0.017,1.35 0.05,2.012l0,315.009l0,0.001c0.038,10.86 4.416,19.661 9.814,19.715l-0,0l-0,19.973Z" style="fill:white;"/>
            <path d="M902.858,397.109l-19.592,0l0,-69.697c21.566,-1.935 24.599,-20.079 24.599,-42.144l-0,-36.939l110.291,0l0.118,33.364c-0,63.7 -51.716,115.415 -115.416,115.416Zm-45.26,0l-19.591,0c-63.7,0 -115.416,-51.716 -115.416,-115.416l0.313,-82.867l-0.313,-82.867c-0,-63.699 51.715,-115.415 115.416,-115.416l19.591,0l-0,61.362c-21.565,1.935 -24.598,20.079 -24.598,42.144l-0,181.219c-0,22.065 3.033,40.209 24.598,42.144l-0,69.697Zm160.554,-252.866l-110.287,-0l-0,-40.194c-0,-22.065 -3.033,-40.209 -24.599,-42.144l0,-61.362l19.592,0c63.7,0 115.416,51.717 115.416,115.416l-0.122,28.284Z" style="fill:white;"/>
            <path d="M486.844,397.109l-119.574,0l-0,-19.973l-0,-0c5.395,-0.06 9.77,-8.858 9.808,-19.715l-0,-0.001l-0,-317.162l-0,-0c-0.038,-10.857 -4.413,-19.655 -9.808,-19.716l-0,0l-0,-19.999l119.574,0l0,396.566Zm64.154,-334.818l-40.267,-0l0,-61.748l62.791,0c61.833,0 112.034,48.842 112.034,109c-0,33.012 -15.117,62.616 -38.978,82.612c23.861,21.388 38.978,53.053 38.978,88.364c-0,64.347 -50.2,116.589 -112.034,116.59l-62.791,0l0,-69.447l41.339,0c20.595,-2.435 23.527,-20.338 23.527,-42.033l-0,-15.055c-0,-21.804 -2.962,-39.779 -23.841,-42.069l-41.025,0l0,-64.576l40.267,-0l0,-0.162c21.566,-1.936 24.599,-20.079 24.599,-42.145l-0,-17.153c-0,-22.066 -3.033,-40.209 -24.599,-42.145l0,-0.033Z" style="fill:white;"/>
        </g>
    </g>
</svg>
