<?xml version="1.0" encoding="UTF-8" standalone="no"?>
<!DOCTYPE svg PUBLIC "-//W3C//DTD SVG 1.1//EN" "http://www.w3.org/Graphics/SVG/1.1/DTD/svg11.dtd">
<svg width="100%" height="100%" viewBox="0 0 3807 2789" version="1.1" xmlns="http://www.w3.org/2000/svg" xmlns:xlink="http://www.w3.org/1999/xlink" xml:space="preserve" xmlns:serif="http://www.serif.com/" style="fill-rule:evenodd;clip-rule:evenodd;stroke-linejoin:round;stroke-miterlimit:2;">
    <rect id="T-template" serif:id="T template" x="0" y="0" width="3806.9" height="2788.59" style="fill:none;"/>
    <clipPath id="_clip1">
        <rect x="0" y="0" width="3806.9" height="2788.59"/>
    </clipPath>
    <g clip-path="url(#_clip1)">
        <path d="M2805.01,1153.74l-0,481.107l-661.01,661.009l-481.107,0l-661.009,-661.009l-0,-481.107l661.009,-661.01l481.107,0l661.01,661.01Zm-1123.21,-615.363l-634.27,634.27l0,443.292l634.27,634.271l443.293,-0l634.27,-634.271l0,-443.292l-634.27,-634.27l-443.293,-0Zm1051.17,645.202l-0,421.429l-618.811,618.811l-421.429,-0l-618.811,-618.811l0,-421.429l618.811,-618.811l421.429,0l618.811,618.811Zm-1021.33,-573.164l-592.071,592.071l-0,383.614l592.071,592.072l383.615,0l592.071,-592.072l0,-383.614l-592.071,-592.071l-383.615,-0Zm-225.373,790.368c-9.049,4.388 -21.207,4.695 -33.151,-0.108c-14.011,-5.635 -17.223,-19.852 -27.055,-28.519c-15.479,-13.643 -43.702,-28.769 -65.817,-53.343c-24.597,-27.33 -40.472,-47.974 -58.213,-73.18c18.713,26.588 34.444,42.745 57.859,68.762c22.701,25.224 47.44,38.371 67.298,50.86c10.117,6.364 23.149,-3.895 37.297,1.795c9.582,3.854 17.311,10.308 22.198,17.742c-3.018,-8.549 -3.169,-18.578 0.264,-28.112c0.229,-0.635 0.484,-1.246 0.763,-1.833c-3.827,2.374 -8.017,3.897 -12.324,4.432c-8.403,-9.719 -11.444,-24.8 -6.701,-38.973c0.554,-1.654 1.287,-3.145 2.151,-4.507c-4.933,3.965 -10.686,6.413 -16.615,7.005c-8.184,-9.897 -10.87,-25.017 -5.779,-39.047c0.88,-2.427 2.147,-4.486 3.642,-6.296c-4.583,4.008 -9.985,6.624 -15.647,7.514c-8.688,-9.474 -12.199,-24.489 -7.92,-38.839c0.335,-1.125 0.753,-2.178 1.239,-3.169c-2.981,1.656 -6.166,2.798 -9.446,3.357c-8.799,-9.373 -12.498,-24.358 -8.406,-38.775c0.829,-2.923 2.219,-5.375 3.907,-7.531c-2.435,1.558 -5.045,2.743 -7.767,3.508c-3.188,-2.813 -5.889,-6.298 -7.983,-10.24c0.987,3.596 1.391,7.195 1.168,10.653c-4.29,1.871 -9.219,2.685 -14.402,2.429c1.727,0.605 3.439,1.404 5.118,2.464c13.464,8.499 21.432,22.044 21.504,34.36c-3.404,1.792 -7.289,2.893 -11.442,3.28c1.629,0.538 3.249,1.25 4.848,2.191c13.705,8.071 22.101,21.38 22.584,33.72c-3.61,2.067 -7.81,3.34 -12.331,3.781c2.533,0.358 5.09,1.058 7.643,2.305c14.243,6.96 23.67,19.615 25.181,31.953c-4.218,2.943 -9.44,4.736 -15.157,5.263c3.391,0.112 6.855,0.715 10.336,2.318c14.383,6.626 24.1,19.072 25.911,31.393c-9.588,7.07 -24.7,8.08 -39.083,1.454c-13.753,-6.334 -16.225,-20.641 -25.627,-29.773c-14.803,-14.375 -42.306,-30.89 -63.187,-56.482c-23.224,-28.463 -38.056,-49.822 -54.516,-75.815c17.362,27.418 32.285,44.307 54.393,71.403c21.435,26.269 45.55,40.634 64.803,54.09c6.118,4.276 13.714,2.182 21.932,1.551c-6.141,-0.215 -12.655,-1.807 -18.987,-4.901c-13.619,-6.655 -15.744,-20.99 -24.937,-30.33c-14.474,-14.703 -41.616,-31.85 -61.903,-57.893c-22.563,-28.964 -36.893,-50.635 -52.742,-76.971c16.717,27.779 31.249,44.994 52.728,72.566c20.824,26.732 44.625,41.651 63.58,55.545c5.73,4.201 12.941,2.681 20.731,2.153c-5.983,-0.778 -12.193,-2.874 -18.114,-6.36c-13.104,-7.717 -14.035,-22.085 -22.475,-32.093c-13.287,-15.756 -39.077,-34.98 -57.246,-62.443c-20.208,-30.544 -32.768,-53.185 -46.461,-80.571c14.443,28.886 27.579,47.133 46.815,76.209c18.65,28.19 41.276,44.932 59.126,60.257c4.495,3.86 10.354,3.875 16.728,3.843c-4.202,-1.24 -8.416,-3.129 -12.466,-5.686c-12.874,-8.126 -13.326,-22.479 -21.449,-32.735c-12.788,-16.145 -37.989,-36.161 -55.277,-64.139c-14.298,-23.136 -24.505,-41.778 -34.063,-61.227l0.282,-0.282c10.079,18.955 20.565,34.976 34.282,57.173c17.746,28.718 39.859,46.155 57.233,62.022c5.458,4.985 13.241,4.076 21.453,4.569c-4.938,-1.516 -9.879,-3.952 -14.519,-7.316c-12.347,-8.95 -11.8,-23.221 -19.232,-33.957c-11.701,-16.901 -35.584,-38.499 -50.975,-67.449c-5.477,-10.303 -10.253,-19.727 -14.572,-28.712l1.491,-1.491c4.25,7.993 8.827,16.419 13.886,25.935c15.798,29.717 36.763,48.542 53.085,65.484c3.651,3.791 8.695,4.697 14.259,5.285c-4.811,-2.055 -9.521,-5.028 -13.817,-8.894c-11.35,-10.214 -9.164,-24.202 -15.383,-35.615c-8.923,-16.374 -27.539,-37.737 -39.934,-64.291l2.167,-2.167c12.205,25.757 28.565,44.149 41.404,60.653c7.346,9.442 23.645,4.976 35.106,15.289c3.684,3.314 6.75,7.003 9.162,10.872c-0.811,-3.571 -1.212,-7.314 -1.139,-11.142c0.283,-14.734 15.307,-22.059 13.324,-33.521c-3.892,-22.495 -6.442,-49.549 -21.317,-79.678c-4.727,-9.576 -8.857,-18.132 -12.829,-26.184l1.467,-1.467c4.985,9.102 10.047,18.845 15.428,29.743c14.491,29.352 17.522,60.266 24.278,79.377c3.911,11.062 14.428,19.148 16.051,31.539c-0.24,-20.859 -0.134,-45.113 -9.357,-73.152c-10.733,-32.632 -16.764,-53.85 -30.519,-83.024c13.041,27.658 23.001,51.387 34.276,85.667c10.138,30.821 8.576,61.484 12.495,81.157c2.49,12.496 13.473,22.66 11.024,36.881c-1.137,6.602 -3.663,12.446 -7.141,17.19c4.4,-3.684 8.263,-7.224 8.681,-12.537c1.758,-22.319 5.977,-48.635 -1.221,-80.909c-7.424,-33.29 -11.3,-54.838 -22.108,-85.021c10.247,28.615 17.807,53.04 25.605,88.009c7.012,31.442 2.307,61.543 4.224,81.354c1.218,12.584 11.192,23.725 7.28,37.511c-0.869,3.062 -2.038,5.92 -3.457,8.542c3.489,-3.025 6.269,-6.182 6.674,-10.597c2.043,-22.273 6.601,-48.507 -0.192,-80.838c-0.367,-1.745 -0.724,-3.459 -1.074,-5.143c-0.024,-0.045 -0.048,-0.091 -0.072,-0.136c-2.854,-5.414 -3.444,-10.756 -3.262,-16.058c-4.612,-22.366 -8.597,-40.531 -16.637,-63.87c6.653,19.314 12.115,36.72 17.217,56.708c0.584,-5.358 1.268,-10.689 0.487,-16.029c-2.984,-20.416 -14.729,-50.205 -15.708,-83.25c-1.088,-36.753 0.153,-62.766 2.921,-93.465c-2.92,32.382 -1.37,54.879 -0.334,89.866c1.004,33.92 11.373,59.946 18.443,82.314c1.529,4.835 5.393,7.728 9.878,10.485c-0.674,-2.549 -1.39,-5.154 -2.155,-7.828c0.759,2.655 1.499,5.274 2.219,7.868c6.073,3.727 13.267,7.225 17.347,14.963c4.817,9.136 6.539,19.057 5.459,27.888c3.226,-8.473 9.596,-16.22 18.381,-21.273c0.585,-0.336 1.174,-0.637 1.766,-0.904c-4.453,-0.664 -8.634,-2.212 -12.265,-4.589c-0.125,-12.848 7.307,-26.317 20.091,-34.061c1.492,-0.903 3.015,-1.566 4.555,-2.047c-6.327,-0.166 -12.298,-2.019 -17.204,-5.401c0.158,-12.842 7.887,-26.111 20.843,-33.521c2.241,-1.282 4.538,-2.034 6.85,-2.447c-6.087,0.093 -11.901,-1.404 -16.795,-4.387c-0.5,-12.845 6.532,-26.568 19.075,-34.748c0.983,-0.64 1.983,-1.173 2.995,-1.615c-3.345,-0.664 -6.513,-1.853 -9.376,-3.548c-0.651,-12.84 6.218,-26.661 18.662,-35.013c2.523,-1.693 5.169,-2.664 7.851,-3.217c-2.865,-0.386 -5.622,-1.17 -8.194,-2.347c-0.612,-4.208 -0.418,-8.612 0.533,-12.973c-1.572,3.381 -3.591,6.388 -5.997,8.881c-4.483,-1.347 -8.769,-3.914 -12.557,-7.461c0.926,1.579 1.715,3.296 2.311,5.19c4.774,15.189 2.093,30.673 -5.817,40.114c-3.756,-0.834 -7.431,-2.507 -10.849,-4.898c0.895,1.464 1.67,3.055 2.281,4.808c5.234,15.018 3.032,30.6 -4.579,40.324c-4.09,-0.758 -8.117,-2.503 -11.851,-5.089c1.701,1.91 3.199,4.098 4.339,6.7c6.364,14.52 5.371,30.268 -1.455,40.656c-5.121,-0.482 -10.263,-2.492 -14.966,-5.787c2.515,2.278 4.767,4.978 6.386,8.453c6.686,14.354 6.049,30.131 -0.537,40.701c-11.886,-0.807 -24.066,-9.81 -30.752,-24.165c-6.394,-13.725 0.972,-26.236 -0.294,-39.282c-1.995,-20.538 -12.294,-50.92 -11.672,-83.945c0.524,-27.812 2.084,-49.405 4.658,-71.481l0.375,-0.375c-1.921,22.117 -1.768,41.613 -2.273,68.412c-0.638,33.899 8.467,60.45 14.451,83.165c1.902,7.218 9.049,10.532 15.726,15.366c-4.545,-4.135 -8.484,-9.562 -11.313,-16.017c-6.085,-13.884 1.564,-26.191 0.592,-39.261c-1.532,-20.575 -11.147,-51.206 -9.78,-84.19c0.566,-13.657 1.348,-25.805 2.363,-37.241l1.884,-1.884c-0.509,10.925 -0.857,22.44 -1.409,35.756c-1.403,33.857 7.104,60.628 12.577,83.484c1.655,6.909 8.138,10.413 14.421,15.048c-4.06,-4.462 -7.442,-10.078 -9.703,-16.565c-5.006,-14.361 3.575,-25.922 3.61,-39.013c0.054,-20.611 -7.187,-51.952 -3.287,-84.65c0.483,-4.044 0.974,-7.952 1.477,-11.746l2.974,-2.974c-0.43,3.731 -0.878,7.594 -1.359,11.622c-4.004,33.563 2.428,60.965 6.133,84.198c0.933,5.851 5.392,9.651 10.274,13.748c-2.403,-3.663 -4.395,-7.829 -5.831,-12.399c-4.565,-14.523 4.371,-25.763 4.808,-38.839c0.583,-17.501 -3.868,-42.941 -2.2,-70.155l3.124,-3.124c-1.87,27.042 2.572,50.044 5.123,69.946c0.94,7.331 7.463,11.671 13.409,17.358c-2.786,-4.35 -4.98,-9.403 -6.344,-14.97c-3.629,-14.811 6.016,-25.343 7.289,-38.338c1.371,-13.986 -0.183,-33.328 0.929,-54.402l3.27,-3.27c-1.091,20.474 1.03,38.685 2.055,54.803c0.335,5.252 3.596,9.205 7.459,13.252c-2.34,-4.679 -4.01,-9.992 -4.787,-15.719c-2.053,-15.13 8.66,-24.386 11.297,-37.114c1.981,-9.563 2.819,-21.89 4.277,-35.523l3.907,-3.907c-1.132,13.471 -1.176,25.965 -1.655,37.354c-0.503,11.953 14.818,19.086 16.89,34.364c0.667,4.91 0.62,9.707 -0.042,14.218c1.691,-3.249 3.805,-6.363 6.337,-9.235c9.744,-11.056 25.94,-6.928 31.84,-16.953c11.578,-19.676 27.128,-41.96 35.266,-74.561c8.393,-33.626 14.648,-54.996 18.655,-87.221c-3.799,30.551 -8.091,56.123 -16.908,91.446c-7.927,31.759 -25.606,57.3 -32.811,76.246c-4.171,10.967 -1.378,23.936 -8.153,34.437c13.306,-16.066 29.071,-34.498 40.169,-61.849c12.915,-31.832 22.036,-51.916 30.41,-83.064c-7.939,29.53 -15.687,54.071 -29.254,87.509c-12.198,30.066 -33.218,52.444 -42.951,69.985c-6.182,11.142 -4.376,25.997 -15.441,35.26c-5.137,4.301 -10.842,7.125 -16.563,8.494c5.738,0.036 10.974,-0.167 14.729,-3.949c15.773,-15.887 36.009,-33.232 51.39,-62.504c15.864,-30.193 26.843,-49.136 38.117,-79.148c-10.688,28.452 -20.717,51.972 -37.382,83.689c-14.984,28.517 -38.038,48.434 -49.387,64.785c-7.209,10.386 -6.806,25.335 -18.705,33.321c-2.642,1.773 -5.382,3.197 -8.16,4.279c4.617,-0.051 8.779,-0.662 11.943,-3.767c15.961,-15.668 36.403,-32.731 52.129,-61.785c16.22,-29.967 27.421,-48.754 39.048,-78.603c-11.023,28.298 -21.328,51.673 -38.366,83.153c-15.32,28.304 -38.611,47.901 -50.152,64.092c-7.331,10.285 -7.103,25.234 -19.098,33.055c-5.048,3.291 -10.432,5.322 -15.746,6.16c8.894,-0.084 17.522,2.774 23.414,-2.386c14.707,-12.883 32.921,-26.632 48.789,-48.769c0.746,-2.899 1.573,-5.805 2.496,-8.705c11.149,-35.038 20.937,-59.171 33.719,-87.219c-13.483,29.585 -19.472,51.326 -30.086,84.68c-0.426,1.338 -0.832,2.669 -1.219,3.993c0.524,-0.822 1.046,-1.654 1.563,-2.498c13.181,-21.485 23.279,-36.982 32.99,-55.451c9.829,-24.588 19.092,-44.085 30.394,-65.989c-14.881,28.841 -21.911,50.254 -34.115,83.025c-2.185,5.868 -3.973,11.609 -5.449,17.217c2.627,-5.431 5.231,-11.146 7.867,-17.352c-2.773,6.527 -5.499,12.787 -8.278,18.941c-3.628,14.295 -5.259,27.72 -6.297,40.173c2.613,-5.154 5.213,-10.577 7.851,-16.447c-2.654,5.905 -5.265,11.588 -7.911,17.171c-0.679,8.296 -1.105,16.157 -1.698,23.553c-0.597,7.441 5.049,12.936 9.747,19.709c-2.919,-5.408 -4.837,-11.833 -5.368,-18.861c-1.142,-15.115 10.152,-24.194 13.564,-36.848c5.371,-19.92 6.446,-52.007 18.663,-82.675c13.586,-34.109 25.041,-57.428 39.754,-84.416c-15.519,28.467 -23.027,49.707 -35.96,82.177c-12.54,31.48 -13.382,59.558 -15.789,82.936c-0.728,7.067 4.229,12.521 8.621,18.976c-2.353,-5.555 -3.683,-11.974 -3.668,-18.845c0.035,-15.207 11.961,-23.273 16.331,-35.614c6.878,-19.429 10.429,-51.399 24.941,-80.958c16.141,-32.875 29.328,-55.157 46.036,-80.815c-17.624,27.064 -26.728,47.621 -42.092,78.916c-14.897,30.341 -17.906,58.326 -22.107,81.475c-1.058,5.83 1.891,10.893 5.141,16.377c-1.054,-4.253 -1.554,-8.844 -1.396,-13.632c0.505,-15.215 12.66,-22.86 17.403,-35.053c7.467,-19.195 12,-51.058 27.401,-80.116c17.129,-32.319 30.982,-54.145 48.455,-79.221c-18.43,26.451 -28.154,46.695 -44.46,77.461c-15.809,29.828 -19.677,57.722 -24.586,80.734c-1.542,7.229 3.176,13.485 6.902,20.82c-1.187,-5.027 -1.584,-10.522 -1.027,-16.226c1.482,-15.177 14.073,-21.919 19.579,-33.758c8.668,-18.64 15.231,-50.164 32.431,-78.077c19.13,-31.045 34.323,-51.84 53.328,-75.618c-20.046,25.081 -31.028,44.602 -49.238,74.155c-17.655,28.652 -23.302,56.258 -29.67,78.904c-1.425,5.067 0.343,9.877 2.648,14.976c-0.659,-5.191 -0.474,-10.757 0.69,-16.418c3.076,-14.956 16.25,-20.141 22.954,-31.276c10.555,-17.531 20.392,-48.17 40.373,-73.907c22.222,-28.624 39.463,-47.507 60.791,-68.898c-22.497,22.564 -35.434,40.691 -56.589,67.94c-20.51,26.418 -29.024,53.26 -37.727,75.069c-4.434,11.112 7.658,22.917 4.553,38.019c-0.998,4.854 -2.632,9.364 -4.751,13.401c2.671,-2.505 5.698,-4.743 9.039,-6.615c12.856,-7.203 26.771,2.057 35.658,-5.447c17.443,-14.729 39.497,-30.604 57.975,-58.668c10.499,-15.946 19.153,-28.597 27.226,-41.606c-6.284,-11.275 -12.065,-22.425 -18.073,-34.51c6.296,12.663 12.312,23.243 18.672,33.543c6.36,-10.3 12.376,-20.88 18.672,-33.543c-6.009,12.085 -11.789,23.235 -18.074,34.51c8.073,13.009 16.728,25.66 27.226,41.606c18.478,28.064 40.533,43.939 57.975,58.668c8.888,7.504 22.802,-1.756 35.659,5.447c3.34,1.872 6.367,4.11 9.039,6.615c-2.12,-4.037 -3.753,-8.547 -4.751,-13.401c-3.106,-15.102 8.987,-26.907 4.553,-38.019c-8.703,-21.809 -17.218,-48.651 -37.727,-75.069c-21.155,-27.249 -34.092,-45.376 -56.59,-67.94c21.329,21.391 38.57,40.274 60.792,68.898c19.981,25.737 29.818,56.376 40.372,73.907c6.705,11.135 19.879,16.32 22.955,31.276c1.164,5.661 1.349,11.227 0.69,16.418c2.305,-5.099 4.072,-9.909 2.648,-14.976c-6.369,-22.646 -12.015,-50.252 -29.67,-78.904c-18.211,-29.553 -29.192,-49.074 -49.239,-74.155c19.005,23.778 34.199,44.573 53.328,75.618c17.2,27.913 23.764,59.437 32.432,78.077c5.506,11.839 18.096,18.581 19.578,33.758c0.557,5.704 0.161,11.199 -1.026,16.226c3.726,-7.335 8.443,-13.591 6.901,-20.82c-4.909,-23.012 -8.777,-50.906 -24.586,-80.734c-16.305,-30.766 -26.029,-51.01 -44.459,-77.461c17.473,25.076 31.326,46.902 48.455,79.221c15.401,29.058 19.933,60.921 27.4,80.116c4.744,12.193 16.899,19.838 17.403,35.053c0.159,4.788 -0.341,9.379 -1.395,13.632c3.249,-5.484 6.198,-10.547 5.14,-16.377c-4.201,-23.149 -7.209,-51.134 -22.106,-81.475c-15.365,-31.295 -24.469,-51.852 -42.092,-78.916c16.708,25.658 29.895,47.94 46.035,80.815c14.513,29.559 18.063,61.529 24.942,80.958c4.369,12.341 16.296,20.407 16.33,35.614c0.016,6.871 -1.315,13.29 -3.668,18.845c4.393,-6.455 9.35,-11.909 8.622,-18.976c-2.408,-23.378 -3.249,-51.456 -15.789,-82.936c-12.934,-32.47 -20.442,-53.71 -35.96,-82.177c14.712,26.988 26.167,50.307 39.754,84.416c12.216,30.668 13.291,62.755 18.662,82.675c3.412,12.654 14.707,21.733 13.565,36.848c-0.531,7.028 -2.45,13.453 -5.369,18.861c4.698,-6.773 10.345,-12.268 9.748,-19.709c-0.593,-7.396 -1.02,-15.257 -1.698,-23.553c-2.646,-5.583 -5.257,-11.266 -7.912,-17.171c2.639,5.87 5.238,11.293 7.852,16.447c-1.038,-12.453 -2.669,-25.878 -6.298,-40.173c-2.779,-6.154 -5.505,-12.414 -8.278,-18.941c2.637,6.206 5.24,11.921 7.868,17.352c-1.476,-5.608 -3.264,-11.349 -5.449,-17.217c-12.204,-32.771 -19.234,-54.184 -34.115,-83.025c11.301,21.904 20.565,41.401 30.394,65.989c9.711,18.469 19.809,33.966 32.99,55.451c0.517,0.844 1.038,1.676 1.563,2.498c-0.388,-1.324 -0.794,-2.655 -1.22,-3.993c-10.613,-33.354 -16.603,-55.095 -30.085,-84.68c12.782,28.048 22.569,52.181 33.718,87.219c0.923,2.9 1.751,5.806 2.496,8.705c15.868,22.137 34.082,35.886 48.79,48.769c5.891,5.16 14.52,2.302 23.413,2.386c-5.313,-0.838 -10.698,-2.869 -15.746,-6.16c-11.994,-7.821 -11.766,-22.77 -19.097,-33.055c-11.542,-16.191 -34.832,-35.788 -50.152,-64.092c-17.039,-31.48 -27.344,-54.855 -38.367,-83.153c11.627,29.849 22.829,48.636 39.049,78.603c15.725,29.054 36.167,46.117 52.129,61.785c3.164,3.105 7.325,3.716 11.943,3.767c-2.778,-1.082 -5.518,-2.506 -8.161,-4.279c-11.899,-7.986 -11.496,-22.935 -18.705,-33.321c-11.348,-16.351 -34.402,-36.268 -49.386,-64.785c-16.665,-31.717 -26.694,-55.237 -37.383,-83.689c11.275,30.012 22.253,48.955 38.117,79.148c15.381,29.272 35.617,46.617 51.391,62.504c3.754,3.782 8.99,3.985 14.729,3.949c-5.721,-1.369 -11.426,-4.193 -16.563,-8.494c-11.065,-9.263 -9.26,-24.118 -15.442,-35.26c-9.732,-17.541 -30.752,-39.919 -42.951,-69.985c-13.567,-33.438 -21.314,-57.979 -29.253,-87.509c8.374,31.148 17.495,51.232 30.41,83.064c11.097,27.351 26.862,45.783 40.168,61.849c-6.775,-10.501 -3.981,-23.47 -8.152,-34.437c-7.205,-18.946 -24.884,-44.487 -32.812,-76.246c-8.817,-35.323 -13.108,-60.895 -16.908,-91.446c4.008,32.225 10.263,53.595 18.656,87.221c8.137,32.601 23.687,54.885 35.266,74.561c5.9,10.025 22.096,5.897 31.84,16.953c2.532,2.872 4.646,5.986 6.337,9.235c-0.662,-4.511 -0.709,-9.308 -0.043,-14.218c2.073,-15.278 17.394,-22.411 16.891,-34.364c-0.479,-11.389 -0.524,-23.882 -1.655,-37.353l3.907,3.906c1.457,13.633 2.295,25.96 4.276,35.523c2.637,12.728 13.35,21.984 11.298,37.114c-0.777,5.727 -2.447,11.04 -4.788,15.719c3.864,-4.047 7.125,-8 7.459,-13.252c1.026,-16.118 3.146,-34.329 2.056,-54.802l3.27,3.27c1.111,21.073 -0.442,40.415 0.928,54.401c1.273,12.995 10.919,23.527 7.29,38.338c-1.365,5.567 -3.559,10.62 -6.344,14.97c5.945,-5.687 12.469,-10.027 13.409,-17.358c2.551,-19.902 6.992,-42.903 5.122,-69.946l3.124,3.124c1.669,27.215 -2.783,52.654 -2.199,70.155c0.436,13.076 9.373,24.316 4.808,38.839c-1.436,4.57 -3.429,8.736 -5.832,12.399c4.883,-4.097 9.342,-7.897 10.275,-13.748c3.704,-23.233 10.137,-50.635 6.133,-84.198c-0.481,-4.028 -0.93,-7.891 -1.359,-11.622l2.974,2.975c0.502,3.793 0.994,7.701 1.476,11.745c3.901,32.698 -3.34,64.039 -3.286,84.65c0.034,13.091 8.615,24.652 3.61,39.013c-2.261,6.487 -5.643,12.103 -9.703,16.565c6.283,-4.635 12.766,-8.139 14.42,-15.048c5.473,-22.856 13.981,-49.627 12.578,-83.484c-0.552,-13.316 -0.9,-24.831 -1.409,-35.755l1.884,1.883c1.014,11.436 1.797,23.584 2.363,37.241c1.367,32.984 -8.249,63.615 -9.78,84.19c-0.973,13.07 6.677,25.377 0.592,39.261c-2.829,6.455 -6.768,11.882 -11.314,16.017c6.677,-4.834 13.825,-8.148 15.726,-15.366c5.985,-22.715 15.09,-49.266 14.452,-83.165c-0.505,-26.799 -0.352,-46.295 -2.274,-68.412l0.376,0.376c2.574,22.075 4.134,43.668 4.657,71.48c0.622,33.025 -9.677,63.407 -11.671,83.945c-1.267,13.046 6.099,25.557 -0.294,39.282c-6.687,14.355 -18.867,23.358 -30.752,24.165c-6.586,-10.57 -7.223,-26.347 -0.537,-40.701c1.619,-3.475 3.871,-6.175 6.385,-8.453c-4.702,3.295 -9.844,5.305 -14.965,5.787c-6.826,-10.388 -7.819,-26.136 -1.455,-40.656c1.14,-2.602 2.638,-4.79 4.338,-6.7c-3.733,2.586 -7.76,4.331 -11.85,5.089c-7.612,-9.724 -9.814,-25.306 -4.579,-40.324c0.611,-1.753 1.386,-3.344 2.281,-4.808c-3.418,2.391 -7.094,4.064 -10.849,4.898c-7.91,-9.441 -10.591,-24.925 -5.817,-40.114c0.595,-1.894 1.384,-3.611 2.31,-5.19c-3.787,3.547 -8.074,6.114 -12.556,7.461c-2.406,-2.493 -4.425,-5.5 -5.998,-8.881c0.952,4.361 1.146,8.765 0.533,12.973c-2.571,1.177 -5.329,1.961 -8.193,2.347c2.681,0.553 5.328,1.524 7.85,3.217c12.444,8.352 19.313,22.173 18.663,35.013c-2.863,1.695 -6.031,2.884 -9.377,3.548c1.013,0.442 2.013,0.975 2.995,1.615c12.544,8.18 19.575,21.903 19.075,34.748c-4.894,2.983 -10.707,4.48 -16.794,4.387c2.311,0.413 4.609,1.165 6.85,2.447c12.955,7.41 20.685,20.679 20.842,33.521c-4.905,3.382 -10.876,5.235 -17.204,5.401c1.54,0.481 3.064,1.144 4.556,2.047c12.783,7.744 20.216,21.213 20.091,34.061c-3.632,2.377 -7.812,3.925 -12.266,4.589c0.592,0.267 1.182,0.568 1.767,0.904c8.784,5.053 15.155,12.8 18.381,21.273c-1.08,-8.831 0.642,-18.752 5.458,-27.888c4.08,-7.738 11.275,-11.236 17.347,-14.963c0.721,-2.594 1.46,-5.213 2.22,-7.868c-0.765,2.674 -1.481,5.279 -2.155,7.828c4.485,-2.757 8.349,-5.65 9.877,-10.485c7.07,-22.368 17.439,-48.394 18.443,-82.314c1.036,-34.987 2.587,-57.484 -0.334,-89.866c2.769,30.699 4.009,56.712 2.921,93.465c-0.978,33.045 -12.724,62.834 -15.708,83.25c-0.78,5.34 -0.096,10.671 0.487,16.029c5.103,-19.988 10.564,-37.394 17.218,-56.708c-8.04,23.339 -12.025,41.504 -16.637,63.87c0.182,5.302 -0.408,10.644 -3.263,16.058c-0.024,0.045 -0.048,0.091 -0.072,0.136c-0.349,1.684 -0.707,3.398 -1.073,5.143c-6.794,32.331 -2.235,58.565 -0.192,80.838c0.405,4.415 3.185,7.572 6.673,10.597c-1.418,-2.622 -2.588,-5.48 -3.457,-8.542c-3.912,-13.786 6.062,-24.927 7.28,-37.511c1.917,-19.811 -2.788,-49.912 4.224,-81.354c7.799,-34.969 15.359,-59.394 25.605,-88.009c-10.808,30.183 -14.684,51.731 -22.108,85.021c-7.197,32.274 -2.978,58.59 -1.221,80.909c0.419,5.313 4.281,8.853 8.681,12.537c-3.478,-4.744 -6.003,-10.588 -7.14,-17.19c-2.45,-14.221 8.533,-24.385 11.023,-36.881c3.92,-19.673 2.358,-50.336 12.495,-81.157c11.276,-34.28 21.236,-58.009 34.276,-85.667c-13.755,29.174 -19.785,50.392 -30.519,83.024c-9.222,28.039 -9.116,52.293 -9.356,73.152c1.623,-12.391 12.14,-20.477 16.05,-31.539c6.757,-19.111 9.788,-50.025 24.279,-79.377c5.38,-10.898 10.443,-20.641 15.427,-29.743l1.468,1.467c-3.973,8.052 -8.102,16.608 -12.83,26.184c-14.875,30.129 -17.425,57.183 -21.316,79.678c-1.983,11.462 13.04,18.787 13.323,33.521c0.074,3.828 -0.327,7.571 -1.138,11.142c2.412,-3.869 5.478,-7.558 9.161,-10.872c11.461,-10.313 27.76,-5.847 35.107,-15.289c12.839,-16.504 29.198,-34.896 41.403,-60.653l2.168,2.167c-12.395,26.554 -31.012,47.917 -39.934,64.291c-6.22,11.413 -4.034,25.401 -15.384,35.615c-4.296,3.866 -9.005,6.839 -13.816,8.894c5.564,-0.588 10.607,-1.494 14.259,-5.285c16.321,-16.942 37.286,-35.767 53.085,-65.484c5.058,-9.516 9.635,-17.942 13.886,-25.934l1.49,1.49c-4.319,8.985 -9.094,18.409 -14.571,28.712c-15.391,28.95 -39.274,50.548 -50.975,67.449c-7.433,10.736 -6.886,25.007 -19.232,33.957c-4.641,3.364 -9.582,5.8 -14.52,7.316c8.213,-0.493 15.996,0.416 21.453,-4.569c17.375,-15.867 39.488,-33.304 57.234,-62.022c13.716,-22.197 24.203,-38.218 34.282,-57.172l0.282,0.282c-9.559,19.448 -19.766,38.09 -34.063,61.226c-17.288,27.978 -42.49,47.994 -55.277,64.139c-8.123,10.256 -8.576,24.609 -21.449,32.735c-4.051,2.557 -8.265,4.446 -12.466,5.686c6.373,0.032 12.232,0.017 16.727,-3.843c17.85,-15.325 40.476,-32.067 59.126,-60.257c19.237,-29.076 32.372,-47.323 46.816,-76.209c-13.693,27.386 -26.254,50.027 -46.461,80.571c-18.169,27.463 -43.96,46.687 -57.247,62.443c-8.44,10.008 -9.37,24.376 -22.475,32.093c-5.92,3.486 -12.131,5.582 -18.113,6.36c7.79,0.528 15.001,2.048 20.731,-2.153c18.954,-13.894 42.756,-28.813 63.58,-55.545c21.478,-27.572 36.01,-44.787 52.728,-72.566c-15.849,26.336 -30.18,48.007 -52.743,76.971c-20.286,26.043 -47.429,43.19 -61.902,57.893c-9.194,9.34 -11.318,23.675 -24.938,30.33c-6.332,3.094 -12.846,4.686 -18.987,4.901c8.219,0.631 15.814,2.725 21.932,-1.551c19.254,-13.456 43.369,-27.821 64.803,-54.09c22.108,-27.096 37.031,-43.985 54.394,-71.403c-16.461,25.993 -31.292,47.352 -54.516,75.815c-20.881,25.592 -48.385,42.107 -63.187,56.482c-9.403,9.132 -11.875,23.439 -25.627,29.773c-14.383,6.626 -29.496,5.616 -39.083,-1.454c1.811,-12.321 11.528,-24.767 25.91,-31.393c3.482,-1.603 6.946,-2.206 10.337,-2.318c-5.718,-0.527 -10.939,-2.32 -15.158,-5.263c1.512,-12.338 10.938,-24.993 25.182,-31.953c2.553,-1.247 5.109,-1.947 7.642,-2.305c-4.52,-0.441 -8.721,-1.714 -12.33,-3.781c0.482,-12.34 8.879,-25.649 22.584,-33.72c1.599,-0.941 3.219,-1.653 4.848,-2.191c-4.153,-0.387 -8.039,-1.488 -11.442,-3.28c0.071,-12.316 8.04,-25.861 21.503,-34.36c1.679,-1.06 3.392,-1.859 5.119,-2.464c-5.183,0.256 -10.113,-0.558 -14.403,-2.429c-0.222,-3.458 0.182,-7.057 1.169,-10.653c-2.095,3.942 -4.795,7.427 -7.983,10.24c-2.723,-0.765 -5.333,-1.95 -7.767,-3.508c1.687,2.156 3.078,4.608 3.907,7.531c4.091,14.417 0.393,29.402 -8.407,38.775c-3.279,-0.559 -6.465,-1.701 -9.446,-3.357c0.486,0.991 0.905,2.044 1.24,3.169c4.279,14.35 0.767,29.365 -7.921,38.839c-5.661,-0.89 -11.064,-3.506 -15.647,-7.514c1.496,1.81 2.762,3.869 3.643,6.296c5.09,14.03 2.405,29.15 -5.78,39.047c-5.928,-0.592 -11.681,-3.04 -16.614,-7.005c0.863,1.362 1.596,2.853 2.15,4.507c4.744,14.173 1.703,29.254 -6.701,38.973c-4.307,-0.535 -8.497,-2.058 -12.323,-4.432c0.279,0.587 0.534,1.198 0.762,1.833c3.434,9.534 3.283,19.563 0.265,28.112c4.887,-7.434 12.615,-13.888 22.197,-17.742c14.148,-5.69 27.18,4.569 37.298,-1.795c19.857,-12.489 44.597,-25.636 67.298,-50.86c23.415,-26.017 39.146,-42.174 57.858,-68.762c-17.74,25.206 -33.615,45.85 -58.212,73.18c-22.116,24.574 -50.339,39.7 -65.817,53.343c-9.833,8.667 -13.045,22.884 -27.056,28.519c-11.943,4.803 -24.101,4.496 -33.151,0.108c-6.236,11.664 -34.276,60.589 -71.003,71.064c-64.255,18.326 -85.299,14.651 -127.513,42.651c-7.879,5.226 -15.863,11.532 -23.637,18.334c30.657,-5.921 58.193,-13.331 68.714,-16.499c23.465,-7.066 70.325,-23.514 75.394,-7.478c5.069,16.036 -115.668,103.741 -160.359,108.819c-44.691,5.078 -47.879,10.855 -58.448,24.949c-9.454,12.607 2.364,29.365 15.553,45.002c0.444,0.527 0.584,1.261 0.877,1.91c2.945,6.51 2.951,33.594 0.401,63.646c-1.951,22.993 -8.389,38.134 -10.17,66.304c-2.35,37.172 -28.815,81.612 -33.562,100.09c-6.524,25.401 -13.006,73.539 -17.212,89.73c-4.206,16.191 4.014,33.329 -3.363,91.504c-5.774,45.539 -38.589,55.661 -71.545,57.179l0,0.103c-0.436,-0.015 -0.871,-0.03 -1.307,-0.048c-0.436,0.018 -0.872,0.033 -1.308,0.048l0,-0.103c-32.955,-1.518 -65.77,-11.64 -71.545,-57.179c-7.376,-58.175 0.844,-75.313 -3.362,-91.504c-4.207,-16.191 -10.689,-64.329 -17.213,-89.73c-4.746,-18.478 -31.212,-62.918 -33.562,-100.09c-1.78,-28.17 -8.218,-43.311 -10.169,-66.304c-2.55,-30.052 -2.544,-57.136 0.4,-63.646c0.294,-0.649 0.434,-1.383 0.878,-1.91c13.189,-15.637 25.006,-32.395 15.552,-45.002c-10.568,-14.094 -13.757,-19.871 -58.448,-24.949c-44.69,-5.078 -165.427,-92.783 -160.358,-108.819c5.069,-16.036 51.928,0.412 75.394,7.478c10.521,3.168 38.056,10.578 68.714,16.499c-7.775,-6.802 -15.758,-13.108 -23.637,-18.334c-42.215,-28 -63.258,-24.325 -127.513,-42.651c-36.727,-10.475 -64.767,-59.4 -71.004,-71.064Zm-32.902,-262.251c0.109,0.516 0.218,1.034 0.327,1.554c6.618,31.496 1.525,61.505 3.192,81.319c1.059,12.586 10.9,23.841 6.809,37.563c-1.722,5.775 -4.516,10.806 -8.027,14.881c6.729,-5.815 15.159,-9.215 16.316,-16.96c3.29,-22.029 9.322,-47.858 4.311,-80.373c-1.318,-8.546 -2.456,-16.321 -3.566,-23.669c-7.111,-2.238 -13.985,-7.189 -19.362,-14.315Zm21.748,14.962c1.553,8.184 3.035,16.832 4.483,26.225c4.882,31.676 -1.897,61.227 -1.329,81.016c0.361,12.57 9.603,24.302 4.736,37.717c-1.325,3.652 -3.082,6.97 -5.173,9.902c6.111,-4.951 12.838,-8.569 13.702,-15.516c1.837,-14.756 4.848,-31.231 4.943,-50.184c-11.755,-43.527 -16.587,-81.032 -17.486,-88.553c-1.29,-0.11 -2.585,-0.313 -3.876,-0.607Zm24.468,100.227c-0.511,16.56 -2.287,31.357 -1.685,42.821c0.66,12.581 10.163,24.113 5.628,37.665c-0.994,2.969 -2.273,5.729 -3.785,8.249c5.113,-3.677 9.849,-7.029 10.683,-12.703c1.654,-11.259 4.022,-23.512 5.265,-37.138c-5.567,-9.835 -9.845,-18.72 -12.156,-25.952c-1.385,-4.337 -2.701,-8.659 -3.95,-12.942Zm19.291,44.39c-0.982,13.588 -2.46,25.72 -2.157,35.475c0.389,12.572 9.656,24.285 4.82,37.714c-3.73,10.358 -10.937,18.042 -19.364,21.863c5.649,11.046 28.792,51.776 68.735,64.691c46.372,14.992 63.917,2.511 63.917,2.511l-23.266,-36.029c-0,0 -61.739,-73.969 -92.685,-126.225Zm-26.832,96.64c-0.448,-0.582 -0.878,-1.181 -1.289,-1.795c0.244,0.701 0.463,1.405 0.657,2.111l0.632,-0.316Zm111.468,-401.799c-15.658,20.544 -34.385,35.392 -44.745,48.348c-7.853,9.821 -8.39,24.746 -20.778,31.831c-3.372,1.929 -6.858,3.323 -10.348,4.208c7.862,0.176 15.332,1.766 20.485,-2.974c15.597,-14.35 35.273,-29.82 51.412,-55.748c0.903,-8.251 2.108,-16.895 3.974,-25.665Zm-4.631,32.097c-15.908,24.477 -37.177,41.652 -48.297,56.256c-7.632,10.024 -7.84,24.966 -20.064,32.369c-2.678,1.623 -5.438,2.9 -8.221,3.845c6.277,0.502 12.058,1.007 16.363,-2.781c16.723,-14.717 37.993,-30.57 55.137,-58.655c0.853,-1.399 1.694,-2.772 2.522,-4.122c0.985,-7.943 1.618,-17.078 2.56,-26.912Zm-3.593,33.92c-0.341,0.561 -0.685,1.125 -1.031,1.692c-16.701,27.36 -40.943,45.578 -53.274,61.07c-7.832,9.841 -8.338,24.768 -20.711,31.884c-8.228,4.733 -17.143,6.277 -25.147,4.988c0.127,4.5 1.636,38.882 18.749,86.389c-4.796,-31.091 -7.419,-52.161 -15.874,-81.479c8.385,29.076 14.352,53.816 19.862,89.04c0.243,1.551 0.457,3.096 0.646,4.636c0.99,2.476 2.021,4.98 3.097,7.512c26.004,61.236 68.679,99.375 68.679,99.375c0,-0 9.069,9.156 3.132,-79.703c-5.114,-76.539 7.37,-142.694 10.05,-155.747c-9.683,-5.036 -17.314,-16.192 -19.409,-30.286c-2.22,-14.938 8.424,-24.896 10.931,-37.76c0.104,-0.529 0.203,-1.066 0.3,-1.611Zm-112.565,91.869c0.019,-0.203 0.04,-0.407 0.064,-0.611c-0.046,0.117 -0.091,0.234 -0.138,0.35c0.025,0.087 0.049,0.174 0.074,0.261Zm-0.379,0.479c-0.325,0.76 -0.676,1.502 -1.053,2.224l1.711,0.564c-0.014,-0.057 -0.027,-0.115 -0.04,-0.173c-0.131,-0.086 -0.261,-0.173 -0.39,-0.262c0.005,-0.413 0.017,-0.828 0.037,-1.242c-0.088,-0.37 -0.176,-0.74 -0.265,-1.111Zm160.449,-226.135c-8.607,17.47 -17.968,34.555 -30.621,55.18c-1.396,2.274 -2.843,4.485 -4.331,6.636c-2.063,8.608 -3.389,16.881 -4.259,24.818c10.178,-17.432 18.457,-31.063 26.196,-45.805c1.83,-8.659 4.2,-17.528 7.469,-26.307c1.884,-5.059 3.727,-9.885 5.546,-14.522Zm-19.407,81.511c1.624,-11.155 3.079,-24.086 5.766,-37.625c-7.383,15.481 -15.566,31.031 -26.199,49.336c-0.708,8.617 -0.948,16.814 -1.109,24.587c8.04,-13.034 14.948,-24.221 21.542,-36.298Zm280.066,-216.52c-7.893,14.099 -16.609,28.443 -27.575,45.099c-18.002,27.34 -43.144,45.582 -56.218,61.071c-7.568,8.966 -9.229,22.128 -19.1,29.792c17.877,-10.751 38.858,-22.919 58.389,-45.05c17.648,-19.997 30.792,-34.069 44.315,-51.819c-3.824,-5.342 -7.624,-10.793 -11.518,-16.48c4.009,5.855 7.874,11.193 11.707,16.232c3.833,-5.039 7.698,-10.377 11.706,-16.232c-3.893,5.687 -7.693,11.138 -11.518,16.48c13.523,17.75 26.667,31.822 44.315,51.819c19.532,22.131 40.513,34.299 58.39,45.05c-9.871,-7.664 -11.532,-20.826 -19.1,-29.792c-13.075,-15.489 -38.217,-33.731 -56.218,-61.071c-10.966,-16.656 -19.682,-31 -27.575,-45.099Zm-0,39.357c-13.084,18.261 -26.477,35.275 -44.885,56.132c-21.47,24.327 -48.717,38.478 -63.71,51.805c-9.524,8.465 -12.742,23.079 -26.251,28.154c-6.271,2.356 -12.59,3.13 -18.442,2.527c5.403,1.935 10.411,3.478 15.206,1.153c20.146,-9.765 44.985,-19.426 69.195,-41.95c24.971,-23.233 41.605,-37.47 62.185,-62.052c-19.511,23.305 -36.765,42.175 -62.996,66.58c-23.585,21.943 -51.935,33.098 -68.06,44.766c-10.242,7.412 -14.814,21.65 -28.687,25.243c-3.081,0.798 -6.138,1.233 -9.118,1.334c4.374,1.481 8.503,2.284 12.517,0.402c20.251,-9.495 45.191,-18.823 69.654,-41.026c25.231,-22.902 42.024,-36.918 62.883,-61.229c-19.775,23.048 -37.242,41.69 -63.747,65.747c-23.832,21.631 -52.299,32.405 -68.552,43.859c-10.325,7.275 -15.062,21.456 -28.97,24.862c-5.854,1.433 -11.609,1.566 -16.901,0.595c8.421,2.866 15.616,8.423 22.885,5.506c20.67,-8.297 46.006,-16.147 71.528,-36.907c26.324,-21.412 43.781,-34.436 65.82,-57.517c-20.894,21.882 -39.261,39.494 -66.914,61.986c-24.863,20.224 -53.788,29.313 -70.576,39.805c-10.663,6.665 -16.114,20.57 -30.15,23.151c-3.821,0.703 -7.572,0.864 -11.159,0.542c7.361,2.77 13.883,6.746 20.315,3.98c20.497,-8.814 45.673,-17.302 70.749,-38.689c25.865,-22.06 43.043,-35.515 64.583,-59.133c-20.421,22.391 -38.408,40.452 -65.578,63.625c-24.43,20.835 -53.169,30.651 -69.734,41.56c-10.522,6.93 -15.668,20.958 -29.654,23.895c-3.065,0.643 -6.092,0.935 -9.031,0.904c5.757,2.553 11.044,4.945 16.361,2.796c20.654,-8.346 45.975,-16.257 71.454,-37.077c26.281,-21.475 43.712,-34.54 65.704,-57.674c-20.849,21.932 -39.18,39.587 -66.788,62.145c-24.822,20.283 -53.73,29.441 -70.497,39.974c-10.65,6.69 -16.072,20.607 -30.104,23.222c-8.968,1.672 -17.559,0.355 -24.539,-3.183c-1.967,15.243 -13.244,108.604 -3.579,175.347c10.553,72.876 54.265,127.487 131.552,177.67c36.99,24.019 56.246,36.735 66.269,43.467c37.321,-13.977 44.856,-18.89 53.775,-27.705c8.527,-8.426 22.751,-10.542 34.679,-10.91l0,-0.056c0.557,0.002 1.115,0.006 1.676,0.015c0.315,-0.007 0.628,-0.011 0.939,-0.015l0,0.031c12.613,0.276 26.115,2.472 34.679,10.935c8.92,8.815 16.455,13.728 53.776,27.705c10.023,-6.732 29.278,-19.448 66.269,-43.467c77.287,-50.183 120.999,-104.794 131.552,-177.67c9.664,-66.743 -1.613,-160.104 -3.58,-175.347c-6.98,3.538 -15.571,4.855 -24.539,3.183c-14.031,-2.615 -19.453,-16.532 -30.104,-23.222c-16.766,-10.533 -45.674,-19.691 -70.497,-39.974c-27.607,-22.558 -45.938,-40.213 -66.787,-62.145c21.991,23.134 39.422,36.199 65.703,57.674c25.48,20.82 50.801,28.731 71.455,37.077c5.317,2.149 10.604,-0.243 16.361,-2.796c-2.94,0.031 -5.967,-0.261 -9.031,-0.904c-13.986,-2.937 -19.133,-16.965 -29.655,-23.895c-16.564,-10.909 -45.304,-20.725 -69.733,-41.56c-27.17,-23.173 -45.158,-41.234 -65.579,-63.625c21.54,23.618 38.719,37.073 64.584,59.133c25.076,21.387 50.251,29.875 70.749,38.689c6.432,2.766 12.954,-1.21 20.314,-3.98c-3.586,0.322 -7.337,0.161 -11.158,-0.542c-14.036,-2.581 -19.487,-16.486 -30.151,-23.151c-16.787,-10.492 -45.712,-19.581 -70.576,-39.805c-27.652,-22.492 -46.019,-40.104 -66.913,-61.986c22.039,23.081 39.496,36.105 65.82,57.517c25.522,20.76 50.857,28.61 71.527,36.907c7.269,2.917 14.465,-2.64 22.885,-5.506c-5.291,0.971 -11.046,0.838 -16.901,-0.595c-13.907,-3.406 -18.645,-17.587 -28.969,-24.862c-16.254,-11.454 -44.721,-22.228 -68.552,-43.859c-26.505,-24.057 -43.972,-42.699 -63.747,-65.747c20.859,24.311 37.652,38.327 62.883,61.229c24.462,22.203 49.403,31.531 69.653,41.026c4.014,1.882 8.144,1.079 12.517,-0.402c-2.979,-0.101 -6.037,-0.536 -9.117,-1.334c-13.873,-3.593 -18.445,-17.831 -28.687,-25.243c-16.125,-11.668 -44.475,-22.823 -68.061,-44.766c-26.231,-24.405 -43.484,-43.275 -62.995,-66.58c20.58,24.582 37.214,38.819 62.184,62.052c24.21,22.524 49.049,32.185 69.195,41.95c4.796,2.325 9.803,0.782 15.206,-1.153c-5.852,0.603 -12.17,-0.171 -18.442,-2.527c-13.509,-5.075 -16.726,-19.689 -26.25,-28.154c-14.994,-13.327 -42.241,-27.478 -63.71,-51.805c-18.408,-20.857 -31.801,-37.871 -44.885,-56.132Zm-294.838,299.982c0.337,-0.88 0.714,-1.748 1.128,-2.602c-0.613,0.72 -1.251,1.407 -1.913,2.059l0.785,0.543Zm-6.87,-81.353c-0.064,3.387 -0.13,6.688 -0.231,9.905c-0.377,11.946 15.062,18.006 17.304,33.089c1.518,10.216 -0.144,20.148 -4.089,28.122c5.851,-6.926 14.428,-12.126 24.391,-13.983c0.663,-0.124 1.319,-0.212 1.967,-0.268c-3.983,-2.102 -7.415,-4.947 -10.054,-8.393c4.138,-12.164 15.614,-22.411 30.24,-25.482c1.708,-0.358 3.365,-0.479 4.977,-0.423c-5.915,-2.252 -10.935,-5.978 -14.443,-10.794c4.402,-12.065 16.091,-22.025 30.77,-24.724c2.539,-0.467 4.956,-0.415 7.274,-0.04c-5.775,-1.929 -10.763,-5.267 -14.393,-9.703c3.783,-12.285 14.964,-22.904 29.509,-26.466c1.139,-0.279 2.259,-0.45 3.361,-0.532c-2.937,-1.735 -5.532,-3.906 -7.672,-6.454c3.64,-12.33 14.7,-23.096 29.208,-26.853c2.941,-0.762 5.76,-0.802 8.473,-0.436c-2.575,-1.313 -4.917,-2.965 -6.953,-4.928c0.816,-4.173 2.458,-8.265 4.801,-12.065c-2.604,2.67 -5.505,4.838 -8.602,6.394c-3.783,-2.756 -6.977,-6.598 -9.376,-11.2c0.351,1.797 0.527,3.678 0.461,5.663c-0.527,15.912 -8.187,29.634 -18.778,35.921c-3.266,-2.03 -6.18,-4.827 -8.613,-8.214c0.359,1.677 0.564,3.435 0.559,5.291c-0.036,15.905 -7.276,29.877 -17.678,36.531c-3.609,-2.07 -6.831,-5.052 -9.496,-8.73c0.971,2.367 1.66,4.927 1.874,7.761c1.195,15.808 -4.96,30.338 -14.841,37.879c-4.673,-2.153 -8.859,-5.752 -12.205,-10.42c1.619,2.983 2.85,6.277 3.226,10.092c1.553,15.759 -4.274,30.434 -13.99,38.225c-10.947,-4.699 -19.457,-17.228 -21.01,-32.987c-1.486,-15.069 9.609,-24.433 12.735,-37.162c1.024,-4.166 1.849,-8.854 2.619,-13.943c-6.301,12.674 -13.087,25.282 -21.325,39.327Zm582.091,-39.327c0.769,5.089 1.595,9.777 2.618,13.943c3.127,12.729 14.221,22.093 12.736,37.162c-1.554,15.759 -10.064,28.288 -21.01,32.987c-9.716,-7.791 -15.544,-22.466 -13.99,-38.225c0.376,-3.815 1.607,-7.109 3.225,-10.092c-3.345,4.668 -7.531,8.267 -12.204,10.42c-9.882,-7.541 -16.036,-22.071 -14.842,-37.879c0.214,-2.834 0.903,-5.394 1.875,-7.761c-2.666,3.678 -5.887,6.66 -9.496,8.73c-10.403,-6.654 -17.643,-20.626 -17.679,-36.531c-0.004,-1.856 0.201,-3.614 0.56,-5.291c-2.433,3.387 -5.347,6.184 -8.614,8.214c-10.591,-6.287 -18.25,-20.009 -18.777,-35.921c-0.066,-1.985 0.11,-3.866 0.46,-5.663c-2.398,4.602 -5.592,8.444 -9.375,11.2c-3.097,-1.556 -5.998,-3.724 -8.602,-6.394c2.343,3.8 3.985,7.892 4.801,12.065c-2.036,1.963 -4.379,3.615 -6.954,4.928c2.714,-0.366 5.533,-0.326 8.474,0.436c14.508,3.757 25.568,14.523 29.208,26.853c-2.141,2.548 -4.736,4.719 -7.672,6.454c1.101,0.082 2.221,0.253 3.361,0.532c14.545,3.562 25.725,14.181 29.509,26.466c-3.63,4.436 -8.619,7.774 -14.393,9.703c2.318,-0.375 4.735,-0.427 7.273,0.04c14.679,2.699 26.368,12.659 30.771,24.724c-3.508,4.816 -8.528,8.542 -14.444,10.794c1.613,-0.056 3.27,0.065 4.977,0.423c14.627,3.071 26.102,13.318 30.24,25.482c-2.639,3.446 -6.071,6.291 -10.053,8.393c0.648,0.056 1.303,0.144 1.967,0.268c9.962,1.857 18.54,7.057 24.391,13.983c-3.945,-7.974 -5.607,-17.906 -4.089,-28.122c2.242,-15.083 17.68,-21.143 17.304,-33.089c-0.101,-3.217 -0.167,-6.518 -0.231,-9.905c-8.239,-14.045 -15.025,-26.653 -21.325,-39.327Zm27.781,50.137c0.096,0.545 0.196,1.082 0.299,1.611c2.508,12.864 13.151,22.822 10.931,37.76c-2.094,14.094 -9.725,25.25 -19.408,30.286c2.679,13.053 15.164,79.208 10.05,155.747c-5.937,88.859 3.131,79.703 3.131,79.703c0,-0 42.676,-38.139 68.68,-99.375c1.075,-2.532 2.107,-5.036 3.097,-7.512c0.188,-1.54 0.403,-3.085 0.646,-4.636c5.509,-35.224 11.477,-59.964 19.862,-89.04c-8.455,29.318 -11.078,50.388 -15.874,81.479c17.112,-47.507 18.622,-81.889 18.748,-86.389c-8.004,1.289 -16.918,-0.255 -25.147,-4.988c-12.372,-7.116 -12.878,-22.043 -20.711,-31.884c-12.33,-15.492 -36.572,-33.71 -53.274,-61.07c-0.346,-0.567 -0.689,-1.131 -1.03,-1.692Zm-12.541,70c-0.662,-0.652 -1.3,-1.339 -1.913,-2.059c0.414,0.854 0.79,1.722 1.128,2.602l0.785,-0.543Zm-21.323,-159.901c2.686,13.539 4.142,26.47 5.766,37.625c6.593,12.077 13.502,23.264 21.541,36.298c-0.16,-7.773 -0.401,-15.97 -1.108,-24.587c-10.633,-18.305 -18.816,-33.855 -26.199,-49.336Zm-13.641,-43.886c1.818,4.637 3.662,9.463 5.546,14.522c3.269,8.779 5.639,17.648 7.469,26.307c7.739,14.742 16.018,28.373 26.195,45.805c-0.869,-7.937 -2.195,-16.21 -4.258,-24.818c-1.489,-2.151 -2.936,-4.362 -4.331,-6.636c-12.653,-20.625 -22.014,-37.71 -30.621,-55.18Zm167.675,228.312c-1.291,0.294 -2.585,0.497 -3.875,0.607c-0.899,7.521 -5.732,45.026 -17.486,88.553c0.094,18.953 3.106,35.428 4.942,50.184c0.865,6.947 7.592,10.565 13.702,15.516c-2.09,-2.932 -3.847,-6.25 -5.172,-9.902c-4.867,-13.415 4.375,-25.147 4.735,-37.717c0.568,-19.789 -6.211,-49.34 -1.328,-81.016c1.447,-9.393 2.929,-18.041 4.482,-26.225Zm-6.173,0.047c-0.377,-0.722 -0.729,-1.464 -1.053,-2.224c-0.089,0.371 -0.177,0.741 -0.265,1.111c0.02,0.414 0.032,0.829 0.036,1.242c-0.129,0.089 -0.259,0.176 -0.389,0.262c-0.013,0.058 -0.027,0.116 -0.04,0.173l1.711,-0.564Zm-1.359,-2.964c-0.046,-0.116 -0.092,-0.233 -0.137,-0.35c0.023,0.204 0.045,0.408 0.064,0.611c0.024,-0.087 0.049,-0.174 0.073,-0.261Zm-113.672,-98.616c0.829,1.35 1.669,2.723 2.523,4.122c17.144,28.085 38.414,43.938 55.137,58.655c4.305,3.788 10.085,3.283 16.363,2.781c-2.784,-0.945 -5.543,-2.222 -8.221,-3.845c-12.224,-7.403 -12.433,-22.345 -20.065,-32.369c-11.12,-14.604 -32.388,-31.779 -48.297,-56.256c0.943,9.834 1.575,18.969 2.56,26.912Zm-3.217,-33.344c16.139,25.928 35.816,41.398 51.413,55.748c5.152,4.74 12.623,3.15 20.485,2.974c-3.49,-0.885 -6.976,-2.279 -10.348,-4.208c-12.388,-7.085 -12.925,-22.01 -20.779,-31.831c-10.36,-12.956 -29.086,-27.804 -44.744,-48.348c1.866,8.77 3.07,17.414 3.973,25.665Zm146.17,119.915c-5.377,7.126 -12.251,12.077 -19.362,14.315c-1.11,7.348 -2.249,15.123 -3.566,23.669c-5.012,32.515 1.021,58.344 4.311,80.373c1.156,7.745 9.587,11.145 16.316,16.96c-3.511,-4.075 -6.305,-9.106 -8.027,-14.881c-4.092,-13.722 5.75,-24.977 6.808,-37.563c1.667,-19.814 -3.426,-49.823 3.192,-81.319c0.11,-0.52 0.219,-1.038 0.328,-1.554Zm-38.043,256.535c0.193,-0.706 0.412,-1.41 0.656,-2.111c-0.411,0.614 -0.84,1.213 -1.288,1.795l0.632,0.316Zm-10.763,-1.904c-8.427,-3.821 -15.635,-11.505 -19.365,-21.863c-4.836,-13.429 4.432,-25.142 4.821,-37.714c0.302,-9.755 -1.175,-21.887 -2.157,-35.475c-30.947,52.256 -92.685,126.225 -92.685,126.225l-23.266,36.029c-0,0 17.545,12.481 63.917,-2.511c39.942,-12.915 63.085,-53.645 68.735,-64.691Zm-13.516,-100.548c1.242,13.626 3.61,25.879 5.265,37.138c0.834,5.674 5.57,9.026 10.683,12.703c-1.513,-2.52 -2.791,-5.28 -3.785,-8.249c-4.536,-13.552 4.967,-25.084 5.628,-37.665c0.602,-11.464 -1.174,-26.261 -1.685,-42.821c-1.249,4.283 -2.565,8.605 -3.951,12.942c-2.31,7.232 -6.589,16.117 -12.155,25.952Zm131.302,-140.633c-2.898,4.604 -6.59,8.48 -10.822,11.29c-0.428,-0.196 -0.851,-0.404 -1.269,-0.622c0.291,0.906 0.526,1.851 0.697,2.841c1.163,6.757 0.729,13.469 -0.997,19.579c3.278,-6.192 8.267,-12.026 14.72,-16.704c1.518,-1.1 3.081,-1.973 4.671,-2.672c-2.534,-0.114 -4.983,-0.516 -7.296,-1.21c-0.726,-3.958 -0.613,-8.204 0.296,-12.502Zm-29.674,-18.942c-0.011,0.552 -0.024,1.1 -0.037,1.647c-0.047,1.939 0.372,3.692 1.115,5.335c-0.536,-2.234 -0.902,-4.568 -1.078,-6.982Zm-349.836,-219.713c2.508,4.828 3.986,9.973 4.271,15.045c-0.385,0.27 -0.778,0.531 -1.177,0.781c0.928,0.207 1.863,0.482 2.803,0.835c6.419,2.411 11.99,6.179 16.39,10.757c-3.686,-5.959 -6.198,-13.212 -6.973,-21.145c-0.182,-1.866 -0.145,-3.656 0.056,-5.382c-1.379,2.129 -2.964,4.04 -4.732,5.685c-3.783,-1.375 -7.389,-3.619 -10.638,-6.576Zm-31.346,16.029c0.471,0.289 0.94,0.577 1.405,0.865c1.65,1.022 3.375,1.546 5.168,1.736c-2.199,-0.667 -4.399,-1.532 -6.573,-2.601Zm-247.76,-16.029c-3.249,2.957 -6.856,5.201 -10.638,6.576c-1.768,-1.645 -3.353,-3.556 -4.732,-5.685c0.2,1.726 0.237,3.516 0.055,5.382c-0.774,7.933 -3.287,15.186 -6.973,21.145c4.4,-4.578 9.972,-8.346 16.39,-10.757c0.941,-0.353 1.875,-0.628 2.804,-0.835c-0.4,-0.25 -0.792,-0.511 -1.178,-0.781c0.285,-5.072 1.763,-10.217 4.272,-15.045Zm31.345,16.029c-2.173,1.069 -4.373,1.934 -6.573,2.601c1.794,-0.19 3.519,-0.714 5.168,-1.736c0.466,-0.288 0.934,-0.576 1.405,-0.865Zm-410.856,222.626c0.909,4.298 1.023,8.544 0.297,12.502c-2.313,0.694 -4.763,1.096 -7.296,1.21c1.59,0.699 3.153,1.572 4.671,2.672c6.453,4.678 11.441,10.512 14.719,16.704c-1.725,-6.11 -2.16,-12.822 -0.996,-19.579c0.171,-0.99 0.406,-1.935 0.697,-2.841c-0.418,0.218 -0.841,0.426 -1.269,0.622c-4.232,-2.81 -7.924,-6.686 -10.823,-11.29Zm29.675,-18.942c-0.177,2.414 -0.542,4.748 -1.078,6.982c0.742,-1.643 1.162,-3.396 1.114,-5.335c-0.013,-0.547 -0.025,-1.095 -0.036,-1.647Zm472.227,979.979c-0,0 -5.146,0.621 -9.671,-1.105c-6.065,-2.314 -9.369,-10.871 -11.477,-17.296c-3.633,-11.068 -2.316,-32.658 -14.675,-29.604c-12.602,3.114 -3.244,22.831 -0.219,29.804c4.925,11.354 9.82,20.339 23.19,22.411c9.306,1.442 12.852,-4.21 12.852,-4.21Zm31.693,-0.167c0,-0 3.546,5.651 12.852,4.209c13.37,-2.071 18.265,-11.057 23.191,-22.411c3.025,-6.973 12.383,-26.69 -0.22,-29.804c-12.359,-3.054 -11.042,18.536 -14.674,29.604c-2.109,6.425 -5.413,14.982 -11.478,17.296c-4.525,1.726 -9.671,1.106 -9.671,1.106Zm-121.781,-320.476c0,-0 33.204,-3.382 38.661,-26.953c4.206,-18.168 -12.368,-31.588 -25.215,-47.377c-12.846,-15.79 -22.393,-14.514 -22.393,-14.514c0,0 -3.378,24.239 4.422,36.574c8.667,13.707 23.285,5.648 25.873,24.348c1.964,14.19 -21.348,27.922 -21.348,27.922Zm211.869,-0c0,-0 -23.311,-13.732 -21.347,-27.922c2.588,-18.7 17.206,-10.641 25.872,-24.348c7.8,-12.335 4.422,-36.574 4.422,-36.574c-0,0 -9.547,-1.276 -22.393,14.514c-12.846,15.789 -29.42,29.209 -25.214,47.377c5.457,23.571 38.66,26.953 38.66,26.953Zm241.349,-894.741c0.767,5.386 0.457,10.73 -0.955,15.61c-0.453,0.127 -0.909,0.242 -1.369,0.346c0.807,0.503 1.598,1.072 2.368,1.717c5.258,4.401 9.266,9.802 11.901,15.578c-1.504,-6.843 -1.471,-14.519 0.426,-22.26c0.446,-1.821 1.074,-3.497 1.835,-5.059c-2.006,1.552 -4.135,2.829 -6.348,3.795c-3.113,-2.549 -5.772,-5.862 -7.858,-9.727Zm-34.884,4.741c0.348,0.428 0.694,0.854 1.037,1.28c1.218,1.509 2.671,2.575 4.3,3.349c-1.854,-1.358 -3.641,-2.902 -5.337,-4.629Zm-657.052,-4.741c-2.086,3.865 -4.745,7.178 -7.858,9.727c-2.214,-0.966 -4.342,-2.243 -6.348,-3.795c0.76,1.562 1.389,3.238 1.835,5.059c1.897,7.741 1.929,15.417 0.425,22.26c2.636,-5.776 6.644,-11.177 11.901,-15.578c0.771,-0.645 1.562,-1.214 2.369,-1.717c-0.46,-0.104 -0.917,-0.219 -1.37,-0.346c-1.411,-4.88 -1.721,-10.224 -0.954,-15.61Zm34.884,4.741c-1.696,1.727 -3.484,3.271 -5.337,4.629c1.628,-0.774 3.082,-1.84 4.3,-3.349c0.343,-0.426 0.689,-0.852 1.037,-1.28Zm287.765,515.663l-97.737,0l0,-15.154c4.093,-0.045 7.413,-6.721 7.442,-14.958l-0,-240.636c-0.029,-8.237 -3.349,-14.913 -7.442,-14.958l0,-15.174l97.737,0l0,15.173c-4.13,0.001 -7.484,6.751 -7.484,15.067c0,0.515 0.013,1.024 0.038,1.525l0,239.003c0.029,8.24 3.351,14.917 7.446,14.958l0,15.154Zm144.375,0l-97.738,0l0,-15.154c4.094,-0.045 7.413,-6.721 7.442,-14.958l0,-97.81l-42.917,0l-0,-48.995l42.917,0l0,-93.831c-0.029,-8.237 -3.348,-14.913 -7.442,-14.958l0,-15.174l97.738,0l-0,15.173c-4.131,0.001 -7.484,6.751 -7.484,15.067c-0,0.515 0.013,1.024 0.038,1.525l-0,239.003c0.028,8.24 3.35,14.917 7.445,14.958l0.001,15.154Zm-477.453,493.708l-90.723,-0l0,-15.154c4.093,-0.046 7.413,-6.721 7.442,-14.959l-0,-240.635c-0.029,-8.238 -3.349,-14.913 -7.442,-14.959l0,-15.173l90.723,-0l0,300.88Zm807.049,-198.797l-83.676,0l0,-30.495c0,-16.741 -2.301,-30.507 -18.663,-31.975l-0,-46.556l14.864,-0c48.33,-0 87.568,39.238 87.568,87.567l-0.093,21.459Zm-87.475,191.854l-14.864,-0l-0,-52.88c16.362,-1.469 18.663,-15.234 18.663,-31.976l0,-28.026l83.679,0l0.09,25.314c-0,48.33 -39.237,87.567 -87.568,87.568Zm-34.339,-0l-14.864,-0c-48.33,-0 -87.568,-39.238 -87.568,-87.568l0.238,-62.872l-0.238,-62.873c0,-48.329 39.237,-87.567 87.568,-87.567l14.864,-0l-0,46.556c-16.362,1.468 -18.663,15.234 -18.663,31.975l-0,137.493c-0,16.742 2.301,30.507 18.663,31.976l-0,52.88Zm-636.56,-247.089l-30.551,0l-0,-46.848l47.639,-0c46.914,-0 85.002,37.056 85.002,82.699c0,25.047 -11.469,47.508 -29.572,62.679c18.103,16.227 29.572,40.252 29.572,67.043c0,48.821 -38.087,88.458 -85.002,88.459l-47.639,-0l-0,-52.691l31.364,0c15.625,-1.847 17.85,-15.431 17.85,-31.891l-0,-11.422c-0,-16.544 -2.247,-30.181 -18.088,-31.918l-31.126,-0l-0,-48.995l30.551,-0l-0,-0.124c16.362,-1.468 18.663,-15.234 18.663,-31.975l-0,-13.015c-0,-16.741 -2.301,-30.507 -18.663,-31.975l-0,-0.026Z" style="fill:white;"/>
        <g>
            <path d="M584.063,447.304l-145.301,0l-0,-22.528l-0,-0c6.085,-0.068 11.02,-9.992 11.063,-22.238l-0,-0.001l-0,-357.741l-0,-0c-0.043,-12.247 -4.978,-22.17 -11.063,-22.238l-0,-0.001l-0,-22.557l145.301,0l-0,22.557c-6.141,0.001 -11.126,10.037 -11.126,22.398c-0,0.766 0.019,1.523 0.056,2.269l0,355.313l0.001,0.001c0.042,12.25 4.981,22.177 11.069,22.238l-0,0l-0,22.528Zm214.635,0l-145.302,0l0,-22.528l0,-0c6.086,-0.068 11.021,-9.992 11.063,-22.238l0.001,-0.001l-0,-145.408l-63.804,-0l-0,-72.839l63.804,-0l-0,-139.494l-0.001,-0c-0.042,-12.247 -4.977,-22.17 -11.063,-22.238l0,-0.001l0,-22.557l145.302,0l-0,22.557c-6.141,0.001 -11.126,10.037 -11.126,22.398c-0,0.766 0.019,1.523 0.056,2.269l0,355.313l0,0.001c0.043,12.25 4.981,22.177 11.069,22.238l0.001,0l-0,22.528Z" style="fill:white;"/>
            <path d="M2405.83,447.304l-22.098,0c-71.85,0 -130.183,-58.333 -130.183,-130.182l0.353,-93.47l-0.353,-93.469c0,-71.85 58.332,-130.182 130.183,-130.183l22.098,0l-0,69.212c-24.325,2.183 -27.746,22.648 -27.746,47.537l0,204.405c0,24.888 3.421,45.353 27.746,47.536l-0,78.614Zm48.888,-447.304c71.85,0.001 130.182,58.333 130.182,130.183l-0.353,93.469l0.353,93.47c0,71.849 -58.333,130.182 -130.182,130.182l-22.099,0l0,-78.614c24.325,-2.183 27.746,-22.648 27.746,-47.536l0,-204.405c0,-24.889 -3.421,-45.354 -27.746,-47.537l0,-69.212l22.099,0Z" style="fill:white;"/>
            <path d="M3144,447.304l-134.873,0l-0,-22.528l-0,-0c6.085,-0.068 11.02,-9.992 11.063,-22.238l0,-0.001l0,-357.741l-0,-0c-0.043,-12.247 -4.978,-22.17 -11.063,-22.238l-0,-0.001l-0,-22.557l134.873,0l0,447.304Zm72.363,-377.656l-45.419,-0l-0,-69.648l70.824,0c69.744,0 126.368,55.09 126.368,122.946l0,192.851c0,72.58 -56.623,131.506 -126.368,131.507l-70.824,0l-0,-78.332l46.627,-0c23.23,-2.747 26.538,-22.941 26.538,-47.411l-0,-204.339c-0,-24.889 -3.422,-45.353 -27.746,-47.536l-0,-0.038Z" style="fill:white;"/>
            <path d="M1371.54,69.648l-45.419,-0l-0,-69.648l70.824,0c69.744,0 126.368,55.09 126.368,122.946c0,37.235 -17.051,70.627 -43.964,93.181c26.913,24.124 43.964,59.841 43.964,99.67c0,2.393 0.086,86.74 0.086,86.74l-0,0.001c0.042,12.25 4.981,22.177 11.069,22.238l0,0l0,22.528l-146.722,0l0,-22.528l0.001,-0c6.085,-0.068 11.02,-9.992 11.063,-22.238l-0,-0.001l0.002,-97.957c0,-24.594 -2.867,-44.868 -26.417,-47.451l-46.274,-0l-0,-72.839l45.419,-0l-0,-0.183c24.324,-2.183 27.746,-22.648 27.746,-47.537l-0,-19.348c-0,-24.889 -3.422,-45.353 -27.746,-47.536l-0,-0.038Zm-72.363,377.656l-134.873,0l-0,-22.528l-0,-0c6.085,-0.068 11.02,-9.992 11.063,-22.238l0,-0.001l0,-357.741l-0,-0c-0.043,-12.247 -4.978,-22.17 -11.063,-22.238l-0,-0.001l-0,-22.557l134.873,0l0,447.304Z" style="fill:white;"/>
            <path d="M2815.94,69.648l-45.419,-0l0,-69.648l70.824,0c69.745,0 126.368,55.09 126.368,122.946c0,37.235 -17.05,70.627 -43.964,93.181c26.914,24.124 43.964,59.841 43.964,99.67c0,2.393 0.086,86.74 0.086,86.74l0,0.001c0.043,12.25 4.981,22.177 11.069,22.238l0,0l0,22.528l-146.721,0l-0,-22.528l0,-0c6.085,-0.068 11.02,-9.992 11.063,-22.238l0,-0.001l0.003,-97.957c-0,-24.594 -2.868,-44.868 -26.418,-47.451l-46.274,-0l0,-72.839l45.419,-0l0,-0.183c24.325,-2.183 27.746,-22.648 27.746,-47.537l0,-19.348c-0,-24.889 -3.421,-45.353 -27.746,-47.536l0,-0.038Zm-72.362,377.656l-134.874,0l0,-22.528l0,-0c6.086,-0.068 11.021,-9.992 11.063,-22.238l0.001,-0.001l-0,-357.741l-0.001,-0c-0.042,-12.247 -4.977,-22.17 -11.063,-22.238l0,-0.001l0,-22.557l134.874,0l-0,447.304Z" style="fill:white;"/>
            <path d="M2076.9,447.304l-134.874,0l0,-22.528l0,-0c6.086,-0.068 11.021,-9.992 11.063,-22.238l0,-0.001l0,-357.741l0,-0c-0.042,-12.247 -4.977,-22.17 -11.063,-22.238l0,-0.001l0,-22.557l134.874,-0l-0,447.304Zm131.83,-179.458l-22.557,-0c-0.001,-5.541 -8.173,-10.142 -18.852,-10.987l-63.4,-0l-0,-72.668l63.4,0c10.679,-0.845 18.851,-5.446 18.852,-10.987l22.557,0l-0,94.642Zm27.6,-235.159l0.256,-0l-0,47.948l-22.558,-0c0,-5.541 -8.172,-10.142 -18.851,-10.987l-91.512,-0l-0,-69.648l132.665,-0l-0,32.687Z" style="fill:white;"/>
            <path d="M976.288,447.304l-134.874,0l0,-22.528l0,-0c6.086,-0.068 11.021,-9.992 11.063,-22.238l0.001,-0.001l-0,-357.741l-0.001,-0c-0.042,-12.247 -4.977,-22.17 -11.063,-22.238l0,-0.001l0,-22.557l134.874,0l-0,447.304Zm150.218,-0.107l-123.197,-0l-0,-78.332l81.788,-0c10.679,-0.846 18.851,-5.446 18.851,-10.987l22.558,-0l-0,89.319Zm-27.856,-179.351l-22.557,-0c-0,-5.541 -8.173,-10.142 -18.852,-10.987l-53.932,-0l-0,-72.668l53.932,0c10.679,-0.845 18.852,-5.446 18.852,-10.987l22.557,0l-0,94.642Zm27.856,-187.211l-22.558,-0c0,-5.541 -8.172,-10.142 -18.851,-10.987l-82.044,-0l-0,-69.648l123.197,0l-0,32.687l0.256,-0l-0,47.948Z" style="fill:white;"/>
            <path d="M1533.58,0l250.119,0l0,407.679c1.189,9.792 5.58,17.068 10.808,17.068l0,22.557l-145.681,0l-0,-22.528l-0,-0c6.085,-0.068 11.02,-9.992 11.063,-22.238l-0,-0.001l-0,-332.889l-85.157,-0c-10.679,0.845 -18.851,5.446 -18.851,10.987l-22.557,-0l-0,-47.948l0.256,-0l-0,-32.687Zm376.667,80.635l-22.557,-0c-0,-5.541 -8.173,-10.142 -18.852,-10.987l-58.374,-0l-0,-69.648l99.527,0l0,32.687l0.256,-0l0,47.948Z" style="fill:white;"/>
        </g>
        <g>
            <path d="M2278.28,2788.59l-22.098,-0l0,-78.614c24.325,-2.184 27.746,-22.648 27.746,-47.537l-0,-41.665l124.402,-0l0.133,37.633c-0,71.849 -58.332,130.182 -130.183,130.183Zm-51.05,-0l-22.099,-0c-71.849,-0 -130.182,-58.333 -130.182,-130.183l0.353,-93.47l-0.353,-93.469c-0,-71.849 58.332,-130.182 130.182,-130.183l22.099,0l-0,69.212c-24.325,2.184 -27.746,22.648 -27.746,47.537l-0,204.405c-0,24.889 3.421,45.353 27.746,47.537l-0,78.614Zm181.096,-285.22l-124.398,0l-0,-45.336c-0,-24.889 -3.421,-45.353 -27.746,-47.537l0,-69.212l22.098,0c71.85,0 130.183,58.333 130.183,130.183l-0.137,31.902Z" style="fill:white;"/>
            <path d="M2923.75,2788.59l-22.098,-0c-71.85,-0 -130.183,-58.333 -130.183,-130.183l-0.006,-272.326l-0,-0c-0.043,-12.246 -4.505,-22.17 -10.59,-22.238l-0,-0l-0,-22.558l145.301,0l0,22.558c-6.14,-0 -10.652,10.036 -10.652,22.398c-0,0.765 0.019,1.522 0.056,2.268l0.426,273.93c0,24.889 3.422,45.353 27.746,47.537l0,78.614Zm54.535,-126.151l-0.056,-276.358l0,-0c-0.043,-12.246 -4.977,-22.17 -11.063,-22.238l0,-0l0,-22.558l146.722,0l-0,22.558c-6.141,-0 -11.126,10.036 -11.126,22.398c-0,0.765 0.019,1.522 0.056,2.268l0.002,269.898c0,71.836 -58.31,130.16 -130.182,130.183l-22.098,-0l-0,-78.614c24.324,-2.184 27.745,-22.648 27.745,-47.537Z" style="fill:white;"/>
            <path d="M438.506,2788.59l-134.874,-0l-0,-22.529l0,0c6.085,-0.068 11.02,-9.992 11.063,-22.238l0,-0l0,-357.742l0,-0c-0.043,-12.246 -4.978,-22.17 -11.063,-22.238l-0,-0l-0,-22.558l134.874,0l-0,447.305Zm72.362,-377.657l-45.419,0l0,-69.648l70.824,0c69.745,0 126.368,55.09 126.368,122.946c0,37.236 -17.051,70.627 -43.964,93.181c26.913,24.125 43.964,59.842 43.964,99.67c0,72.581 -56.622,131.507 -126.368,131.508l-70.824,-0l0,-78.333l46.628,0c23.23,-2.746 26.537,-22.94 26.537,-47.411l-0,-16.981c-0,-24.594 -3.341,-44.868 -26.891,-47.451l-46.274,-0l0,-72.839l45.419,0l0,-0.183c24.325,-2.183 27.746,-22.648 27.746,-47.537l-0,-19.348c-0,-24.888 -3.422,-45.353 -27.746,-47.536l0,-0.038Z" style="fill:white;"/>
            <path d="M3279.13,2788.59l-134.874,-0l0,-22.529l0.001,0c6.085,-0.068 11.02,-9.992 11.062,-22.238l0.001,-0l-0,-357.742l-0.001,-0c-0.042,-12.246 -4.977,-22.17 -11.062,-22.238l-0.001,-0l0,-22.558l134.874,0l-0,447.305Zm72.362,-377.657l-45.419,0l0,-69.648l70.824,0c69.745,0 126.369,55.09 126.369,122.946c-0,37.236 -17.051,70.627 -43.965,93.181c26.914,24.125 43.965,59.842 43.965,99.67c-0,72.581 -56.623,131.507 -126.369,131.508l-70.824,-0l0,-78.333l46.628,0c23.23,-2.746 26.537,-22.94 26.537,-47.411l0,-16.981c0,-24.594 -3.341,-44.868 -26.891,-47.451l-46.274,-0l0,-72.839l45.419,0l0,-0.183c24.325,-2.183 27.746,-22.648 27.746,-47.537l0,-19.348c0,-24.888 -3.421,-45.353 -27.746,-47.536l0,-0.038Z" style="fill:white;"/>
            <path d="M901.538,2410.93l-45.419,0l0,-69.648l70.824,0c69.745,0 126.368,55.09 126.368,122.946c0,37.236 -17.051,70.627 -43.964,93.181c26.913,24.125 43.964,59.842 43.964,99.67c0,2.394 0.086,86.741 0.086,86.741l0,0c0.043,12.251 4.981,22.177 11.069,22.238l0,0l0,22.529l-146.721,-0l-0,-22.529l-0,0c6.085,-0.068 11.02,-9.992 11.063,-22.238l0,-0l0.002,-97.958c0,-24.594 -2.867,-44.868 -26.417,-47.451l-46.274,-0l0,-72.839l45.419,0l0,-0.183c24.325,-2.183 27.746,-22.648 27.746,-47.537l-0,-19.348c-0,-24.888 -3.422,-45.353 -27.746,-47.536l0,-0.038Zm-72.362,377.657l-134.874,-0l-0,-22.529l0,0c6.085,-0.068 11.02,-9.992 11.063,-22.238l0,-0l0,-357.742l-0,-0c-0.043,-12.246 -4.978,-22.17 -11.063,-22.238l-0,-0l-0,-22.558l134.874,0l-0,447.305Z" style="fill:white;"/>
            <path d="M1246.21,2788.59l-134.874,-0l0,-22.529l0,0c6.086,-0.068 11.021,-9.992 11.063,-22.238l0.001,-0l-0,-357.742l-0.001,-0c-0.042,-12.246 -4.977,-22.17 -11.063,-22.238l0,-0l0,-22.558l134.874,0l-0,447.305Zm150.218,-0.108l-123.197,0l-0,-78.332l81.788,-0c10.679,-0.846 18.851,-5.446 18.851,-10.987l22.558,-0l-0,89.319Zm-27.856,-179.351l-22.557,0c-0,-5.541 -8.173,-10.142 -18.852,-10.987l-53.932,0l-0,-72.668l53.932,0c10.679,-0.845 18.852,-5.445 18.852,-10.987l22.557,0l0,94.642Zm27.856,-187.211l-22.558,0c0,-5.541 -8.172,-10.142 -18.851,-10.987l-82.044,0l-0,-69.648l123.197,0l-0,32.687l0.256,0l-0,47.948Z" style="fill:white;"/>
            <path d="M2566.07,2788.59l-134.873,-0l-0,-22.529l-0,0c6.085,-0.068 11.02,-9.992 11.063,-22.238l-0,-0l-0,-357.742l-0,-0c-0.043,-12.246 -4.978,-22.17 -11.063,-22.238l-0,-0l-0,-22.558l134.873,0l0,447.305Zm178.622,-0.108l-151.601,0l0,-78.332l110.192,-0c10.679,-0.846 18.852,-5.446 18.852,-10.987l22.557,-0l-0,89.319Z" style="fill:white;"/>
            <path d="M1852.44,2788.59l-145.169,-0l-4.734,-22.558c0.034,0 0.068,0 0.101,-0.001l0,-0.258c4.649,-1.659 6.698,-11.071 4.827,-21.95l0.081,-0l-93.724,-402.538l123.631,0l94.547,406.072c-0.005,-0.059 -0.01,-0.117 -0.015,-0.176l1.327,5.801c2.944,7.7 9.911,13.05 14.394,13.05l4.734,22.558Zm-172.575,-0l-145.137,-0l-4.734,-22.558c0.101,0 0.199,-0.002 0.296,-0.008l0,-0.251c4.649,-1.659 6.96,-11.071 5.089,-21.95l-0.006,-0l-85.657,-367.89c-3.134,-7.181 -9.707,-12.09 -14.002,-12.09l-4.734,-22.558l145.166,0l4.734,22.558c-0.029,-0 -0.058,-0 -0.086,0c-4.647,1.662 -6.944,11.36 -5.074,22.238l-0.01,0l85.882,368.856c3.282,6.636 9.446,11.095 13.539,11.095l4.734,22.558Zm153.547,-35.17l-0.1,-0.438l-0.005,-0.012l0.105,0.45Zm18.794,-389.581l4.734,-22.554l99.244,0l-4.734,22.558c-4.39,-0 -11.162,5.131 -14.206,12.574l-81.839,351.491l-39.092,-167.9l40.966,-175.949c1.305,-10.037 -0.728,-18.661 -5.087,-20.216l0.014,-0.004Z" style="fill:white;"/>
        </g>
    </g>
</svg>
