<?xml version="1.0" encoding="UTF-8" standalone="no"?>
<!DOCTYPE svg PUBLIC "-//W3C//DTD SVG 1.1//EN" "http://www.w3.org/Graphics/SVG/1.1/DTD/svg11.dtd">
<svg width="100%" height="100%" viewBox="0 0 679 879" version="1.1" xmlns="http://www.w3.org/2000/svg" xmlns:xlink="http://www.w3.org/1999/xlink" xml:space="preserve" xmlns:serif="http://www.serif.com/" style="fill-rule:evenodd;clip-rule:evenodd;stroke-linejoin:round;stroke-miterlimit:2;">
    <rect id="Typeface" x="0" y="0" width="678.313" height="878.879" style="fill:none;"/>
    <clipPath id="_clip1">
        <rect id="Typeface1" serif:id="Typeface" x="0" y="0" width="678.313" height="878.879"/>
    </clipPath>
    <g clip-path="url(#_clip1)">
        <g>
            <g>
                <path d="M591.215,322.982l-41.569,-0l-0,-6.944l-0,0c1.875,-0.021 3.396,-3.079 3.409,-6.854l0,0l0,-110.259l0,0c-0.013,-3.774 -1.534,-6.833 -3.409,-6.854l-0,0l-0,-6.952l41.569,-0l-0,137.863Zm76.02,-0l-44.741,-0l-1.459,-6.952c0.009,-0 0.017,-0.001 0.026,-0.001c1.433,-0.512 2.141,-3.501 1.564,-6.854l0.003,0l-22.325,-33.133l19.728,-26.136l41.43,62.397c0.965,2.213 2.991,3.727 4.315,3.727l1.459,6.952Zm-68.725,-83.662l27.694,-41.126c0.398,-3.068 -0.223,-5.704 -1.555,-6.179l0.004,-0.002l1.447,-6.894l30.338,-0l-1.447,6.896c-1.342,-0 -3.412,1.568 -4.343,3.843l-52.926,69.948l0.788,-26.486Z"/>
                <path d="M289.419,322.982l-44.783,-0l0,-6.944l0,0c1.876,-0.021 3.397,-3.079 3.41,-6.854l0,0l0,-110.259l-0,0c-0.013,-3.774 -1.534,-6.833 -3.41,-6.854l0,0l0,-6.952l44.783,-0l0,6.952c-1.892,0 -3.429,3.094 -3.429,6.904c0,0.236 0.006,0.469 0.018,0.699l-0,109.51l-0,0c0.013,3.776 1.535,6.836 3.411,6.854l0,0l0,6.944Zm66.153,-0l-44.784,-0l0,-6.944l0,0c1.876,-0.021 3.397,-3.079 3.41,-6.854l0,0l0,-44.816l-19.665,0l0,-22.449l19.665,-0l0,-42.994l0,0c-0.013,-3.774 -1.534,-6.833 -3.41,-6.854l0,0l0,-6.952l44.784,-0l-0,6.952c-1.893,0 -3.43,3.094 -3.43,6.904c0,0.236 0.006,0.469 0.018,0.699l-0,109.51l-0,0c0.013,3.776 1.535,6.836 3.411,6.854l0.001,0l-0,6.944Z"/>
                <path d="M472.425,322.405l-0,-24.23c-7.497,-0.673 -8.552,-6.98 -8.552,-14.651l0,-12.841l-23.896,-0l-0.041,19.505c-0,18.852 12.891,31.756 32.489,32.217Zm16.097,-45.029l-0.04,-0l-0,-78.451l-0,0c-0.013,-3.774 -1.534,-6.833 -3.41,-6.854l-0,0l-0,-6.952l44.783,-0l-0,6.952c-1.893,0 -3.429,3.094 -3.429,6.904c-0,0.236 0.006,0.469 0.017,0.699l0,71.009l0.041,11.598c0,22.145 -17.558,40.123 -39.703,40.124l-6.811,-0l0,-24.23c7.497,-0.673 8.552,-6.98 8.552,-14.651l-0,-6.148Z"/>
                <path d="M416.734,198.916l-0,110.268c0.013,3.776 1.535,6.836 3.411,6.854l0,6.944l-44.783,-0l0,-6.944c1.876,-0.02 3.397,-3.079 3.41,-6.854l-0,-110.268c-0.013,-3.774 -1.534,-6.833 -3.41,-6.854l0,-6.943l44.783,-0l0,6.943c-1.876,0.019 -3.398,3.079 -3.411,6.854Z"/>
                <path d="M53.047,323.891l-41.57,-0l0,-6.943l0,-0.001c1.876,-0.021 3.397,-3.079 3.41,-6.854l0,0l0,-110.258l0,-0.001c-0.013,-3.774 -1.534,-6.833 -3.41,-6.854l0,0l0,-6.952l41.57,-0l-0,137.863Zm40.631,-55.311l-6.953,0c0,-1.708 -2.518,-3.125 -5.81,-3.386l-19.54,-0l-0,-22.397l19.54,0c3.292,-0.26 5.81,-1.678 5.81,-3.386l6.953,-0l-0,29.169Zm8.506,-72.478l0.079,0l0,14.778l-6.952,0c-0,-1.708 -2.519,-3.125 -5.81,-3.386l-28.205,-0l-0,-21.466l40.888,-0l0,10.074Z"/>
                <path d="M224.846,261.814l-0,17.108l-0.018,-0l0.018,4.846c-0,22.144 -17.979,40.123 -40.124,40.123l-6.811,-0l0,-24.23c7.497,-0.672 8.552,-6.98 8.552,-14.651l-0,-0.765l-8.552,-0l0,-22.431l46.935,-0Zm-55.858,62.077l-6.811,-0c-22.145,-0 -40.123,-17.979 -40.123,-40.123l0.109,-28.809l-0.109,-28.808c-0,-22.144 17.978,-40.123 40.123,-40.123l6.811,-0l-0,21.332c-7.497,0.673 -8.552,6.98 -8.552,14.651l0,62.999c0,7.671 1.055,13.979 8.552,14.651l-0,24.23Zm55.815,-87.907l-38.34,-0l-0,-13.973c-0,-7.671 -1.055,-13.978 -8.552,-14.651l0,-21.332l6.811,-0c22.145,-0 40.124,17.979 40.124,40.123l-0.043,9.833Z"/>
            </g>
            <g>
                <path d="M41.769,509.584l-41.569,0l-0,-6.943l-0,-0c1.875,-0.021 3.396,-3.08 3.409,-6.854l0.001,-0l-0,-110.259l-0.001,-0c-0.013,-3.774 -1.534,-6.833 -3.409,-6.854l-0,-0l-0,-6.952l41.569,-0l-0,137.862Zm55.053,-0.033l-46.725,0l-0,-24.142l33.962,-0c3.291,-0.261 5.81,-1.679 5.81,-3.387l6.953,0l-0,27.529Z"/>
                <path d="M343.095,386.448l29.509,58.649l0,47.983l-29.509,-58.648l0,-47.984Zm37.813,123.136l0,-124.065c-0.013,-3.774 -1.534,-6.833 -3.409,-6.854l-0.001,-6.943l44.979,-0l0,6.943c-1.875,0.021 -3.396,3.08 -3.409,6.854l-0,110.259c0.013,3.774 1.534,6.833 3.409,6.854l0,6.952l-41.569,0Zm-42.707,0l-44.979,0l-0,-6.943c1.876,-0.021 3.397,-3.08 3.41,-6.854l-0,-110.259c-0.013,-3.774 -1.534,-6.833 -3.41,-6.854l-0,-6.952l41.569,-0l0,124.065c0.013,3.774 1.534,6.833 3.41,6.854l-0,6.943Z"/>
                <path d="M161.946,447.507l0,48.28c0.014,3.774 1.535,6.833 3.41,6.854l0,6.943l-44.979,0l0,-6.943c1.876,-0.021 3.397,-3.08 3.41,-6.854l-0,-110.259c-0.013,-3.774 -1.534,-6.833 -3.41,-6.854l0,-6.952l41.569,-0l0,47.983l0,27.802Zm8.305,-59.281l24.771,49.233l24.771,-49.233l0,47.983l-24.771,49.233l-24.771,-49.233l-0,-47.983Zm57.846,-16.504l41.569,-0l0,6.952c-1.875,0.021 -3.396,3.08 -3.409,6.854l-0,110.259c0.013,3.774 1.534,6.833 3.409,6.854l0,6.943l-44.979,0l0,-6.943c1.876,-0.021 3.397,-3.08 3.41,-6.854l0,-46.078l0,-30.004l0,-47.983Z"/>
                <path d="M492.967,509.584l-6.811,0c-22.144,0 -40.123,-17.978 -40.123,-40.123l0.109,-28.808l-0.109,-28.808c0,-22.145 17.978,-40.123 40.123,-40.123l6.811,-0l0,21.331c-7.497,0.673 -8.551,6.981 -8.551,14.651l-0,63c-0,7.671 1.054,13.978 8.551,14.651l0,24.229Zm15.068,-137.862c22.145,-0 40.123,17.978 40.123,40.123l-0.109,28.808l0.109,28.808c0,22.145 -17.979,40.123 -40.123,40.123l-6.811,0l-0,-24.229c7.497,-0.673 8.551,-6.98 8.551,-14.651l0,-63c0,-7.67 -1.054,-13.978 -8.551,-14.651l-0,-21.331l6.811,-0Z"/>
                <path d="M616.693,508.291l-44.979,0l-0,-6.943l-0,-0c1.875,-0.021 3.396,-3.08 3.409,-6.854l0.001,-0l-0,-110.259l-0.001,-0c-0.013,-3.775 -1.534,-6.833 -3.409,-6.854l-0,-0l-0,-6.953l41.569,0l-0,124.066l-0,-0c0.013,3.774 1.534,6.833 3.41,6.854l-0,-0l-0,6.943Zm14.516,-116.371l-9.622,-0l0,-21.466l17.452,-0c21.496,-0 38.948,16.979 38.948,37.892c0,11.477 0.526,9.24 0.526,21.516c-0,22.369 -17.452,40.531 -38.948,40.531l-17.452,0l-0,-24.142l9.994,-0c7.16,-0.847 8.179,-7.071 8.179,-14.613l-0.525,-25.056c-0,-7.671 -1.055,-13.978 -8.552,-14.651l0,-0.011Z"/>
            </g>
            <g>
                <path d="M102.957,11.195l42.191,116.708c0.966,2.213 2.992,3.726 4.315,3.726l1.459,6.953l-44.741,-0l-1.459,-6.953c0.009,0 0.018,0 0.027,-0c1.432,-0.512 2.14,-3.501 1.563,-6.854l0.003,-0l-9.332,-25.84l-25.716,0l8.108,-22.449l9.5,-0l-4.75,-13.15l18.832,-52.141Zm-48.833,113.58c-0.577,3.353 0.131,6.342 1.563,6.854c0.009,0 0.018,0 0.027,0l-1.459,6.953l-44.741,-0l1.459,-6.953c1.323,0 3.349,-1.513 4.315,-3.726l40.991,-113.387l0.001,0c0.577,-3.353 -0.135,-6.254 -1.568,-6.765l0,-0.078c-0.03,-0.001 -0.06,-0.002 -0.091,-0.002l1.459,-6.952l42.877,-0l-18.73,51.825l-0.009,-0.026l-8.657,23.968l0.014,-0l-2.529,6.998l0,-0.034l-14.925,41.325l0.003,-0Z"/>
                <path d="M372.352,138.582l-6.811,-0l-0,-24.23c7.497,-0.673 8.551,-6.98 8.551,-14.651l0,-12.842l38.342,0l0.041,11.599c0,22.145 -17.978,40.123 -40.123,40.124Zm-15.734,-0l-6.811,-0c-22.145,-0 -40.124,-17.979 -40.124,-40.124l0.109,-28.808l-0.109,-28.808c0,-22.145 17.979,-40.123 40.124,-40.123l6.811,-0l-0,21.331c-7.497,0.673 -8.552,6.981 -8.552,14.652l0,62.999c0,7.671 1.055,13.978 8.552,14.651l-0,24.23Zm55.815,-87.908l-38.341,0l0,-13.972c0,-7.671 -1.054,-13.979 -8.551,-14.652l-0,-21.331l6.811,-0c22.144,-0 40.123,17.978 40.123,40.123l-0.042,9.832Z"/>
                <path d="M478.1,138.582l-41.569,-0l-0,-6.944l-0,0c1.875,-0.021 3.396,-3.079 3.409,-6.854l0.001,-0l-0,-110.259l-0.001,-0c-0.013,-3.774 -1.534,-6.833 -3.409,-6.854l-0,-0l-0,-6.952l41.569,-0l-0,137.863Zm22.303,-116.397l-13.999,-0l0,-21.466l21.829,-0c21.495,-0 38.947,16.979 38.947,37.892l0,59.439c0,22.37 -17.451,40.531 -38.947,40.532l-21.829,-0l0,-24.143l14.371,-0c7.16,-0.847 8.179,-7.071 8.179,-14.613l0,-62.979c0,-7.671 -1.054,-13.978 -8.551,-14.651l-0,-0.011Z"/>
                <path d="M612.805,138.582l-41.569,-0l-0,-6.944l0,0c1.876,-0.021 3.397,-3.079 3.41,-6.854l-0,-0l-0,-110.259l-0,-0c-0.013,-3.774 -1.534,-6.833 -3.41,-6.854l-0,-0l-0,-6.952l41.569,-0l0,137.863Zm46.299,-0.034l-37.971,0l0,-24.142l25.208,-0c3.291,-0.261 5.81,-1.679 5.81,-3.387l6.953,0l-0,27.529Zm-8.586,-55.277l-6.952,-0c-0,-1.708 -2.519,-3.126 -5.81,-3.386l-16.623,-0l0,-22.397l16.623,-0c3.291,-0.261 5.81,-1.679 5.81,-3.386l6.952,-0l0,29.169Zm8.586,-57.7l-6.953,-0c0,-1.708 -2.519,-3.126 -5.81,-3.386l-25.287,-0l0,-21.466l37.971,-0l-0,10.074l0.079,-0l-0,14.778Z"/>
                <path d="M216.547,138.582l-41.569,-0l0,-6.944l0,0c1.876,-0.021 3.397,-3.079 3.41,-6.854l-0,-0l-0,-110.259l-0,-0c-0.013,-3.774 -1.534,-6.833 -3.41,-6.854l0,-0l0,-6.952l41.569,-0l0,137.863Zm22.303,-116.397l-13.999,-0l0,-21.466l21.829,-0c21.496,-0 38.948,16.979 38.948,37.892c-0,11.477 -5.255,21.768 -13.55,28.72c8.295,7.435 13.55,18.443 13.55,30.719c-0,22.37 -17.452,40.531 -38.948,40.532l-21.829,-0l0,-24.143l14.371,-0c7.16,-0.847 8.179,-7.071 8.179,-14.613l0,-5.233c0,-7.58 -1.029,-13.829 -8.288,-14.625l-14.262,-0l0,-22.45l13.999,0l-0,-0.056c7.497,-0.673 8.551,-6.98 8.551,-14.651l0,-5.964c0,-7.671 -1.054,-13.978 -8.551,-14.651l-0,-0.011Z"/>
            </g>
            <g>
                <path d="M604.903,695.058l-6.811,0c-22.145,0 -40.123,-17.978 -40.123,-40.123l-0.002,-83.933l-0.001,-0c-0.013,-3.775 -1.388,-6.833 -3.263,-6.854l-0,-0l-0,-6.953l44.783,0l-0,6.953c-1.893,-0 -3.283,3.093 -3.283,6.903c-0,0.236 0.005,0.469 0.017,0.699l0.131,84.428c0,7.67 1.055,13.978 8.552,14.651l-0,24.229Zm16.808,-38.88l-0.017,-85.176l-0,-0c-0.013,-3.775 -1.534,-6.833 -3.41,-6.854l-0,-0l-0,-6.953l45.221,0l-0,6.953c-1.893,-0 -3.429,3.093 -3.429,6.903c-0,0.236 0.006,0.469 0.017,0.699l0.001,83.185c-0,22.14 -17.972,40.116 -40.124,40.123l-6.81,0l-0,-24.229c7.497,-0.673 8.551,-6.981 8.551,-14.651Z"/>
                <path d="M75.204,668.964l-9.371,-9.978l0.437,-27.014l12.68,13.502l0,-52.439c0,-7.671 -1.054,-13.979 -8.551,-14.652l-0,-21.331l6.811,-0c22.145,-0 40.123,17.978 40.123,40.123l-0.109,28.808l0.109,28.808c-0,8.762 -2.815,16.872 -7.588,23.474l15.636,16.65l-25.807,-0l-4.118,-4.386c-5.475,2.804 -11.678,4.386 -18.246,4.386l-6.811,-0l-0,-24.23c2.044,-0.183 3.609,-0.786 4.805,-1.721Zm-13.062,25.951l-6.811,-0c-22.145,-0 -40.123,-17.979 -40.123,-40.124l0.109,-28.808l-0.109,-28.808c-0,-22.145 17.978,-40.123 40.123,-40.123l6.811,-0l-0,21.331c-7.497,0.673 -8.552,6.981 -8.552,14.652l0,62.999c0,7.671 1.055,13.978 8.552,14.651l-0,24.23Z"/>
                <path d="M213.197,577.588l-13.999,-0l0,-21.466l21.829,-0c21.496,-0 38.948,16.979 38.948,37.893c-0,11.476 -5.256,21.768 -13.55,28.719c8.294,7.435 13.55,18.444 13.55,30.719c-0,0.738 0.026,26.734 0.026,26.734l0,0c0.013,3.776 1.535,6.835 3.412,6.854l-0,0l-0,6.944l-45.221,-0l-0,-6.944l0,0c1.876,-0.021 3.397,-3.079 3.41,-6.854l-0,0l0.001,-30.191c-0,-7.58 -0.884,-13.829 -8.143,-14.625l-14.262,0l0,-22.449l13.999,-0l-0,-0.057c7.497,-0.673 8.551,-6.98 8.551,-14.651l0,-5.963c0,-7.671 -1.054,-13.979 -8.551,-14.651l-0,-0.012Zm-22.303,116.397l-41.569,-0l0,-6.944l0,0c1.876,-0.021 3.397,-3.079 3.41,-6.854l-0,0l-0,-110.259l-0,0c-0.013,-3.774 -1.534,-6.833 -3.41,-6.854l0,0l0,-6.952l41.569,-0l0,137.863Z"/>
                <path d="M412.456,556.122l77.089,-0l0,125.65c0.367,3.018 1.72,5.26 3.332,5.26l-0,6.953l-44.901,-0l0,-6.944l0,0c1.876,-0.021 3.397,-3.079 3.41,-6.854l0,0l0,-102.599l-26.246,-0c-3.291,0.26 -5.81,1.678 -5.81,3.386l-6.952,0l-0,-14.778l0.078,0l0,-10.074Zm116.093,24.852l-6.953,0c0,-1.708 -2.519,-3.126 -5.81,-3.386l-17.991,-0l-0,-21.466l30.675,-0l-0,10.074l0.079,0l-0,14.778Z"/>
                <path d="M324.93,556.122l7.419,-0l0,22.944l-3.762,2.034l0,0.113c-2.522,1.088 -3.897,3.194 -4.628,5.92c-0.048,3.174 -2.419,7.156 7.233,14.511c8.334,6.351 40.987,25.966 46.897,31.498c10.183,9.533 10.074,34.904 3.71,45.912c-7.333,9.748 -17.819,14.901 -31.044,14.931l-9.887,-0l-0,-24.647l4.923,-0c3.37,-0.872 5.086,-3.201 5.935,-6.364c0.048,-3.174 -0.33,-5.97 -1.641,-8.051l-1.447,-1.672c-1.086,-0.919 -4.145,-4.789 -4.145,-4.789c-0,0 -40.272,-25.665 -40.288,-25.677c-16.707,-13.555 -17.866,-36.587 -9.733,-50.56c6.154,-10.573 17.293,-16.102 30.458,-16.103Zm7.419,137.863l-2.659,-0c-22.145,-0 -40.123,-17.979 -40.123,-40.124l0.041,-11.598l38.342,-0l-0,12.841c-0,5.94 0.632,11.063 4.399,13.385l0,25.496Zm8.304,-137.863l5.042,-0c22.145,-0 40.124,17.979 40.124,40.123l-0.042,9.833l-38.341,-0l0,-13.973c0,-7.022 -0.883,-12.901 -6.783,-14.362l0,-21.621Z"/>
            </g>
            <g>
                <path d="M251.707,879.459l-44.742,-0l-1.459,-6.953c0.01,0 0.021,0 0.031,-0l0,-0.08c1.433,-0.511 2.064,-3.412 1.488,-6.765l0.025,0l-28.887,-124.065l38.104,-0l29.141,125.154c-0.002,-0.018 -0.004,-0.036 -0.005,-0.054l0.409,1.788c0.907,2.373 3.054,4.022 4.436,4.022l1.459,6.953Zm-53.189,-0l-44.732,-0l-1.459,-6.953c0.031,0 0.061,-0.001 0.091,-0.002l-0,-0.078c1.433,-0.511 2.145,-3.412 1.568,-6.765l-0.001,0l-26.401,-113.387c-0.965,-2.213 -2.991,-3.726 -4.315,-3.726l-1.459,-6.952l44.741,-0l1.459,6.952c-0.009,0 -0.018,0 -0.026,0c-1.433,0.512 -2.141,3.501 -1.564,6.854l-0.003,0l26.469,113.685c1.012,2.045 2.912,3.419 4.173,3.419l1.459,6.953Zm47.325,-10.84l-0.031,-0.135l-0.002,-0.004l0.033,0.139Zm5.792,-120.072l1.459,-6.951l30.588,-0l-1.459,6.952c-1.353,0 -3.44,1.581 -4.378,3.876l-25.224,108.332l-12.049,-51.748l12.627,-54.229c0.402,-3.094 -0.225,-5.752 -1.568,-6.231l0.004,-0.001Z"/>
                <path d="M574.726,741.734l-0.03,-0.134l-0.002,-0.004l0.032,0.138Z"/>
                <path d="M74.577,879.459l-44.743,-0l-1.459,-6.953c0.011,0 0.021,0 0.032,-0l-0,-0.08c1.432,-0.511 2.064,-3.412 1.487,-6.765l0.025,0l-28.886,-124.065l38.104,-0l29.14,125.154c-0.001,-0.018 -0.003,-0.036 -0.004,-0.054l0.408,1.788c0.908,2.373 3.055,4.022 4.437,4.022l1.459,6.953Zm-0.072,-130.912l1.459,-6.951l30.588,-0l-1.459,6.952c-1.354,0 -3.441,1.581 -4.379,3.876l-25.223,108.332l-12.049,-51.748l12.626,-54.229c0.403,-3.094 -0.224,-5.752 -1.567,-6.231l0.004,-0.001Z"/>
                <path d="M348.278,755.393l63.663,110.268c2.193,3.776 5.481,6.835 7.369,6.854l4.009,6.944l-44.784,-0l-4.008,-6.944c1.863,-0.021 1.618,-3.079 -0.548,-6.854l-63.663,-110.268c-2.192,-3.774 -5.479,-6.833 -7.367,-6.854l-4.009,-6.943l44.783,-0l4.009,6.943c-1.865,0.019 -1.621,3.078 0.546,6.854Zm22.616,22.537l15.195,-22.528c2.533,-3.774 3.075,-6.833 1.213,-6.854l4.69,-6.952l31.327,-0l-4.69,6.952c-1.89,0.021 -5.474,3.08 -8.033,6.854l-28.399,42.104l-11.303,-19.576Zm-19.528,65.284l-15.14,22.447c-2.533,3.775 -3.075,6.833 -1.214,6.854l-4.683,6.944l-31.327,-0l4.684,-6.944c1.889,-0.021 5.473,-3.079 8.032,-6.854l28.346,-42.024l11.302,19.577Z"/>
                <path d="M639.762,741.734l37.918,0l-65.024,137.863l-37.962,0l65.068,-137.863Zm-19.315,21.466l-28.728,0c-3.291,0.261 -5.81,1.679 -5.81,3.387l-6.952,-0l-0,-14.778l0.079,-0l-0,-10.075l51.421,0l-10.01,21.466Zm12.821,92.255l31.649,-0c3.292,-0.261 5.81,-1.679 5.81,-3.387l6.953,0l-0,27.529l-55.67,0l11.258,-24.142Z"/>
                <path d="M509.614,785.565l15.027,-30.163c1.867,-3.774 1.87,-6.833 0.005,-6.854l3.463,-6.952l31.327,-0l-3.464,6.952c-1.886,0.021 -4.93,3.08 -6.824,6.854l-27.685,55.573l-11.849,-25.41Zm-30.673,35.28l-30.521,-65.452c-1.773,-3.774 -4.72,-6.833 -6.606,-6.854l-3.237,-6.943l44.783,-0l3.237,6.943c-1.867,0.019 -1.963,3.078 -0.215,6.854l30.521,65.452l-0,44.816c0.013,3.776 1.535,6.835 3.411,6.854l0,6.944l-44.783,-0l0,-6.944c1.876,-0.021 3.397,-3.079 3.41,-6.854l-0,-44.816Z"/>
            </g>
        </g>
    </g>
</svg>
